<svg xmlns="http://www.w3.org/2000/svg" xml:space="preserve" viewBox="0 0 512 512">
  <circle cx="256" cy="256" r="195.9" fill="#00693E" fill-rule="evenodd" clip-rule="evenodd"/>
  <circle cx="256" cy="256" r="152.4" fill="#4E8FCC" fill-rule="evenodd" clip-rule="evenodd" transform="rotate(-45 256 256)"/>
  <circle cx="256" cy="256" r="108.8" fill="#FCB31F" fill-rule="evenodd" clip-rule="evenodd"/>
  <circle cx="256" cy="256" r="65.3" fill="#FFF" fill-rule="evenodd" clip-rule="evenodd"/>
  <path fill="#FFF" d="M183.5 284.1a19 19 0 0 1-13.2 32.3h-.3l-1.6-.1-.4-.1-1.6-.3h-.2l-1.4-.4-.4-.1-1.5-.6-.2-.1-1.3-.6-.3-.2-1.3-.8-.2-.2-1.1-.8-.3-.2a12 12 0 0 1-1.2-1.1l-.2-.2-.9-1-.2-.2-.9-1.3-.2-.3-.3-.5-.6.8-.3.5-1.1 1.4a19.3 19.3 0 0 1-10.4 6l-3.1.4h-1.5l-.6-.1h-.3a18.7 18.7 0 0 1-17.1-17.9v-.9a17.8 17.8 0 0 1 4.3-12c2.3-2.8 5.3-4.9 8.9-6l1.5-.4.4-.1 1.2-.2h.4l.4-.1-.2-.4-.5-1.1-.3-.7-.3-1.2-.2-.7-.2-1.3-.1-.7-.1-2.1a19 19 0 0 1 17.6-18.6h1.9c5 .2 9.8 2.4 13.3 6.1 3.5 3.8 5.2 8.7 4.9 13.8l-.2 1.8-.1.6-.2 1.2-.2.7-.3 1.1-.3.7-.4.9.8.1 1 .1.9.1.9.1.9.2.8.2.9.3.7.3 1 .5.7.3 1 .6.6.3 1.1.8.4.3c.4.2.8.6 1.3 1.1zm251.8 8.9-.1-1.5c0-.7-.2-1.4-.4-2.2a7 7 0 0 0-1.1-2.5 5.9 5.9 0 0 0-4.5-2.7 6 6 0 0 0-5.3 2.4l-.4.5-.7.8c-.6.6-1.5 1.1-2.7 1.6a19.5 19.5 0 0 1-3.5 1.2l-.3.1c-.6-.7-1.2-1.2-1.6-1.5-1.1-.9-2.3-1.6-3.5-2L404 285l-2.7-.8-2.8-.9-3.1-1-2.6-.8-2.3-.7-3.5-1.1-2.8-.9-4.7-1.4-7.9-2.4-3.3-1-2.4-.7-2.5-.7-2.9-.9-3.1-1-4.1-1.3-4.4-1.4-4.2-1.3-4.9-1.5-4.7-1.4-.2-.5-.4-.8a5.7 5.7 0 0 0-4.4-3.4l-.9-.1h-14.7c0-2.3-.2-4.6-.5-6.9h3.1l1.9.1 5.5.2 8.2.1h.2l.6.4c.9.6 1.9 1 3 1.3l1.1 1.5c1.7 1.8 3.9 2.9 6.6 3.2l.9.1c1.4 0 2.5-.4 3.2-.6 1.2-.4 2.2-1 3.2-1.8l.7.1a8 8 0 0 0 2.2 0h.2l.8-.2a8.7 8.7 0 0 0 4.6-2.7 9.2 9.2 0 0 0 2.7-5.8c.3-.9.4-1.7.5-2.4l.1-.7.1-.6.2-1.6.1-1.4.1-1.1c2.2-1 4-2.6 5.3-4.8a12 12 0 0 0 1.7-7.7c-.3-2.8-1.5-5.4-3.6-7.4a10.8 10.8 0 0 0-3.5-2.4l-.4-3.2c-.1-1-.3-2.1-.7-3.2v-.2a9.5 9.5 0 0 0-7.7-8.6 11 11 0 0 0-3.6-.1 10 10 0 0 0-10.9-1.3 9.4 9.4 0 0 0-3.6 2.9 9.2 9.2 0 0 0-5.8 3.5h-43.1c-.6 0-1.2.1-1.7.3l-.4.2-.7.4-.4.2a57 57 0 0 0-20.8-7.1l6.9-12.8c.5-1 .6-1.9.6-2.2.2-1.5-.3-2.9-1.2-4.1a5.5 5.5 0 0 0-3.9-2c-.2 0-21.1-.2-23.9.1h-.2c-1.4.2-2.6.8-3.5 1.9l-.8 1.1-12.4 22.9-.3.7-.1.2-.1.4-.4-.1-.3-.1-.7-.1h-98.1c-.3-.5-.7-1.1-1.2-1.6-.8-1-1.9-1.9-3-2.5a8.2 8.2 0 0 0-7.8-.1 5.5 5.5 0 0 0-2.8 4.8v32.9c0 3 2.1 5.4 5.1 5.8l.7.1c.9.1 2 0 3.3-.4 2-.7 3.7-1.8 5.1-3.4l.5-.7 3 .2 1.6.1 1.2.1h.6l1.1.1 1.8.1 2.3.1 1.8.1 2.6.2 2.1.1 1.3.1h.3l1.1.1 3.3.2 1.6.1.8.1 1.8.1 1.9.1 1.3.1 1.2.1 3 .2h.3l9.6.6c.8 1.4 1.7 2.6 3 3.6 1.4 1.2 3 2.1 4.8 2.6l3.8 1 1.3.3 1.4.3 1.3.3 2.9.7 6.4 1.5 1.5.4-.1 3.3a58.6 58.6 0 0 0 108.7 30l5.7 1.7 8 2.5 21.5 6.7 3 .9 1.9.6 2.7.8 3.5 1.1 2.7.8 3.6 1.1 3.6 1.1 2.9.9 2.9.9 7 2.2 9.4 2.9 5.5 1.7.7.2c1.3.4 2.8.9 4.6 1.1l2 .1 2.6-.3.4-.1 1.2.1 2-.2h.1c1.7-.2 3.3-.6 4.7-1 1.2-.4 2.5-.8 4-1.5a61 61 0 0 0 6.2-3.2c1.7-1.1 3.9-2.4 5.9-3.9l1.1-.8 1.7-1.3 2.5-2.1 3-2.7a8 8 0 0 0 2.6-6.3c.1.1.1-.2.1-.4z"/>
  <path fill="#ED1C24" d="M170.1 284c-3.6 0-6.8 1.3-9.4 4a13 13 0 0 0-3.9 9.5c0 7.4 5.8 13.3 13.4 13.4 7.7-.1 13.4-6.1 13.4-13.4a13 13 0 0 0-3.9-9.5 13.7 13.7 0 0 0-9.6-4zm.8 19.6c1.2 0 2.4-.2 3.1-.6l.5 2.2c-.7.3-2.1.7-4 .7-4.9 0-7.9-3.1-7.9-7.8 0-5.1 3.6-8.2 8.3-8.2a9 9 0 0 1 3.8.7l-.6 2.3a8 8 0 0 0-3-.6c-3.2 0-5.5 2-5.5 5.7-.1 3.4 1.9 5.6 5.3 5.6zm-4.2-32.3a13.4 13.4 0 1 0-26.8-1.5 13.4 13.4 0 0 0 26.8 1.5zm-10.2 6.3-1.4-4.4h-4.9l-1.3 4.4H146l5-15.6h3.6l5.1 15.6h-3.2zm131.7-64-.1-.1v-.1h46.8l.1-.3a4 4 0 0 1 3.6-3.3l1.4.2.4.2c.2-.1.2-.2.3-.4a4.7 4.7 0 0 1 2.5-3.3 4.6 4.6 0 0 1 6.5 2.7l.2.5.4-.2a4.2 4.2 0 0 1 7 1.2c.2.4.3.7.3 1.1l.2 1.2.5 2.6.5 4.5.1 1.8.1.4.5.1a7 7 0 0 1 4.2 1.9 7 7 0 0 1 1.1 8.4 6.5 6.5 0 0 1-4.3 3.1l-1.5.3c-.2.4-.1.8-.2 1.2l-.3 3.7-.1 1.2-.2 1.4-.6 3-.2 1a4 4 0 0 1-1.2 2.5c-1 1-2.1 1.4-3.5 1.2a4.6 4.6 0 0 1-2.7-1.3l-.4-.2c-.2.9-.7 1.8-1.4 2.5a4 4 0 0 1-1.6 1c-.6.2-1.2.4-1.8.3a5.3 5.3 0 0 1-3.2-1.5c-.9-.9-1.2-2-1.3-3.3-.7.2-1.3.4-1.9.3-.7 0-1.3-.3-1.9-.6-.6-.4-.9-.9-1.3-1.4h-.5l-2.2.1-8-.1-5.2-.2-3.2-.1-3-.1-2-.1h-.4l-.3-.8c-.5-2.2-1.3-4.3-2.1-6.5a71.8 71.8 0 0 0-3.8-7.9 47.2 47.2 0 0 0-7.9-10.4l-2.9-2.8a22 22 0 0 0-2.3-2 26 26 0 0 0-3.2-2.6zm-57.5-4.1-.1-.1 12.4-23 .2-.3h23.1v.3l-9.2 17a57.5 57.5 0 0 0-26.4 6.1zm-77.4 57.7 1.2 3.8h-4l1.2-3.8.7-2.9c.4.9.6 1.9.9 2.9zm50-27a53.8 53.8 0 0 0-2.8 11c-.3.1-.5 0-.8 0l-2.9-.7-4.6-1.1-4.2-1-2.7-.6-4.8-1.2c-1.1-.3-2-.9-2.9-1.6a7.6 7.6 0 0 1-2.5-4.2l-.1-.4-.1-.1-1-.1-1.6-.1-2.4-.1-1.1-.1-1-.1-2.3-.1-2.4-.1h-.8l-1.2-.1-2.3-.1-1.5-.1-3.2-.2-2.5-.2h-.3l-4.8-.2-1.2-.1-1.5-.1-2.1-.1-4.4-.3-4.2-.2-1.2-.1-1.7-.1c-1.5-.1-3.1-.1-4.6-.3l-3.2-.2h-.3l-.3.9c-.2.7-.6 1.2-1 1.8-.7.9-1.7 1.5-2.7 1.8-.5.2-1 .1-1.6.1-.2 0-.3-.2-.3-.4v-32.9c.9-.3 1.7-.2 2.5.2.6.3 1 .7 1.4 1.2a16.3 16.3 0 0 1 1.9 3.3c.1.3.3.3.5.3h101l.2.1a57.2 57.2 0 0 0-15.7 16.6 66 66 0 0 0-4.7 10zm-54.1 50c-.9-1.3-1.9-2.5-3.2-3.5-2-1.5-4.2-2.3-6.7-2.7h-.3c-1.2 0-2.4-.1-3.6.2l-1.5.4a13.8 13.8 0 0 0-9.4 12.8l.2 2.1a13.1 13.1 0 0 0 7.9 10.2c1.3.6 2.6.9 4 1l1.5.1 2.4-.3a13 13 0 0 0 7.4-4.3 13 13 0 0 0 3.3-9.2c0-.7 0-1.5-.2-2.2a11 11 0 0 0-1.8-4.6zm-6.6 3.4h-6.1v4.3h5.7v2.3h-5.7v6.6h-2.8v-15.6h9v2.4zm118.2-34c0 2.8-2.3 4.8-4.8 4.8-2.7.1-4.8-2.3-4.8-4.8 0-2.9 2.4-4.8 4.8-4.8 2.7 0 4.8 2.1 4.8 4.8zm-36.1-24.4 15.5 15.5c-.2.7-.6 1.3-.9 2l-.7 2-.1.1h-22.2c0-1.6.9-5.6 1.9-8.5a43 43 0 0 1 6.1-11.1c.2-.1.3-.1.4 0zm31.3-28.6a53 53 0 1 0 0 106 53 53 0 0 0 0-106zm32 24.1a43.1 43.1 0 0 1 11 26.7h-28.2c-.4-2.5-1.3-4.8-2.8-6.8l20-19.9zm-29.6-14.2a43 43 0 0 1 26.7 11.2l-19.9 19.9a14.8 14.8 0 0 0-6.8-2.9v-28.2zm-4.2 0v28.1c-2.6.3-5 1.3-7.1 2.8l-19.9-19.9a42.6 42.6 0 0 1 27-11zm-41.3 40.9a42.9 42.9 0 0 1 11.3-27l19.9 19.9c-1.6 2-2.7 4.5-3 7.1h-28.2zm11.2 31.3a42.5 42.5 0 0 1-11.2-27.1H241c.4 2.7 1.4 5.1 3 7.2l-19.9 19.9zm30.1 14a42.4 42.4 0 0 1-27.1-11.1l19.9-19.9c2.1 1.5 4.5 2.5 7.2 2.8v28.2zm-5.8-43.1a7.7 7.7 0 0 1 7.7-7.6 7.7 7.7 0 0 1 7.6 7.6c0 4.1-3.3 7.4-7.6 7.6a7.7 7.7 0 0 1-7.7-7.6zm10 43.1v-28.2c2.6-.4 4.9-1.5 6.9-3l19.9 19.9a43.7 43.7 0 0 1-26.8 11.3zm29.7-14.3-19.9-19.9a15 15 0 0 0 2.7-6.9h28.2a43.4 43.4 0 0 1-11 26.8zm-56-59.6-.7-.8a39.5 39.5 0 0 1 19.6-8.1l.1.3v22l-.7.3c-.9.3-1.8.6-2.6 1.1l-.3.1c-.3.1-.5.1-.7-.1l-.6-.6c-4.6-4.8-9.4-9.5-14.1-14.2zm63.7 35.8-.6 3.9c-.8 3.5-2 6.8-3.7 10l-.3.3-2.3-.8-5.6-1.9-5.1-1.7c-.5-.2-.9-.4-1.2-.7l-4.6-4.7c-.4-.5-.5-.5-.2-1 .5-.9.9-1.8 1.1-2.7l.3-.6h21.6c.1-.2.3-.2.6-.1zm134 27.2a5 5 0 0 0-.2-1.2l-.3-.8c-.3-.5-.7-.5-1.1-.1l-.3.3-1.5 1.6c-1.2 1.2-2.7 2-4.2 2.6-1.1.5-2.2.9-3.4 1.2l-1.7.5-2.9.5c-.3.1-.6 0-.9-.1-.2-.1-.3-.2-.3-.4a4.5 4.5 0 0 0-1.8-2.8 5 5 0 0 0-1.6-.9l-5.2-1.6-4.8-1.5-5.9-1.9-4.9-1.5-6.3-2-5.5-1.7-4.4-1.3-5.9-1.8-4.8-1.5-5.9-1.9-8.5-2.6-7.7-2.4-7.2-2.2c-.7-.2-1.2-.6-1.6-1.2-.5-.7-.8-1.5-1.1-2.2l-.3-.8h-17l-.4.1-.1.9-.2 1.7-.8 4.6-1.1 4.2a72 72 0 0 1-2.4 6.5l-.7 1.6.9.3 5.9 1.8 8.1 2.5 7.5 2.3 5.9 1.8 6.5 2 4.5 1.4 4.6 1.5 6.2 1.9 7.3 2.3 5.8 1.8 8.1 2.5 7.4 2.3 6.4 2c1.4.4 2.7.9 4.2 1.1 1 .1 2 .2 3 0l1.1-.3.5-.1c.4.1.9.3 1.4.3l1.4-.2c1.2-.1 2.4-.4 3.6-.8l3.5-1.3a63.3 63.3 0 0 0 10.8-6.4l2.7-2.1 2.3-1.9 2.9-2.6c.6-.6.9-1.3.9-2.1-.4-.5-.4-1.2-.5-1.9zm-92.6-8.9c-.4.5-1 .7-1.7.7l-1-.2-5.4-1.6-5.2-1.6-4-1.2c-.9-.3-1.5-.8-1.7-1.7-.3-1 .4-2.2 1.4-2.6.6-.2 1.1-.1 1.7 0l3.4 1 2.2.7 3.6 1.1 3.4 1 1.7.5c.6.2 1.1.4 1.5.9 1 1.1.9 2.2.1 3zm29.2 9c-.5.5-1 .8-1.7.7l-.9-.2-5.1-1.5-2.9-.9-5.2-1.6-1.4-.4c-.7-.2-1.3-.7-1.6-1.4-.4-.8-.1-1.6.4-2.2.6-.7 1.4-.9 2.3-.7l4.4 1.3 4.8 1.5 5.7 1.7c.5.2 1 .4 1.3.9.7.9.7 2.1-.1 2.8zm29.9 7.9c-.2 1-1 1.8-2.2 1.8l-1.1-.2a993.2 993.2 0 0 1-14.3-4.3c-.5-.2-1-.4-1.3-.8-1.1-1.2-.4-3.3 1.1-3.6.6-.1 1.1 0 1.6.1l2.9.9 7 2.1 4.2 1.3 1 .4c.8.3 1.3 1.3 1.1 2.3zm-124.2-48.4c-.4-.8-.3-.7.2-1.3l15-15 .2-.2a40 40 0 0 1 8.2 19.7l-.3.1h-22.1l-.2-.5c-.1-1-.5-1.9-1-2.8zm-11.2-9.7v-21.8c.1 0 .3-.1.4 0a46 46 0 0 1 8.4 2.1l3.1 1.3c1.8.8 3.5 1.7 5.1 2.8l2.6 1.8.1.2-.6.7-5.1 5.1-3.5 3.5-5.9 5.9-.3.3c-.2.2-.4.3-.7.1-1-.6-2.1-1-3.2-1.3l-.3-.1-.1-.6zM81.2 122.1l1.6 1.2c.9.7 1.8 1 2.7.9s1.7-.7 2.6-1.9l2-2.7 9.6 7.2-19.1 25.4L71 145c1.1-1.5 1.8-2.8 1.8-3.7.1-1-.4-1.9-1.6-2.7l-13.1-9.9c-1.1-.9-2.2-1.1-3.1-.8-.9.4-1.9 1.3-3.1 2.8l-9.6-7.2 21-28c1.9-2.6 3.8-4.5 5.7-5.8 1.9-1.3 3.8-2 5.7-2.3a12 12 0 0 1 5.6.7c1.9.7 3.7 1.8 5.6 3.2a21 21 0 0 1 4.5 4.4c1.1 1.5 1.8 3.2 2 5a14 14 0 0 1-.8 5.9c-.8 2.1-2.1 4.5-4.1 7l-6.3 8.5zm-6.2-4.6 2.1-2.8c1.1-1.5 1.5-2.7 1.1-3.9a5.7 5.7 0 0 0-2.4-3.1 6 6 0 0 0-3.6-1.4c-1.2-.1-2.4.6-3.5 2.1l-2.1 2.8 8.4 6.3zm19.1-22.9a27 27 0 0 1-5.3-9.8c-.9-3.3-1.1-6.6-.5-9.8.6-3.2 1.9-6.3 3.9-9.4A39.7 39.7 0 0 1 110 51.1a24 24 0 0 1 10-1.9c3.3.1 6.4.9 9.5 2.5a27 27 0 0 1 8.5 7.2 27 27 0 0 1 5.3 9.8c.9 3.3 1.1 6.6.5 9.8-.6 3.2-1.9 6.4-3.9 9.4a39.7 39.7 0 0 1-17.8 14.5c-3.3 1.4-6.7 2-10 1.9-3.3-.1-6.5-.9-9.5-2.5a27 27 0 0 1-8.5-7.2zM111 80.8c1.7 2 3.1 3.7 4.4 4.9 1.3 1.2 2.4 2.1 3.5 2.7 1.1.5 2.1.7 3 .6a6 6 0 0 0 2.9-1.4c1-.8 1.6-1.6 2-2.5.3-.9.4-1.9.1-3.1a13 13 0 0 0-1.9-4 76.7 76.7 0 0 0-8.3-10.2 14.3 14.3 0 0 0-3.5-2.7 5.8 5.8 0 0 0-3-.6c-1 .2-1.9.6-2.9 1.4-1 .8-1.7 1.7-2 2.6-.3.9-.3 1.9 0 3.1.3 1.1 1 2.5 1.9 4 .9 1.4 2.2 3.2 3.8 5.2zm42.2-3.5-4.8-11c1.7-.8 2.9-1.5 3.4-2.3.5-.8.5-1.8 0-3.1l-6.6-15.1c-.6-1.3-1.3-2-2.3-2.2s-2.3.2-4.1.9l-4.8-11 31.5-13.8a29 29 0 0 1 7.7-2.4c2.2-.3 4.2-.2 5.9.4 1.7.5 3.1 1.5 4.2 2.7 1.2 1.3 2.1 2.8 2.9 4.6 1.5 3.3 1.8 6.3 1.1 9s-2.8 4.9-6.3 6.6l.2.4c1.8-.6 3.3-.9 4.7-.9 1.3 0 2.5.3 3.5.8s1.9 1.3 2.7 2.4 1.5 2.3 2.1 3.8l.7 1.6c.2.5.5.9 1 1.1.4.3.9.3 1.4 0 .6-.3.9-.6 1-1.1.1-.5 0-1-.2-1.5l-3.3-7.6 3.4-1.5 3.3 7.6c.6 1.4 1 2.8 1.1 4.2s-.1 2.7-.7 4.1-1.6 2.6-2.9 3.7a21.6 21.6 0 0 1-5.5 3.3c-2.3 1-4.3 1.6-6 1.7a10 10 0 0 1-4.4-.6 7.9 7.9 0 0 1-3.1-2.3c-.8-1-1.6-2.2-2.1-3.5l-1-2.3c-.7-1.6-1.3-2.8-2-3.7s-1.2-1.5-1.9-1.9c-.6-.4-1.3-.5-2.1-.4-.7.1-1.6.4-2.5.8l-.7.3 1.9 4.3c.5 1.1 1.1 1.7 1.9 1.9s1.9 0 3.4-.7l4.8 11-26.5 11.7zm12.2-33.4 2.6-1.1c1.7-.7 2.6-1.6 2.9-2.7.3-1.1.1-2.3-.5-3.8a6.2 6.2 0 0 0-2.5-3.2c-.9-.5-2.3-.3-3.9.4l-2.6 1.1 4 9.3zM246 .1l3.1 18.8-10.5 1.7-.7-3.7c-.2-1-.6-1.9-.9-2.5-.4-.6-.8-1-1.4-1.3a4 4 0 0 0-2.2-.1l-2 .3 3.5 21.2c.2 1.4.8 2.3 1.7 2.6.9.4 2.3.4 4.2.1l1.9 11.9-29.5 4.9-1.9-11.9c1.9-.3 3.2-.8 3.9-1.4.7-.6 1-1.6.7-3l-3.5-21.2-2 .3c-.9.1-1.6.4-2 .8-.5.4-.8.9-.9 1.6-.2.7-.2 1.6-.1 2.6l.5 3.7-10.6 1.7-3.1-18.8L246 .1zm39.6 14.1c-1.9-.1-3.3 0-4.1.5-.8.4-1.3 1.4-1.4 2.8l-1.5 20 6.5.5c.9.1 1.6 0 2.3-.1.6-.1 1.1-.5 1.5-1 .4-.5.7-1.3.9-2.3s.4-2.3.5-3.9l11.3.8-1.4 19.6-46.8-3.4.9-12c1.9.1 3.3 0 4.1-.5.9-.4 1.3-1.4 1.4-2.8L261 16c.1-1.4-.2-2.4-1-3-.8-.6-2.1-.9-4-1.1l.9-12 29.7 2.2-1 12.1zM335 44.5l-9.7-3.4-.9 1.2c-.6.8-.9 1.5-.7 2.2.2.7.8 1.3 2 1.7l1.7.6-3.9 11.4-19.1-6.6 3.9-11.4 1.3.4c1.5.5 2.6.6 3.3.1.7-.4 1.5-1.1 2.3-2.1l11.7-13.4c.9-1 1.2-1.9 1.1-2.5-.1-.7-.9-1.3-2.4-1.8l-.6-.2 3.9-11.4 31.6 10.9-3.9 11.4-.6-.2c-1.5-.5-2.5-.5-3 0s-.7 1.4-.6 2.7l.9 17.7.1 1.7c0 .5.2.9.3 1.3l.9 1.1 1.8.9 1.3.4-3.9 11.4-28-9.6 3.9-11.4 1.7.6c1.2.4 2.1.4 2.7-.1.6-.4.9-1.2.9-2.2v-1.4zm-6.5-7.6 6.5 2.3.2-10.5-.2-.1-6.5 8.3zm104.2 27.9-7 9.8c-1.6-1.1-2.8-1.6-3.6-1.4a4 4 0 0 0-2.3 1.7l-18.6 26.2-15.9-11.3 1.5-31.5-6.5 9.2c-.8 1.1-1 2.1-.5 2.9.5.8 1.5 1.7 3 2.8l-7 9.8-18.2-12.9 7-9.8c1.6 1.1 2.8 1.7 3.8 1.7 1 .1 1.9-.5 2.7-1.6l9.5-13.4c.8-1.2 1-2.2.7-3.1a8 8 0 0 0-2.9-3l7-9.8L406.1 46l-1.5 30.1 5.6-7.9c.8-1.2 1.1-2.1 1-2.9-.2-.8-1.1-1.7-2.6-2.8l7-9.8 17.1 12.1zm-28.3 38.5 9.4-7.5c1.2 1.5 2.2 2.4 3.2 2.7.9.3 1.9 0 3-.8l12.8-10.3c1.1-.9 1.6-1.8 1.5-2.8-.1-1-.8-2.2-2-3.7l9.4-7.5 21.6 26.9c1.9 2.4 3.5 5 4.7 7.8a20 20 0 0 1-.6 17.5c-1.5 3-4 5.9-7.5 8.7a29 29 0 0 1-10.1 5.5 18 18 0 0 1-9.2.3c-2.9-.6-5.7-1.9-8.3-3.8-2.6-1.9-5-4.2-7.2-7l-20.7-26zm26.7 13.9c.7.9 1.6 1.8 2.5 2.5a6 6 0 0 0 3.1 1.3c1.2.2 2.5 0 4.1-.6 1.5-.5 3.3-1.6 5.4-3.3 2-1.6 3.5-3.1 4.4-4.5.9-1.4 1.4-2.7 1.6-3.9.1-1.2-.1-2.3-.6-3.4s-1.2-2.1-1.9-3.1l-1.9-2.4-18.5 14.9 1.8 2.5zM92.9 448.4l1.5-3.1c-1.8-.1-3.9-.6-6.3-1.6s-4.7-2.6-6.9-4.7a35.4 35.4 0 0 1-6.2-7.9 22.6 22.6 0 0 1-2.8-8.9c-.3-3.1.2-6.2 1.5-9.5a29 29 0 0 1 6.5-9.7 28 28 0 0 1 9.6-6.8 21.8 21.8 0 0 1 18.4.6 30.5 30.5 0 0 1 10.8 9 21.2 21.2 0 0 1 3.1 6.3l.5 2.1 1.8-1.9 7.7 7.4-12.3 12.7-8.2-7.9a8.8 8.8 0 0 0 2.4-5.4c.1-1.9-.7-3.7-2.4-5.3a8.4 8.4 0 0 0-2.8-1.8c-1-.4-2.2-.5-3.5-.3-1.3.2-2.7.8-4.3 1.8-1.6 1-3.3 2.5-5.2 4.4-1.8 1.9-3.2 3.6-4.3 5s-1.7 2.8-2 4a6.2 6.2 0 0 0 0 3.3c.3 1 1 2 2 2.9l.9.7 1.2.7 1.2.3c.4 0 .8-.1 1.1-.4l1.2-1.3c.7-.7 1-1.5.9-2.4-.1-.9-.9-2-2.3-3.3l7.4-7.7 19.7 19-7.4 7.7c-1.4-1.3-2.5-2.1-3.5-2.3-.9-.2-1.9.2-2.9 1.2l-9.2 9.6-6.9-6.5zm31.3-3.7c2-3.7 4.4-6.5 7.2-8.6a21.9 21.9 0 0 1 19-3.9 39.4 39.4 0 0 1 20 11.2c2.5 2.6 4.3 5.5 5.5 8.5 1.2 3.1 1.6 6.3 1.2 9.7a27 27 0 0 1-3.5 10.6 28 28 0 0 1-7.1 8.6 21.9 21.9 0 0 1-19 3.9 39.4 39.4 0 0 1-20-11.2 26.3 26.3 0 0 1-5.5-8.5c-1.2-3.1-1.6-6.3-1.2-9.8.2-3.4 1.4-6.9 3.4-10.5zm19 10.6a44.6 44.6 0 0 0-2.9 5.9c-.7 1.6-1.1 3.1-1.2 4.2-.1 1.2.1 2.2.6 3 .5.8 1.3 1.6 2.4 2.2 1.1.6 2.1.9 3.1.9a5 5 0 0 0 2.9-1.1c1-.7 2-1.8 3-3.2a64.6 64.6 0 0 0 6.4-11.5c.7-1.7 1.1-3.1 1.2-4.3.1-1.2-.1-2.2-.6-3a6.5 6.5 0 0 0-2.4-2.2 6.7 6.7 0 0 0-3.1-.9 5 5 0 0 0-2.9 1.1c-1 .7-2 1.8-3 3.3a56.7 56.7 0 0 0-3.5 5.6zm35 18.7a29 29 0 0 1 4.6-10.2 22 22 0 0 1 7.6-6.3 24 24 0 0 1 9.8-2.5c3.6-.2 7.4.2 11.5 1.2 4 1 7.6 2.4 10.7 4.3 3.1 1.9 5.6 4.1 7.5 6.8 1.9 2.7 3.2 5.7 3.7 9.1.6 3.4.4 7.1-.6 11.2-1 4-2.5 7.4-4.6 10.1a22.6 22.6 0 0 1-17.3 8.8c-3.6.2-7.4-.2-11.5-1.2s-7.6-2.4-10.7-4.3-5.6-4.1-7.5-6.8a22.3 22.3 0 0 1-3.8-9.1c-.6-3.3-.4-7 .6-11.1zm21.2 5.3c-.6 2.5-1.1 4.7-1.3 6.5s-.2 3.2 0 4.4.7 2.1 1.3 2.8c.7.7 1.7 1.2 2.9 1.5 1.2.3 2.3.3 3.2 0 .9-.3 1.8-.9 2.5-1.8a14 14 0 0 0 2-3.9 105.9 105.9 0 0 0 3.2-12.7c.2-1.8.3-3.3 0-4.4a5 5 0 0 0-1.4-2.8 7.5 7.5 0 0 0-6.2-1.6c-.9.3-1.7.9-2.5 1.8s-1.4 2.2-2 3.9l-1.7 6.3zm96-16.4.3 12c-1.9 0-3.1.4-3.7 1-.6.6-.9 1.6-.8 2.7l.7 32.1-19.5.4-17.5-26.2.2 11.2c0 1.4.5 2.3 1.3 2.7.8.4 2.2.5 4.1.5l.3 12-22.3.5-.3-12c1.9 0 3.3-.3 4.1-.8.8-.5 1.2-1.5 1.2-2.9l-.3-16.4c0-1.4-.5-2.4-1.3-2.9s-2.2-.7-4.1-.7l-.3-12 25.5-.5 16.8 25.1-.2-9.7c0-1.4-.3-2.4-1-2.9-.6-.5-1.9-.7-3.8-.7l-.3-12 20.9-.5zm43 24.3c.9-.3 1.5-.5 2.1-.9.5-.3.9-.7 1.1-1.2.2-.5.3-1.1.2-1.9l-.6-2.8 10.9-3.3 5.1 17-44.3 13.3-3.5-11.5a7.8 7.8 0 0 0 3.7-1.9c.6-.7.8-1.8.4-3.1l-4.7-15.7c-.4-1.4-1.1-2.2-2-2.4-.9-.3-2.3-.1-4.1.4l-3.5-11.5 44.3-13.3 5.1 17-10.9 3.3c-.3-1.1-.7-2-1-2.7-.3-.7-.7-1.1-1.2-1.4s-1-.4-1.6-.4c-.6 0-1.4.1-2.2.4l-5.6 1.7 2.5 8.3 9.9-3 1.6 5.5-9.9 3 2.7 9 5.5-1.9zm33 1.2-6.3-10.3c1.6-1 2.7-1.9 3.1-2.8.4-.9.3-1.9-.5-3.1l-8.6-14c-.7-1.2-1.6-1.8-2.6-1.8a8 8 0 0 0-3.9 1.5l-6.3-10.3 29.3-18a29 29 0 0 1 7.3-3.4c2.2-.6 4.1-.7 5.9-.4s3.3 1 4.6 2.1c1.3 1.1 2.5 2.5 3.5 4.2 1.9 3.1 2.7 6 2.3 8.8-.4 2.8-2.1 5.2-5.3 7.4l.2.3c1.7-.9 3.2-1.4 4.5-1.5 1.3-.2 2.5 0 3.6.4s2.1 1.1 3 2a19 19 0 0 1 2.6 3.4l.9 1.5c.3.5.6.8 1.1 1 .4.2.9.1 1.4-.2.5-.3.8-.7.8-1.2s-.1-.9-.4-1.4l-4.3-7 3.2-2 4.3 7c.8 1.3 1.4 2.7 1.7 4 .3 1.4.2 2.7-.2 4.1-.4 1.4-1.2 2.8-2.4 4.1a21.3 21.3 0 0 1-5 4 19 19 0 0 1-5.7 2.5 8.2 8.2 0 0 1-7.8-1.9c-1-.9-1.8-2-2.6-3.2l-1.3-2.1c-.9-1.5-1.7-2.6-2.4-3.4-.7-.8-1.4-1.4-2.1-1.6s-1.4-.3-2.1-.1c-.7.2-1.5.6-2.4 1.1l-.7.4 2.4 4c.6 1 1.3 1.5 2.1 1.6.8.1 1.9-.3 3.3-1.1l6.3 10.3-24.5 15.1zm7.5-34.7 2.4-1.5c1.6-1 2.4-2 2.5-3.1.1-1.1-.2-2.3-1-3.6-1-1.6-1.9-2.5-2.9-2.8-1-.3-2.3 0-3.8.9l-2.4 1.5 5.2 8.6zm56.9-53.6-7.6 7.6a8.3 8.3 0 0 0-3-1.4 9.2 9.2 0 0 0-3.3-.2 10.1 10.1 0 0 0-5.9 2.8c-1 1-1.6 1.9-1.8 2.9-.2 1 0 1.8.6 2.4.6.6 1.4.9 2.3.7s2-.5 3.1-1.1l3.8-2.2c1.4-.9 2.8-1.7 4.4-2.4l4.8-2c1.7-.6 3.4-.9 5.1-.9 1.7 0 3.5.3 5.2 1s3.5 1.9 5.2 3.6c1.8 1.8 3 3.8 3.5 5.8.5 2.1.5 4.2 0 6.3a22 22 0 0 1-2.7 6.4 29.6 29.6 0 0 1-4.8 5.9 32 32 0 0 1-12.8 7.5l2 2-7.6 7.6-12.3-12.5 7.6-7.6c2.2 1.3 4.5 1.9 6.9 1.6 2.4-.3 4.4-1.3 6.1-2.9a6.7 6.7 0 0 0 1.9-3.1c.1-1-.1-1.7-.6-2.3-.8-.8-1.9-1-3.3-.6-1.4.5-2.9 1.2-4.6 2.2l-5.6 3.2c-2.1 1.1-4.2 2-6.4 2.5s-4.4.5-6.8 0c-2.3-.5-4.6-1.9-6.8-4.1a13 13 0 0 1-3.8-11.6c.3-2.1 1.1-4.2 2.2-6.2a28.4 28.4 0 0 1 17.3-13.4l-2.1-2.1 7.6-7.6 12.2 12.2z"/>
</svg>
