<?xml version="1.0" standalone="no"?>
<!DOCTYPE svg PUBLIC "-//W3C//DTD SVG 20010904//EN"
 "http://www.w3.org/TR/2001/REC-SVG-20010904/DTD/svg10.dtd">
<svg version="1.0" xmlns="http://www.w3.org/2000/svg"
 width="600.000000pt" height="600.000000pt" viewBox="0 0 600.000000 600.000000"
 preserveAspectRatio="xMidYMid meet">
<metadata>
Created by potrace 1.14, written by Peter Selinger 2001-2017
</metadata>
<g transform="translate(0.000000,600.000000) scale(0.100000,-0.100000)"
fill="#000000" stroke="none">
<path d="M2919 5533 c-41 -25 -83 -49 -94 -54 -11 -5 -27 -13 -35 -19 -44 -28
-166 -99 -287 -166 -27 -15 -52 -30 -58 -34 -9 -7 -57 -34 -130 -74 -11 -6
-22 -14 -25 -17 -3 -3 -18 -12 -35 -21 -16 -8 -46 -24 -65 -35 -19 -11 -62
-36 -95 -55 -33 -19 -88 -51 -122 -71 -34 -21 -66 -37 -72 -37 -6 0 -11 -3
-11 -8 0 -4 -21 -18 -47 -32 -27 -14 -82 -45 -123 -69 -41 -24 -100 -58 -130
-74 -30 -17 -57 -33 -60 -37 -3 -3 -30 -19 -60 -34 -30 -16 -57 -31 -60 -35
-3 -3 -23 -15 -45 -26 -22 -11 -42 -22 -45 -25 -8 -8 -42 -27 -90 -51 -25 -13
-47 -25 -50 -29 -9 -11 -359 -210 -370 -210 -5 0 -10 -4 -10 -10 0 -5 -7 -10
-15 -10 -8 0 -16 -3 -17 -7 -1 -5 -2 -232 -3 -506 -1 -286 -6 -501 -11 -506
-7 -7 -122 -31 -219 -47 -11 -2 -31 -5 -45 -8 -45 -10 -95 -20 -105 -21 -5 -1
-9 -5 -9 -10 3 -14 14 -181 17 -238 3 -47 2 -48 -33 -57 -19 -5 -46 -11 -60
-14 -63 -11 -300 -67 -300 -70 0 -2 13 -30 30 -64 16 -34 30 -64 30 -67 0 -2
15 -36 34 -74 19 -38 31 -72 28 -75 -3 -3 1 -6 8 -6 7 0 11 -3 7 -6 -3 -4 10
-37 29 -75 19 -38 34 -71 34 -74 1 -3 9 -24 19 -48 19 -43 19 -46 0 -123 -11
-43 -22 -90 -25 -104 -3 -14 -11 -45 -18 -70 -7 -25 -14 -48 -15 -52 0 -5 -1
-9 -2 -10 0 -2 -2 -12 -4 -23 -1 -11 -17 -80 -35 -153 -18 -73 -31 -135 -29
-137 3 -2 49 7 104 21 55 14 120 29 145 34 25 5 54 11 65 14 128 27 288 59
320 63 l40 4 -1 -38 c-2 -45 7 -57 59 -86 85 -47 115 -64 197 -112 47 -28 92
-54 102 -60 9 -5 29 -17 45 -26 15 -9 45 -25 66 -37 20 -12 52 -30 70 -41 17
-10 113 -65 212 -122 99 -57 182 -106 185 -109 6 -6 84 -49 117 -65 13 -5 23
-13 23 -17 0 -5 5 -8 11 -8 6 0 71 -36 146 -80 74 -44 137 -80 138 -80 2 0 40
-22 84 -49 44 -27 81 -47 84 -45 2 3 10 -2 17 -11 7 -8 19 -15 26 -15 8 0 14
-4 14 -10 0 -5 4 -10 9 -10 5 0 57 -28 116 -62 108 -63 161 -94 234 -135 22
-12 50 -28 63 -35 13 -7 30 -18 38 -24 8 -6 35 -22 60 -35 25 -13 60 -34 78
-46 39 -26 51 -23 135 31 31 20 58 36 61 36 2 0 50 27 106 60 56 33 103 60
105 60 2 0 32 17 67 39 35 21 214 125 398 231 184 106 346 200 360 208 14 9
28 16 32 15 3 -2 12 4 18 12 7 8 19 15 26 15 8 0 14 4 14 9 0 5 6 11 13 13 10
2 425 238 507 288 23 15 180 105 225 130 84 47 200 114 205 118 3 2 6 22 7 45
0 23 2 45 2 48 1 4 30 1 65 -7 84 -17 111 -23 144 -29 15 -3 34 -8 42 -10 8
-2 29 -7 45 -10 28 -4 177 -37 318 -69 32 -8 57 -10 57 -4 0 12 -20 98 -27
118 -7 18 -7 19 -22 95 -7 33 -15 67 -18 75 -3 8 -7 21 -9 29 -1 7 -8 34 -14
60 -6 25 -13 55 -15 66 -2 11 -13 57 -24 103 -18 80 -18 84 -1 120 10 20 55
120 100 222 80 182 110 249 117 261 2 6 -116 39 -157 44 -8 1 -22 5 -30 8 -13
4 -150 34 -190 41 -10 2 -15 13 -14 32 4 88 16 240 20 245 8 13 -22 26 -86 39
-36 6 -74 14 -85 16 -11 2 -36 7 -55 10 -19 3 -42 7 -50 9 -8 3 -33 7 -55 11
-22 3 -44 10 -50 14 -6 5 -10 186 -9 509 l1 501 -29 12 c-15 7 -28 16 -28 20
0 5 -4 8 -9 8 -5 0 -42 19 -83 43 -180 106 -223 132 -228 132 -3 0 -18 9 -35
19 -16 11 -47 30 -67 43 -21 12 -40 23 -42 23 -3 0 -78 43 -167 95 -89 52
-163 95 -165 95 -2 0 -28 16 -58 35 -30 19 -58 35 -62 35 -4 0 -34 17 -68 38
-34 21 -68 42 -76 45 -8 4 -31 17 -50 28 -19 12 -53 32 -75 44 -22 13 -80 46
-130 75 -114 66 -131 76 -238 139 -49 28 -93 51 -98 51 -5 0 -9 5 -9 10 0 6
-4 10 -10 10 -8 0 -138 72 -180 100 -8 6 -31 18 -50 28 -19 9 -37 19 -40 22
-3 3 -16 11 -30 19 -14 8 -61 35 -105 61 -44 25 -87 49 -96 52 -9 4 -46 -13
-90 -39z"/>
</g>
</svg>
