<?xml version="1.0" encoding="UTF-8"?><svg id="Layer_1" xmlns="http://www.w3.org/2000/svg" viewBox="0 0 491.22 512"><path d="M187.78,276.51l1.96.46-.74,1.87c-1.14,2.87-2.27,5.74-3.41,8.61-7.19,18.16-14.62,36.93-22.37,54.97l-1.85,4.31-1.41-4.47c-.99-3.15-1.99-6.3-2.98-9.44-2.04-6.44-4.14-13.09-6.19-19.68-8.13,3.21-16.26,6.41-24.4,9.62l-4.61,1.81,2.46-4.3c9.42-16.47,19.48-33.97,29.79-50.98l.67-1.1,1.25.32c2.87.73,5.74,1.47,8.61,2.2,7.57,1.95,15.4,3.96,23.22,5.8ZM174.77,233.76l2.29.54c6.6,1.55,13.19,3.25,19.57,4.9,2.05.53,4.1,1.06,6.16,1.58l1.46.37.58-1.4c6.1-14.78,12.27-29.92,18.24-44.56,7.36-18.04,14.95-36.66,22.51-54.88,9.5,23.93,19.19,48.12,28.58,71.55,3.67,9.16,7.34,18.33,11.01,27.5l3.04,7.59c12.55,31.39,25.53,63.84,38.76,95.46l1.81,4.34,1.45-4.47c1.21-3.74,2.4-7.59,3.55-11.31,1.83-5.91,3.71-11.99,5.74-17.82,4.82,1.99,9.76,3.91,14.55,5.78,3.19,1.25,6.5,2.53,9.72,3.82l4.68,1.87-122.92-212.15-70.79,121.28ZM437.14,111.1v218.59l-.87.5-190.67,110.59-191.53-111.1V111.1L245.61,0l191.53,111.1ZM401.17,131.85L245.61,41.65l-155.56,90.2v177.14l155.56,90.14,155.56-90.14v-177.14ZM329.79,250.63c3.03,5.68,6.16,11.56,9.23,16.83l.64,1.11,1.25-.28c4.06-.93,8.11-2.11,12.02-3.25,4.22-1.23,8.59-2.51,12.95-3.45l.82-.18,19.46-39.13-3.73,1.01c-10.36,2.79-20.87,5.44-31.02,8-8.51,2.14-17.31,4.36-26.02,6.66l-2.16.57,1.08,1.95c1.79,3.25,3.67,6.77,5.48,10.17ZM102.94,219.48c2.71,7.25,4.82,15.32,6.85,23.13.97,3.71,1.97,7.55,3.02,11.27l.28.97.98.24c15.4,3.77,32,7.99,48.04,12.06,9.14,2.32,18.59,4.72,27.69,7.01l1.46.37.57-1.4c1.68-4.11,3.46-8.22,5.18-12.2,2.09-4.84,4.26-9.85,6.27-14.91l.74-1.85-1.93-.49c-8.64-2.19-17.38-4.46-25.83-6.66-12.41-3.23-25.22-6.56-38.02-9.7l108.25-144.29v-31.93L102.58,218.51l.36.96ZM245.59,216.41c-22.76,0-41.22,18.45-41.22,41.22s18.45,41.22,41.22,41.22,41.22-18.45,41.22-41.22-18.45-41.22-41.22-41.22Z" fill="#9e8556"/><path d="M245.61,4.03L57.56,113.1v214.58l188.05,109.08,188.05-109.08V113.1L245.61,4.03ZM404.66,311l-.87.5-158.18,91.66-.87-.51-158.17-91.66v-181.15L245.61,37.62l.87.51,158.17,91.72v181.15ZM260.42,231.46c-4.03,3.04-7.65,2.97-11.32-.24v-11.02c6.03.46,11.51,2.28,16.67,5.52-1.86,2.47-3.66,4.39-5.35,5.74ZM225.43,225.72c5.11-3.2,10.7-5.05,16.67-5.52v11.02c-3.64,3.17-7.32,3.25-11.23.23-1.74-1.32-3.53-3.21-5.44-5.73ZM221.01,254.14c.49-6.13,3.12-11.24,8-15.55,5.62,3.26,11.3,2.85,16.58-1.2,5.27,4.04,10.98,4.45,16.66,1.2,4.89,4.4,7.53,9.51,8.02,15.55h-5.02c-1.14-1.86-3.22-3.46-6.1-4.67-3.68-1.58-8.18-2.35-13.76-2.35-5.12,0-9.37.72-12.98,2.2h-.11l-.33.14c-2.9,1.24-4.97,2.83-6.07,4.67h-4.91ZM272.42,231.05c7.24,7.38,10.93,16.33,10.98,26.58-.05,10.42-3.63,19.15-10.95,26.68-.37.35-.76.69-1.16,1.04-1.31-1.67-2.46-3.02-3.52-4.15,6.73-6.45,9.93-14.35,9.5-23.5v-.07c.43-9.18-2.76-17.1-9.49-23.55,1.13-1.18,2.3-2.53,3.54-4.09.39.35.76.71,1.11,1.06ZM245.6,277.93c-2.93-2.25-5.98-3.38-9.08-3.38-2.48,0-5,.72-7.5,2.18-4.89-4.31-7.52-9.44-8-15.6h4.9c1.07,1.82,3.1,3.41,6.06,4.71l.34.15h.12c3.42,1.39,7.89,2.15,13.29,2.25h.03s.03,0,.03,0c5.32-.11,9.69-.89,13.35-2.38l.04-.02c2.94-1.28,4.99-2.87,6.1-4.72h5.01c-.5,6.01-3.19,11.24-8.02,15.6-5.68-3.25-11.39-2.83-16.66,1.2ZM256.41,255.94c1.57.65,2.34,1.29,2.65,1.72-.33.48-1.14,1.11-2.65,1.73l-1,.41c-2.61.89-5.79,1.37-9.66,1.46-4.57-.1-8.16-.71-10.96-1.87-1.51-.62-2.32-1.25-2.65-1.73.31-.43,1.08-1.07,2.65-1.72h.02c2.83-1.21,6.39-1.82,10.59-1.82,3.95,0,7.28.48,10.14,1.46l.87.36ZM242.1,284.21v10.96c-6.12-.54-11.61-2.38-16.67-5.59,1.88-2.48,3.67-4.33,5.42-5.63l.04-.03c3.88-3.03,7.56-2.94,11.22.29ZM265.77,289.57c-5.07,3.22-10.56,5.06-16.68,5.6v-10.96c3.69-3.27,7.31-3.36,11.32-.28,1.71,1.32,3.5,3.22,5.35,5.65ZM223.4,281.21c-1.16,1.24-2.32,2.64-3.46,4.15-.38-.34-.73-.67-1.04-1l-.03-.03c-7.42-7.57-11.03-16.3-11.03-26.69s3.71-19.18,11.02-26.59l.07-.07c.29-.33.62-.67.98-.99,1.1,1.44,2.26,2.81,3.47,4.09-6.71,6.46-9.89,14.38-9.46,23.55v.07c-.43,9.15,2.75,17.05,9.46,23.51ZM175.41,240.41c7.83,2.04,15.9,4.14,23.92,6.17-1.78,4.39-3.67,8.74-5.49,12.97-1.53,3.55-3.11,7.2-4.63,10.87-8.65-2.18-17.57-4.44-26.22-6.64-15.71-3.99-31.95-8.12-47.09-11.83-.95-3.38-1.85-6.85-2.73-10.22-1.97-7.55-4-15.35-6.6-22.51L243.04,60.51v21.37l-110.72,147.59,2.57.62c13.63,3.31,27.3,6.87,40.53,10.31ZM245.55,119.41l114.87,198.26c-1.71-.67-3.41-1.33-5.08-1.99-5.34-2.08-10.86-4.24-16.18-6.46l-1.69-.71-.62,1.73c-2.29,6.42-4.38,13.17-6.4,19.7-.69,2.22-1.39,4.49-2.1,6.75-12.58-30.21-24.94-61.11-36.91-91.04l-3.04-7.59c-3.67-9.17-7.34-18.34-11.01-27.5-9.91-24.73-20.16-50.31-30.15-75.52l-1.58-3.99-1.65,3.96c-8.11,19.49-16.27,39.51-24.16,58.87-5.78,14.18-11.75,28.82-17.66,43.15-1.56-.4-3.12-.8-4.69-1.21-5.66-1.46-11.49-2.96-17.35-4.37l65.4-112.05ZM332.86,248.99c-1.46-2.74-2.96-5.56-4.43-8.26,7.99-2.09,16.03-4.12,23.83-6.08,8.96-2.26,18.18-4.58,27.35-7.01l-15.27,30.72c-4.2.95-8.35,2.16-12.37,3.33-3.46,1.01-7.03,2.05-10.58,2.91-2.83-4.92-5.72-10.35-8.52-15.6ZM163.69,274.08c6.96,1.79,14.13,3.63,21.33,5.35-.89,2.25-1.78,4.49-2.67,6.74-6.6,16.69-13.42,33.89-20.48,50.56-.52-1.65-1.04-3.31-1.57-4.96-2.22-7.03-4.52-14.29-6.75-21.46l-.56-1.79-1.74.69c-7.17,2.83-14.35,5.66-21.53,8.49,8.48-14.82,17.45-30.35,26.61-45.5,2.45.63,4.9,1.25,7.35,1.88Z" fill="#fff"/><path d="M304.75,483.45c-1.9-2.2-4.43-3.73-8.21-4.95-.54-.17-1.17-.41-1.26-.69-.09-.28.28-.85.66-1.36,1.27-1.73,2.55-3.46,3.52-4.77.56-.76,1.12-1.51,1.69-2.26,1.03-1.37,2.09-2.79,3.12-4.2,1.12-1.54.99-2.67-.44-3.91-1.44-1.24-2.82-1.42-4.23-.54-1.31.81-2.49.61-4.07-.7-.14-.12-.27-.27-.41-.43-.09-.11-.19-.22-.29-.32-1.09-1.12-1.97-1.3-3.38-.69-.56.24-1.09.56-1.59.87l-.11.07c-.51.31-1.02.63-1.53.95-.73.46-1.49.94-2.25,1.38-.35.21-.78.46-.9.42-.12-.04-.34-.52-.48-.81-.5-1.09-1.31-1.58-2.48-1.5-.59.04-1.28.09-1.94.24-8.23,1.87-14.28,6.98-17.97,15.18-1.72,3.81-2.42,8.01-2.21,13.19.34,8.25,4.28,14.66,11.71,19.04,3.66,2.16,7.92,3.16,12.66,2.95.45.02.89.04,1.34.04,4.77,0,9.45-1.39,14.28-4.23,4.6-2.71,7.23-6.2,8.04-10.69.84-4.66-.26-8.79-3.27-12.28ZM276.02,496.65v.05c0,.23,0,.42-.16.66-1.52-1.9-2.35-4.17-2.49-6.75l-.04-.68c-.2-3.78-.41-7.7.4-11.49.16-.73.38-1.49.69-2.4.17-.51.44-.59.62-.59.05,0,.1,0,.13.01.43.07.68.3.77.69.07.34.08.71.08.99,0,6.5,0,13.01,0,19.51ZM285.8,503.25c-1.23.67-2.71.61-4.32-.2,1.9-.89,3.28-2.03,4.49-3.16.02.02.05.05.07.07.03.04.06.06.09.09,0,.32.06.67.1,1,.15,1.1.21,1.85-.42,2.2ZM291.05,471.95c-.74,1.04-1.53,2.13-2.35,3.22-.17.23-.32.18-.37.16-.08-.03-.15-.08-.16-.39-.01-1.28-.02-2.64.02-3.99,0-.11.03-.25.12-.33.07-.06.16-.07.25-.07.03,0,.06,0,.08,0,.23.08.45.16.68.23.55.18,1.11.37,1.65.6.12.05.19.11.21.18.03.09-.02.24-.13.39ZM294.8,494.58c-.07.08-.38.08-.56.08-.06,0-.13,0-.18,0-.06,0-.12,0-.18,0-.59.03-.69-.03-.72-.22-.01-.1,0-.15.02-.17.05-.06.29-.08.46-.09.1,0,.2-.01.29-.03.11.01.23.01.34.02.52,0,.55.06.56.22.01.09,0,.16-.02.19ZM402.57,501.51c-1.17-.54-1.17-1.35-1.17-2.5.01-4.43,0-8.94,0-13.3v-.7c0-1.1.04-2.4.36-3.71.53-2.2.07-3.15-2.09-4.24-1.88-.95-3.71-2.14-5.43-3.55-1.86-1.51-2.56-1.53-4.7-.14-.66.43-1.35.86-2.02,1.27-.64.39-1.29.79-1.93,1.21-1.1.71-1.96.68-2.9-.1-.58-.49-1.23-.9-1.86-1.29-.15-.09-.3-.19-.45-.28-2.13-1.36-2.7-1.34-4.72.12-.52.37-1.02.77-1.5,1.16-.86.69-1.75,1.41-2.73,1.95l-.09.05-.04.1c-.18.43-.54.73-.92,1.04-.09.08-.19.16-.28.24-.12-.09-.19-.24-.28-.46-.06-.15-.12-.31-.23-.46l-.05-.08-.08-.04c-.06-.02-.11-.05-.17-.08-.14-.07-.31-.16-.49-.18-4.45-.7-8.6-2.54-12.47-4.36-1.26-.59-2.37-.48-3.48.35-2.51,1.88-5.54,2.98-9.28,3.37-1.4.14-2.29.55-2.72,1.25-.42.69-.39,1.63.1,2.88.38.99.55,2.04.55,3.4,0,.89,0,1.78-.01,2.67-.01,2.81-.03,5.72.03,8.57.04,1.85-.13,3.82-1.6,5.72-.45.58-.71,1.09-.85,1.53-.04-.44-.23-.92-.6-1.42-.68-.94-.82-1.87-.81-2.99.01-4.8.01-9.58,0-14.2v-.15c0-1.26-.01-2.46.86-3.44.21-.23.29-.54.35-.76.02-.06.03-.12.05-.16l.02-.05v-.05c.03-.89-.32-2.03-2.17-2.35-3.51-.61-7.09-1.86-11.28-3.91-1.65-.81-2.92-.71-4.23.32-1.65,1.3-3.62,2.16-6.02,2.62-.98.19-1.97.34-2.94.49l-.8.12c-.88.14-1.48.45-1.85.96-.37.52-.46,1.2-.29,2.1.1.51.25.95.45,1.3.55.93.62,1.94.62,2.9v1.62c-.02,3.64-.03,7.4.01,11.1.02,1.41-.35,2.52-1.16,3.51l-.14.17c-.5.61-1.02,1.24-1.27,2.07-.26.87-.23,1.59.11,2.15.33.54.91.89,1.74,1.04.58.11,1.17.19,1.74.27.47.07.93.13,1.39.21,3.26.55,6.64,1.39,9.37,3.72.91.78,1.67,1.11,2.38,1.11.89,0,1.69-.54,2.57-1.38,2.3-2.21,5.12-3.67,8.38-4.35l.22-.05c.48-.1.98-.2,1.46-.37.89-.32,1.46-.77,1.7-1.35,0,.26.06.48.13.65.33.84,1.29,1.41,2.77,1.64,4.87.77,9.18,1.66,12.72,4.78.86.76,1.96.74,2.94-.06.23-.19.45-.39.66-.59.2-.18.4-.37.6-.54,3.38-2.79,6.32-4.06,9.51-4.11h.13s.09-.09.09-.09c.08-.08.16-.16.24-.24.17-.17.33-.33.5-.48.61-.54,1-.91,1.15-1.27.11.49.45,1.09.94,1.95l.05.09.09.04c2.88,1.31,4.63,2.88,5.67,5.11.34.72.9,1.2,1.59,1.35.14.03.28.04.43.04.57,0,1.14-.23,1.64-.65.63-.54,1.14-1.25,1.55-1.83,1.04-1.44,2.38-2.66,4.11-3.76,1.38-.87,1.47-.86,2.54.21.3.3.6.59.9.88,1.18,1.16,2.41,2.36,3.42,3.72.65.88,1.29,1.32,1.96,1.37.66.05,1.32-.3,2.03-1.04.81-.84,1.6-1.71,2.36-2.56,1.04-1.16,2.12-2.37,3.27-3.47.59-.57.86-1.29.75-1.97-.1-.61-.5-1.1-1.12-1.38ZM324.95,497.75c.01.4.03.81-.16,1.01-.11.12-.32.18-.62.19-1.15.03-1.95-.65-1.98-1.66-.05-1.54-.04-3.11-.03-4.62,0-.65,0-1.29,0-1.94v-.32h-.02c0-.45,0-.91,0-1.36,0-1.39-.01-2.83.02-4.24,0-.15,0-.32-.02-.47-.06-.72-.02-1.01.56-1.09.9-.13,2.07.77,2.21,1.51.04.21.04.44.04.69v2.71c0,3.03.01,6.17-.01,9.26,0,.11,0,.23,0,.36ZM356.38,487.58c0,.34,0,.68,0,1.02,0,.69,0,1.37,0,2.06v.9c0,.57,0,1.13,0,1.7,0,1.45,0,2.95-.01,4.42,0,.07,0,.15,0,.23,0,.64-.03.91-.49,1.03-.54.15-1.73-.47-1.88-.97-.12-.42-.13-.89-.13-1.37,0-2.94,0-5.87,0-8.81v-2.59s0-.07,0-.07c0-.03,0-.06,0-.1.03-.18.03-.37.03-.55,0-.65.03-.92.62-.98.05,0,.1,0,.15,0,.38,0,.77.15,1.08.41.35.29.56.7.59,1.13.06.84.05,1.71.04,2.54ZM373.22,496.31c0,1.14,0,2.28,0,3.42,0,.65-.1,1.03-.62,1.31-1.28.69-1.99,1.07-2.2,1.68-.1-.32-.34-.7-.72-1.21-.56-.75-.82-1.57-.82-2.57,0-3.17,0-6.34,0-9.52v-5.95c0-.28,0-.55.04-.8.11-.78.28-1.21.52-1.34.07-.04.15-.06.26-.06.27,0,.67.13,1.24.41,1.51.72,2.22,1.95,2.26,3.85.06,3.59.05,7.24.04,10.77ZM388.55,499.64c-.01.62-.14,1.02-.38,1.23-.24.21-.66.27-1.27.2-.7-.09-1.01-.41-1.03-1.07-.03-1.01-.03-2.02-.03-2.96,0-2.5,0-5,0-7.5v-3.75c0-.84,0-1.56.62-2.1.4-.34.71-.59,1.09-.59.1,0,.2.02.31.05.48.16.69.53.7,1.22.02.92.02,1.86.02,2.77v.41c0,1.08,0,2.16,0,3.25v1.42c0,.73,0,1.46,0,2.2,0,1.71.02,3.48-.02,5.22ZM42.02,498.25c-1.73,3.59-3.76,7.13-6.04,10.51-.9,1.34-2.23,1.64-3.44,1.64-.27,0-.54-.02-.8-.04-2.88-.24-5.75-.77-8.53-1.29-.86-.16-1.71-.32-2.57-.47-4.23-.74-9.2-1.29-14.09.29-.6.19-1.28.31-1.95.34-1.42.07-2.47-.5-2.95-1.6-.61-1.41-.46-2.69.43-3.72.55-.64,1.04-1.12,1.53-1.54.91-.77,1.26-1.74,1.11-3.15-.48-4.8-.44-9.65-.37-13.81.04-2.09.06-4.18.08-6.26.03-2.6.06-5.3.11-7.95,0-.41-.06-.56-.12-.62-.08-.07-.3-.08-.63-.03-1.63.25-2.86-.38-3.47-1.79-.59-1.36-.37-2.62.67-3.86,1.57-1.87,3.32-3.63,5-5.32.58-.58,1.16-1.17,1.74-1.76,1.11-1.14,2.59-1.49,4.06-.96,3.99,1.44,8.23,1.54,12.33,1.63h.33c5.01.13,8.99-.24,12.54-1.13.66-.17,1.54-.34,2.44-.18.94.16,1.62.59,1.98,1.24.35.64.34,1.44-.03,2.3-.15.35-.37.81-.68,1.18-.6.72-1.19,1.48-1.76,2.21-1.05,1.36-2.14,2.76-3.36,4.03-1.12,1.17-2.43,1.72-4.01,1.68-1.28-.03-2.58-.02-3.84-.02-.56,0-1.11,0-1.67,0h-.32v-.05c-.47,0-.94,0-1.41,0-1.31,0-2.66-.01-4,.01-1.35.02-1.39.06-1.5,1.41-.02.2-.02.39-.02.59v.24c-.04,1.24-.07,2.07.18,2.28.25.22,1.09.08,2.36-.12.61-.1,1.2-.09,1.79.03.58.11,1.16.22,1.74.32,1,.18,2.04.36,3.05.59,1.4.32,2.56.32,3.66-.7.93-.87,2.15-.99,3.32-.32,1.12.63,1.6,1.68,1.4,3.03-.48,3.25-1.75,5.74-3.77,7.42-1.98,1.64-4.63,2.2-8.11,1.71-.68-.1-1.37-.22-2.03-.33-.63-.11-1.29-.22-1.94-.32-1.32-.19-1.6,0-1.87,1.29-.21.99-.22,2.06-.04,3.27.23,1.58.41,3.45,0,5.38-.13.58-.1.98.07,1.15.19.2.63.17.96.11,2.43-.44,4.77.03,7.04.49l.63.13c1.32.26,2.66.32,3.97.37.35.01.7.03,1.04.05,1.18.07,1.94-.39,2.38-1.43.26-.61.53-1.11.82-1.55,1.13-1.69,3.04-2.19,4.87-1.28,1.87.93,2.57,2.85,1.69,4.67ZM237.16,483.81c-1.71-2.85-3.47-5.79-4.53-9.03-.35-1.08-.9-1.76-1.62-2.01-.74-.26-1.63-.04-2.64.63-1.7,1.14-3.6,2.08-5.81,2.88-2.28.82-4.08,1.01-5.85.6-1.13-.26-1.89-.18-2.41.25-.51.43-.72,1.17-.67,2.34.02.47.08,1.06.32,1.56.59,1.24.63,2.55.62,4.01,0,1.39,0,2.77,0,4.16v3.83c0,1.72,0,3.44,0,5.16,0,.13,0,.26,0,.39.02.56.03,1.08-.3,1.44-1.03,1.12-1.88,2.29-2.88,3.71-.11.15-.22.23-.31.23-.1,0-.22-.12-.33-.3-.53-.9-.76-1.92-.75-3.3.01-2.77,0-5.53,0-8.3,0-2.04,0-4.09,0-6.13,0-.2,0-.4,0-.6-.01-1.81-.02-3.52,1.09-5.12.51-.74.51-1.8-.01-2.69-.45-.77-1.2-1.21-1.94-1.15-1.35.12-2.05-.58-2.87-1.4l-.11-.11c-1.65-1.66-3.3-3.32-4.95-4.98-1.94-1.95-3.88-3.9-5.83-5.85-.85-.85-1.52-1.77-2.06-2.81-.83-1.6-1.74-2-3.48-1.49-.39.11-.76.26-1.13.4-.5.19-.97.38-1.46.48-.32.06-.63.14-.94.22-1.23.3-2.4.59-3.65.1-.92-.36-1.65-.37-2.17-.03-.53.35-.83,1.04-.88,2.07-.05.95.16,1.72.65,2.4,1.27,1.75,2.6,3.1,4.07,4.14,2.23,1.57,4.12,3.51,6.2,5.69.55.58.63.85.6.98-.03.12-.23.31-.98.54-.91.27-1.68.39-2.41.38h-.4c-.92-.02-1.87-.04-2.81.02-1.16.08-2.02.54-2.42,1.29-.38.71-.29,1.6.25,2.51.58.98.82,2.02.81,3.48v.82c-.03,3.7-.05,7.52.02,11.28.03,1.54-.35,2.5-1.31,3.32-1.19,1.02-1.96,2.46-2.36,4.41-.16.76-.39,1.91.62,2.65.89.65,1.88.41,2.73.08,3.43-1.31,5.65-.77,8.19,2.01,1.95,2.13,2.92,2.17,5.16.21,3.64-3.18,7.31-3.93,11.21-2.29.79.33,1.97.68,3.13-.17.42-.31.62-.23.77-.1.83.71,1.77.68,2.67.66.19,0,.39,0,.58,0,.43,0,.86,0,1.29,0,1.92,0,3.73,0,5.57.55,1.78.53,3.68,1.16,5.46,2.11.84.45,1.49.68,2.07.68.81,0,1.5-.45,2.41-1.41,1.92-2.03,3.6-3.88,5.15-5.65,1.19-1.37,1.32-2.59.38-3.84-1.45-1.94-2.76-2.36-4.53-1.46-.78.4-1.49.44-2.39.14-.7-.23-1.42-.42-2.06-.59-1.36-.36-1.57-.65-1.51-2.04.04-.8.48-1.2,1.28-1.66l1.97-1.13c2.1-1.21,4.2-2.42,6.31-3.62,1.38-.79,2.03-1.43,2.23-2.21.2-.78-.04-1.65-.85-3l-.21-.35ZM197.99,489.72v.97c0,.69,0,1.39,0,2.08,0,1.46.01,2.98-.02,4.46,0,.25-.02,1.01-.16,1.11-.15.09-.89-.21-1.17-.33-1-.41-1.51-.62-1.72-.95-.22-.33-.22-.93-.22-2.01,0-1.28,0-2.57,0-3.85,0-2.27,0-4.62-.01-6.93,0-1.02.17-1.69,1.1-2.11.45-.21.82-.31,1.12-.31.18,0,.34.04.47.11.32.19.51.64.57,1.35.08.97.06,1.98.05,2.95,0,.42,0,.83,0,1.25,0,.73,0,1.47,0,2.2ZM208.15,478.65s0,0,0,0c.02,0,.05,0,.07,0-.02,0-.05,0-.07,0ZM208.55,478.59s-.08.02-.12.02c.04,0,.08-.01.12-.02,0,0,0,0,0,0ZM208.68,478.55s0,0,0,0c.04-.01.08-.02.12-.04-.04.02-.08.02-.12.04ZM102.28,473.63c-.81.12-1.54.46-2.24,1.04-1.74,1.45-2.02,1.45-3.72-.04-2.05-1.79-3.06-1.75-4.92.18-1.74,1.8-3.97,2.68-6.82,2.68h-.04c-1.17,0-2.25-.12-3.3-.36-1.39-.32-2.33-.21-2.89.34-.57.55-.7,1.52-.41,2.96.15.72.22,1.39.22,2.04,0,3.18,0,6.37,0,9.55,0,.87-.07,1.6-.43,2.33-.88,1.81-.76,1.99.81,3.35.49.43.56.56.4.79-.35.51-.66,1.06-.97,1.58-.51.88-1.03,1.78-1.72,2.57-.83-1.73-1.24-1.96-3.22-2.22-1.84-.24-1.97-.39-2.03-2.24-.01-.35,0-.69,0-1.04v-5.56c0-4.02,0-8.05,0-12.07,0-2.67-.27-3.04-2.87-3.92-.92-.31-1.86-.62-2.77-.91-1.93-.62-3.94-1.27-5.85-2.03-2.01-.8-3.77-.65-5.69.48-2.31,1.36-4.93,2.53-8.27,3.68-1.33.46-2.06.98-2.36,1.7-.31.72-.19,1.62.4,2.89.4.88.59,1.82.59,2.94v.52c-.01,4.21-.03,8.57,0,12.85.01,1.53-.28,2.6-.98,3.6-.8,1.14-.73,1.94-.53,2.41.21.48.76,1.11,2.22,1.33,1.91.29,3.65.95,5.19,1.95,1.68,1.09,3.45,2.31,4.99,3.82,1.53,1.51,2.87,1.49,4.47-.05.69-.66,1.4-1.38,2.11-2.11.49-.51.87-.52,1.38-.04.96.9,1.78,1.61,2.57,2.25.9.72,1.62,1.08,2.29,1.08.75,0,1.46-.45,2.31-1.37.87-.93,1.71-1.92,2.53-2.87.41-.48.83-.97,1.25-1.45.09-.1.16-.2.24-.31.26-.36.44-.57.78-.58.01.42-.13.84-.28,1.27-.11.33-.23.67-.29,1.02-.26,1.77.6,2.49,1.38,2.78,1.61.61,3.64.05,4.73-1.31.79-.98,1.61-1.52,2.45-1.58.84-.07,1.73.32,2.66,1.16.16.14.3.29.45.44.15.15.3.31.46.45,1.51,1.37,2.75,1.4,4.15.11,2.11-1.94,4.72-2.77,7.98-2.54,1.05.08,2.16.14,3.39.21,1.22.06,2.06-.21,2.5-.81.42-.58.44-1.39.06-2.43-.34-.93-.5-1.92-.49-3.21,0-1.42,0-2.84,0-4.25,0-.85,0-1.69,0-2.54v-.31c0-1.67,0-3.26.53-4.84.23-.68.19-1.31-.1-1.82-.33-.59-.97-.99-1.85-1.18-.23-.05-.45-.05-.66-.05-.37,0-.66,0-.93-.21.03-.47.33-.85.65-1.25.11-.14.22-.28.32-.42,1.62-2.32,2.73-4.35,3.49-6.39.44-1.18.33-2.3-.3-3.08-.65-.8-1.77-1.15-3.07-.95ZM58.24,489.74v.66c0,.59,0,1.19,0,1.78,0,1.35,0,2.75-.02,4.13,0,.1,0,.21,0,.32.03.61,0,.85-.43.96-.17.04-.4-.02-.63-.16-.39-.24-.7-.66-.78-1.04-.07-.33-.07-.68-.06-1.05v-.15c0-2.86,0-5.71,0-8.57v-2.19s0-.12,0-.12c0-.09,0-.18,0-.27.01-.11.02-.23.02-.35.03-.68.08-.91.63-.93.02,0,.03,0,.05,0,.64,0,1.14.57,1.18,1.34.05.99.04,2,.04,2.98,0,.41,0,.82,0,1.22,0,.48,0,.97,0,1.45ZM90.34,484.92c0-.06,0-.17.26-.24.52.11,1.03.28,1.3.71.08.13.04.24-.23.56-.05.06-.1.12-.14.17-.19.25-.4.5-.65.78-.2.23-.32.24-.41.21-.06-.01-.15-.03-.15-.36-.01-.55,0-1.14.03-1.85ZM92.62,497.22c0,.13,0,.25,0,.36,0,.22,0,.39,0,.57-.01.25-.05.9-.15.98-.12.06-.77-.2-1.04-.31-.13-.05-.25-.1-.37-.16-.13-.06-.27-.11-.4-.17-.59-.23-1.47-.58-1.51-.8-.04-.22.67-.92,1.15-1.38.13-.12.25-.26.38-.41.43-.48.75-.81,1.16-.81.11,0,.23.02.36.08.5.21.49.58.43,1.22-.03.28-.05.56,0,.82ZM179.11,501.45c.51,1,.31,2.03-.55,2.88-.63.62-1.26,1.24-1.89,1.86-1.17,1.15-2.37,2.33-3.55,3.5-.72.72-1.54.9-2.29.9-.25,0-.5-.02-.72-.05-4.59-.56-7.72-4.04-7.79-8.65-.02-1.58-.02-3.19-.01-4.75,0-.75,0-1.51,0-2.26,0-.67,0-1.35,0-2.02,0-1.71-.01-3.47.02-5.2.02-1.07-.15-1.71-1.12-2.02-.89-.28-1.38-1.02-1.81-1.75-.8-1.37-.64-2.56.5-3.64.81-.77,1.66-1.52,2.48-2.24.54-.48,1.09-.96,1.62-1.44.53-.48.62-.72.6-.84-.02-.12-.17-.32-.8-.6l-.12-.06c-1.04-.47-2.03-.91-2.65-2.06-1.13-2.11-.83-3.33,1.13-4.49,1.44-.86,2.87-1.82,4.37-2.94,1.75-1.3,2.79-1.23,4.29.32.95.98,1.68,1.38,3,.87.68-.26,1.37-.17,1.94.26.71.53,1.1,1.5,1.02,2.54-.16,2.01-.9,3.6-2.19,4.72-.39.34-.82.63-1.23.92-.17.12-.33.23-.49.35-.11.08-.24.15-.35.21-.47.25-.51.32-.36.6.24.49.7.7,1.26.58.16-.03.32-.12.49-.2.14-.07.29-.15.45-.2.86-.3,1.62-.26,2.22.12.59.37.96,1.04,1.05,1.94.22,2.02-.47,3.97-1.96,5.48-1.06,1.08-1.48,2.23-1.44,3.96.05,2.07.04,4.18.03,6.22,0,1.3-.01,2.65,0,3.98,0,1.02.06,1.61.3,1.82.24.21.83.18,1.78.05,1.32-.17,2.26.28,2.8,1.34ZM126.63,499.47c.83,1.09.79,2.36-.09,3.31-1.65,1.79-3.54,3.37-5.37,4.9-.37.31-.74.62-1.11.94-.54.46-1.02.66-1.47.66-.59,0-1.14-.33-1.76-.85-1.13-.95-2.12-1.6-3.1-2.06-1.29-.6-2.43-.61-3.59-.04-.99.49-1.93.49-2.59,0-.67-.5-.95-1.43-.78-2.55.34-2.1,1.15-3.81,2.42-5.08.63-.62.9-1.31.9-2.24-.01-1.68,0-3.37,0-5.05,0-1.82,0-3.7-.01-5.55,0-.59,0-1.15-.14-1.27-.13-.12-.65-.07-1.3-.02-1.02.08-1.67-.06-2.09-.47-.42-.39-.6-1.03-.58-2,0-.42.02-.85.04-1.27.05-1.43.1-2.91-.03-4.38-.09-1.01.09-1.72.54-2.16.5-.48,1.3-.65,2.54-.51.49.05.77.05.82-.01.06-.06.06-.36-.02-.87-.26-1.87-.36-2.79.12-3.4.48-.61,1.42-.74,3.33-.93,1.43-.15,2.53-.97,3.72-1.94.33-.27.63-.59.94-.93.18-.19.35-.38.53-.56.57-.57,1.28-1.09,2.23-.69.86.36,1.33,1.11,1.36,2.15.02.76,0,1.58-.21,2.4-.31,1.16-.27,2.32-.22,3.55.01.33.02.67.03,1,0,.34.08.58.22.68.14.1.41.07.74-.06.07-.03.14-.06.21-.1.12-.06.25-.12.39-.16.95-.3,1.66-.27,2.18.09.53.37.81,1.04.87,2.05.03.54.02,1.08,0,1.61,0,.32-.02.63-.01.95,0,.92.03,2.01.22,3.11.16.92-.05,1.71-.58,2.23-.54.53-1.35.72-2.28.54-.17-.03-.33-.09-.48-.15-.12-.04-.23-.08-.34-.11-.25-.06-.85-.2-1-.09-.15.11-.17.71-.17.93-.04,1.22-.03,2.46-.02,3.65,0,.55,0,1.09,0,1.64,0,.5,0,.99,0,1.49,0,1.18-.01,2.4.01,3.59.03,1.52.23,1.76,1.63,1.94,1.35.18,2.41.84,3.35,2.07ZM487.41,483.91c.19-.27.39-.56.58-.85,1.08-1.74,2.06-3.59,2.99-5.66.38-.85.33-1.73-.15-2.48-.52-.81-1.46-1.32-2.45-1.33-.02,0-.04,0-.06,0-1.18,0-2.19.34-3.1,1.03-1.87,1.43-2.08,1.43-3.76.02-2.19-1.85-2.87-1.83-4.86.16-1.29,1.29-2.88,2.13-5.01,2.65-1.7.42-3.28.08-4.96-.29l-.13-.03c-1.53-.33-2.46-.23-3.02.31-.56.55-.68,1.49-.38,3.04.16.84.24,1.72.25,2.68.01,2.48.03,4.95.05,7.43v.24c.02,1.32.03,2.56-.63,3.73-.49.87-.38,1.82.29,2.54.15.16.33.29.5.41.37.26.58.42.55.76-.04.53-.36.97-.69,1.45-.06.09-.13.18-.19.28l-.14.21c-.19.28-.39.57-.57.88l-.02.04c-1.15,2.01-2.33,4.08-2.74,6.47-.17,1.01-.07,1.7.31,2.19.38.48,1.03.74,2.03.81,1.73.12,2.85-.37,3.75-1.63.57-.8,1.31-1.29,2.13-1.41.91-.13,1.87.18,2.78.9.26.21.5.45.75.71.2.2.4.41.62.6.66.58,1.28.87,1.87.87.53,0,1.05-.23,1.56-.7,2.53-2.29,5.46-3.19,8.96-2.75h.02c.31.02.61.05.92.07.67.05,1.37.11,2.06.12,1.11.02,1.88-.26,2.3-.85.41-.58.42-1.39.03-2.41-.29-.77-.51-1.42-.48-2.13.07-1.59.04-3.2,0-4.76-.06-2.73-.11-5.56.38-8.32.34-1.87-.18-2.6-2.14-2.99-.3-.06-1.12-.22-1.17-.35-.06-.14.42-.85.6-1.12.13-.19.26-.38.39-.56ZM475.34,486.01c0-.09,0-.18,0-.26,0-.16,0-.29,0-.4.06-.53.15-.69.22-.74.07-.04.24-.06.71.12.62.23.95.43.99.6.04.16-.16.47-.58.92l-.03.04s-.05.06-.08.08c-.15.12-.27.26-.39.4-.31.36-.44.46-.65.38-.2-.07-.24-.17-.2-.63.01-.17.03-.34,0-.51ZM477.52,499.11c-.15.1-.97-.29-1.77-.67-.51-.24-1.19-.59-1.23-.89-.04-.34.74-.99.99-1.21.16-.13.3-.28.44-.43.38-.39.71-.73,1.2-.73.07,0,.14,0,.21.02.21.04.3.33.3,2,0,.88,0,1.79-.15,1.89ZM478.96,483.32c-.17-.03-.34-.07-.5-.11.34.08.69.14,1.05.18-.18-.02-.37-.05-.55-.08ZM155.86,473.6c-1.21-.02-2.29.39-3.31,1.24-1.47,1.24-1.85,1.23-3.4-.11-2.26-1.96-2.97-1.94-5.02.12-1.32,1.32-2.84,2.14-4.8,2.56-1.9.41-3.74.03-5.51-.35-1.3-.27-2.2-.15-2.75.39-.54.53-.68,1.41-.43,2.69.28,1.45.32,2.89.33,4.37v.44c.02,1.81.04,3.67.21,5.52.14,1.49.08,2.72-.67,3.88-.43.66-.57,1.23-.46,1.74.12.52.5.97,1.18,1.38.38.23.58.44.62.65.04.21-.07.49-.39.93-.5.69-.92,1.34-1.3,1.97-1.15,1.91-2.41,4.17-2.83,6.71-.32,1.92.72,2.55,1.37,2.76.44.14.88.21,1.31.21,1.32,0,2.58-.62,3.48-1.76,1.31-1.65,3.08-1.87,4.74-.57.25.19.48.42.72.66.11.11.23.23.34.34,1.72,1.64,2.46,1.66,4.38.14,2.14-1.7,4.31-2.48,6.62-2.38,1.13.05,2.26.1,3.39.16l1.48.07c1.1.07,1.94-.25,2.37-.9.42-.64.4-1.51-.07-2.47-.38-.78-.54-1.57-.5-2.5.06-1.45.03-2.93,0-4.36-.05-2.79-.11-5.68.52-8.48.16-.72.09-1.29-.2-1.74-.33-.49-.93-.8-1.85-.96-.17-.03-.33-.03-.49-.03-.13,0-.25,0-.36-.02-.61-.09-.68-.19-.69-.2,0-.01-.03-.13.31-.67.18-.28.38-.55.59-.83.17-.23.35-.47.52-.71,1.05-1.56,2.36-3.66,3.2-6.06.37-1.05.29-2.03-.21-2.74-.49-.7-1.35-1.09-2.41-1.1ZM142.93,485.64c.01-.11.02-.23.02-.36.02-.57.06-.66.37-.67.72-.03,1.28.45,1.56.76,0,.06-.01.18-.04.21-.19.28-.44.56-.79.9-.08.08-.17.18-.25.27-.28.32-.43.47-.63.42-.22-.06-.25-.13-.22-.53.01-.17.03-.35-.03-.52,0-.09,0-.16,0-.22,0-.12,0-.2,0-.27ZM145.26,497.17c0,.21,0,.4,0,.57,0,.34,0,.61,0,.88-.02.26-.08.44-.17.49-.09.05-.27.02-.5-.08-.33-.15-.67-.31-1-.47l-.33-.16c-.34-.16-1.06-.5-1.1-.7-.04-.21.53-.8.83-1.12l.04-.04s.05-.05.08-.08c.22-.16.4-.38.58-.59.35-.4.59-.66.9-.66.07,0,.15.01.23.04.5.18.52.52.45,1.19-.03.25-.05.49,0,.71ZM458.51,483.03c-2.41,1.42-4.88,1.89-7.35,1.42-.98-.19-1.77-.33-2.49-.43-.47-.07-.93-.12-1.08.01-.16.13-.19.62-.2,1.08-.04,1.59-.03,3.2-.02,4.76,0,.67,0,1.35,0,2.02v1.92c0,1.53,0,3.11,0,4.66,0,.92.16,1.38,1.19,1.63.91.22,1.53.77,1.71,1.51.2.8-.16,1.7-.96,2.4-.38.33-.81.6-1.22.86l-.21.13c-2.17,1.38-3.78,2.92-4.92,4.7-.32.5-.67.9-1.03,1.19-.48.39-1.01.59-1.52.59-.12,0-.24-.01-.37-.04-.61-.12-1.12-.53-1.48-1.17-1.08-1.97-2.69-3.59-5.2-5.25-1.18-.78-1.76-1.61-1.73-2.47.04-.86.69-1.64,1.94-2.32.62-.34.86-.73.86-1.4,0-1.33,0-2.65,0-3.98,0-3.29,0-6.69-.04-10.03-.02-1.41-.66-2.44-1.96-3.13-1.03-.55-1.56-1.15-1.63-1.84-.07-.68.32-1.37,1.19-2.11,2.02-1.71,4.16-3.33,6.35-4.97.94-.7,2.09-.72,3.16-.06.19.12.39.24.58.36.94.58,1.92,1.18,2.81,1.89.76.6,1.36.64,2.13.15.57-.36,1.16-.71,1.72-1.06.51-.31,1.03-.62,1.53-.94,2.02-1.27,3.22-1.19,4.97.32,1.33,1.15,2.7,2.02,4.2,2.66.95.4,1.56.98,1.84,1.72.28.77.18,1.66-.31,2.65-.52,1.05-1.34,1.91-2.44,2.56ZM430.45,484.4c.65,1.09.87,1.95.67,2.71-.2.77-.82,1.42-1.94,2.06-1.1.62-2.21,1.27-3.28,1.9-1.75,1.02-3.56,2.08-5.38,3.06-1.09.59-1.25,1.4-1.15,2.52.06.62.32.94.87,1.08,1.13.28,2.24.59,3.08.82.68.19,1.24.01,1.99-.35.84-.42,2.02-.3,3.16.3,1.21.64,2.04,1.67,2.18,2.67.1.77-.29,1.33-.68,1.77-.32.36-.63.71-.95,1.07-1.63,1.84-3.31,3.75-5.11,5.5-.77.75-1.35,1.1-2.03,1.1-.49,0-1.03-.18-1.75-.53l-.39-.19c-2.19-1.06-4.26-2.06-6.64-2.4-1.04-.15-2.07-.17-2.97-.19-.31,0-.6-.01-.87-.02-.4,0-.75,0-1.09,0-.67,0-1.24.01-1.81-.01-1.12-.05-1.94-.45-2.28-1.12-.25-.47-.38-1.29.4-2.5.76-1.19,1.58-2.29,2.42-3.27.54-.63.79-1.28.78-2.1-.01-5.32-.02-9.97,0-14.22,0-.82-.28-1.56-.59-2.34l-.07-.19c-.32-.82-.65-1.78-.52-2.84.11-.87.48-1.52,1.04-1.86.35-.2.93-.38,1.74-.05,2.22.9,4.31.17,6.14-.48,1.83-.64,3.67-1.56,5.63-2.79.5-.32,1.12-.71,1.87-.79,1.37-.16,2.18.44,2.63,1.94.7,2.32,1.76,4.63,3.23,7.04.26.43.53.85.8,1.28.3.47.6.95.89,1.43Z" fill="#9e8556"/><path d="M301.01,483.33c-2.46-1.81-5.4-2.64-8.24-3.45-.69-.2-1.15-.35-1.3-.74-.15-.39.09-.81.47-1.42.15-.24.33-.46.5-.66.1-.12.2-.24.29-.37l1.1-1.48c2.63-3.54,5.25-7.07,7.87-10.61.07-.1.16-.2.25-.3.44-.51.56-.73.21-1.13-.39-.46-.83-.51-1.53-.17-2.41,1.18-4.75.77-6.77-1.21l-.11-.11q-1.1-1.07-2.75-.05c-1.11.68-2.22,1.37-3.32,2.05-1.18.73-2.36,1.45-3.54,2.18l-1.44.89c-1.72,1.06-3.49,2.15-5.22,3.26-.68.43-1.04,1.8-.89,2.39.01.05.05.19.12.2,1.88.17,1.78,1.36,1.72,2.23-.01.18-.03.35-.03.51.02,6.52.02,13.15.01,19.56v2.73c0,.14,0,.29,0,.43.01.72.02,1.46-.23,2.19-.1.3-.11.52-.04.62.09.13.37.19.82.19.69,0,1.25-.09,1.77-.27,3-1.03,5.08-3.79,5.18-6.88.06-1.83.04-3.7.03-5.5v-1.28c-.02-1.59.6-2.69,1.87-3.37l.22-.12.17.18c.49.54.45,1.11.42,1.56,0,.11-.02.22-.01.33.02,1.66.01,3.35.01,4.99v4.83c0,2.67,0,5.34,0,8.01v.07c0,.85,0,2.02-1.43,2.16-6.59.68-9.48-1.73-11.09-3.6-1.99-2.32-3.41-4.91-4.22-7.69-1.27-4.38-1.48-9.09-.65-14.82.94-6.53,4.09-11.94,9.36-16.1.11-.09.22-.17.34-.25.35-.24.65-.45.81-.83-.83.04-1.57.22-2.2.4-6.64,1.88-11.61,6.14-14.77,12.68-2.1,4.35-2.85,9.02-2.29,14.26.5,4.64,2.23,8.48,5.3,11.73,3.62,3.83,8.07,5.98,13.6,6.56,6.75.71,12.81-.78,18.52-4.55,4.2-2.77,6.12-6.48,5.88-11.33-.18-3.76-1.75-6.67-4.79-8.92ZM286.74,480.96l-.17.12-.18-.11c-.47-.3-.46-.78-.45-1.1v-.12c0-3.53-.01-7.17,0-10.83,0-.38,0-.79.15-1.16.22-.55.54-.75.77-.81.22-.06.59-.07,1.04.26.13.1.25.21.35.31.1.09.19.18.28.25,1.66,1.23,3.22,1.62,4.91,1.24.09-.02.18-.04.27-.06.47-.12,1-.25,1.57-.06l.31.11-.12.31c-.79,1.99-7.32,10.7-8.73,11.66ZM290.73,485.47s0-.03,0-.05c0-.04,0-.07,0-.11,0-.02,0-.04,0-.06,0-.06.01-.11.02-.17.03-.18,0-.41-.02-.65-.06-.57-.14-1.36.71-1.65.78-.26,1.46.32,2.02.79.1.08.19.16.29.24,1.16.92,2.05,2.16,2.64,3.69.16.4.31.92.09,1.35-.23.43-.75.61-1.23.72-.4.09-.76.16-1.09.21-.33.05-.63.07-.89.07-.67,0-1.17-.15-1.54-.45-.68-.54-.98-1.56-.98-3.42,0-.08,0-.17,0-.25,0-.09,0-.18,0-.27ZM295.32,501.05c-.94,1.27-2.01,2.56-3.81,3.22l-.28.1-.12-.27c-.4-.87-.37-1.64-.35-2.32,0-.24.02-.47,0-.7-.04-.85.07-1.76,1.24-2.14.13-.04.26-.07.4-.1,1-.17,2.32.03,2.9.65.41.44.42,1,.02,1.54ZM297.45,495.38c-.09.8-.21,1.29-.57,1.58-.22.18-.5.24-.88.24-.25,0-.55-.03-.92-.08-.75-.1-1.53-.15-2.27-.2-.22-.01-.43-.03-.65-.04-.44-.03-1.17-.08-1.28-.85-.12-.87-.25-2.17.05-3.46.18-.78.99-.79,1.33-.79.19,0,.39,0,.58,0,1.15,0,2.23,0,3.31-.32.31-.09.62-.06.85.1.25.17.4.46.43.81.03.4.03.81.02,1.2,0,.07,0,.15,0,.22l.02.28c0,.13,0,.26,0,.39,0,.3.02.6-.02.91ZM399.27,503.1c.32.32.77.51,1.41.59-.55.58-1.08,1.12-1.59,1.65-1.18,1.21-2.3,2.36-3.27,3.59-.1.13-.2.2-.29.2,0,0,0,0,0,0-.12,0-.29-.11-.45-.31-1.84-2.15-3.32-3.73-4.81-5.13-.17-.16-.27-.31-.26-.42,0-.02,0-.09.12-.19.73-.61.71-1.39.69-2.08,0-.11,0-.22,0-.33,0-5.8,0-11.51,0-16.34,0-.1,0-.21,0-.31.02-.72.04-1.54-.7-2.11-.21-.16-.42-.41-.64-.67-.41-.49-.93-1.12-1.65-1.12-.23,0-.47.06-.74.21-.18.1-.36.19-.55.29-1.32.69-2.97,1.56-2.98,3.69,0,1.78,0,3.56,0,5.34,0,3.74.02,7.61-.05,11.42-.01.72.16,1.25.51,1.61.34.34.81.48,1.28.53.07,0,.13.01.2.02-.19.45-.54.66-.9.87-.13.08-.26.15-.37.24-1.68,1.19-2.99,2.46-4.01,3.88-.16.22-.59.82-.75.82h0c-.15,0-.55-.52-.73-.74-1.13-1.45-2.48-2.69-4.12-3.78-.13-.09-.28-.17-.42-.25-.36-.2-.68-.38-.84-.7.02-.06.08-.11.29-.11.53,0,.91-.14,1.19-.42.3-.3.44-.75.43-1.41-.02-1.49-.01-3,0-4.47,0-.7,0-1.4,0-2.11,0-1.09,0-2.18,0-3.27,0-2.23,0-4.47,0-6.7,0-2.18-.64-3.69-2.03-4.76-.29-.22-.44-.41-.43-.56,0-.16.16-.36.47-.58l.65-.48c1.02-.75,2.08-1.52,3.08-2.34.76-.63,1.43-.63,2.3-.03.35.24.72.47,1.08.68.74.45,1.43.87,2,1.46,1.03,1.08,2.06.75,2.84.35.22-.11.44-.23.66-.34,1.56-.82,3.28-1.78,4.84-2.94.83-.62,1.45-.6,2.26.06,1.92,1.56,3.79,2.79,5.72,3.76.48.24.74.48.82.73.07.22,0,.49-.19.83-.53.91-.57,1.89-.57,2.83v1.54c.02,5.2.03,10.57-.01,15.85,0,.75.03,1.46.53,1.97ZM366.7,499.89c0-.14,0-.27,0-.41-.01-5.57,0-11.22,0-16.53,0-.12,0-.24,0-.36,0-.47-.01-.94.09-1.42l-.52.19.78-.92h0s.32-.38.32-.38l.02-.1-.05-.02-2.59-.92s-.06,0-.09.01c-.02,0-.04,0-.07.01-.06,0-.12.01-.18.01,0,0-.01,0-.02,0,0,0,0,0,0,0-.09,0-.17,0-.25-.02-.02,0-.03,0-.05,0-.08-.02-.16-.04-.23-.07-.01,0-.02,0-.03-.01-.07-.03-.14-.07-.2-.11-.01,0-.02-.01-.03-.02-.06-.04-.11-.08-.16-.12-2.19-.73-4.76-1.64-7.19-2.88-1.05-.53-1.76-.5-2.56.12-1.46,1.14-3.14,1.79-4.75,2.32-.06.04-.13.08-.19.12-.07.04-.13.09-.2.12-.07.04-.15.07-.22.11-.07.03-.13.07-.2.1-.08.03-.15.06-.23.09-.07.03-.13.05-.2.08-.08.03-.16.05-.24.07-.07.02-.13.04-.2.06-.08.02-.16.04-.24.06-.07.02-.14.03-.2.05-.08.02-.16.03-.24.04-.07.01-.14.03-.21.04-.08.01-.15.02-.23.04-.22.03-.44.06-.65.09-.41.06-.84.11-1.24.19-.09.02-.16.03-.24.05-.03,0-.05.01-.07.02-.05.01-.09.02-.13.04-.03,0-.05.02-.07.03-.03.01-.07.02-.1.04-.02,0-.04.02-.06.03-.03.01-.05.03-.08.04-.02.01-.04.03-.05.04-.02.02-.04.03-.06.05-.01.01-.03.03-.04.05-.02.02-.03.04-.05.07-.01.02-.02.03-.03.05-.01.03-.02.06-.04.08,0,.02-.01.04-.02.06,0,0,0,.02,0,.03.78,1.08.88,2.3.88,3.25-.03,4.55-.06,9.25.02,13.96.02,1.45-.15,3.11-1.58,4.45-.46.43-.81.99-1.02,1.63l.36.25c1.74.06,3.5.37,5.39.95.07,0,.13,0,.2-.01.05,0,.1,0,.16,0,.08,0,.16,0,.23,0,.05,0,.1,0,.15,0,.08,0,.16.02.24.03.05,0,.1.01.14.02.09.02.17.04.26.06.04.01.08.02.12.03.11.03.23.07.34.11.01,0,.02,0,.03.01.12.05.25.1.37.16.03.02.07.04.1.05.09.05.18.09.27.15.04.02.08.05.12.08.08.05.15.09.23.15l.9.33s.05,0,.07,0c.03,0,.06,0,.09,0,.03,0,.06,0,.1.01.03,0,.06,0,.1.01.02,0,.05.01.07.02.13.03.26.08.38.15.02,0,.04.02.05.03.03.02.06.04.09.06.02.02.05.03.07.05.02.02.05.04.07.06.02.02.05.05.07.07.02.02.04.04.06.07.01.02.03.03.04.05.78.32,1.46.8,2.11,1.26l.21.15c.65.45,1.03.73,1.3.72.24,0,.58-.3,1.14-.79,2.86-2.5,6.31-4.12,10.25-4.81v-.58c-.71-.75-.69-1.68-.67-2.5ZM358.7,489.85c0,.75,0,1.49,0,2.24,0,.78,0,1.56,0,2.34,0,.44,0,.89,0,1.34,0,.01,0,.03,0,.04,0,.19,0,.37,0,.56,0,1.25,0,2.52-.02,3.77,0,.79-.02,1.26-.33,1.53-.16.13-.34.18-.61.18s-.58-.05-1.02-.11c-1.33-.2-2.56-.65-3.72-1.09-1.18-.45-1.75-1.29-1.74-2.56.01-2.62.01-5.29.01-7.87,0-2.76,0-5.62.02-8.43,0-.73.08-1.23.45-1.49.38-.27.9-.17,1.68.09.64.21,1.28.46,1.89.7.55.21,1.12.44,1.68.63,1.2.41,1.74,1.22,1.72,2.54-.04,1.86-.03,3.75-.02,5.58ZM39.88,496.36c.11.31.03.73-.21,1.21-1.6,3.14-3.39,6.26-5.47,9.54-.63.99-1.58,1.05-2.92.83l-.75-.12c-3.38-.56-6.87-1.13-10.28-1.8-2.36-.46-4.54-.69-6.57-.69-2.49,0-4.79.35-6.98,1.04-.75.24-1.46.32-2.18.25-.38-.03-.63-.15-.72-.34-.09-.19-.02-.47.19-.79.25-.38.58-.72.94-.98,1.52-1.08,2.21-2.57,2.22-4.84,0-1.85-.14-3.72-.28-5.52-.16-2.07-.33-4.21-.26-6.33.06-1.75.15-3.52.24-5.24.19-3.71.39-7.54.25-11.32-.03-.73.21-1.34.73-1.88.13-.13.26-.26.39-.39.27-.27.55-.54.8-.84.1-.12.28-.26.44-.39.17-.13.36-.28.52-.46.26-.3.41-.67.12-1.11-.59-.89-1.53-.57-2.25-.24-.1.05-.2.1-.3.14l-.15.07c-.62.3-1.22.64-1.81.97-.21.12-.42.24-.63.35l-.06.04c-.45.25-.88.49-1.37.5-.56.02-.84-.01-1-.34-.11-.21-.21-.54.18-1.04.11-.15.25-.28.39-.43.06-.06.11-.11.17-.17.52-.55,1.05-1.1,1.58-1.65,1.22-1.27,2.48-2.58,3.66-3.93.94-1.07,1.98-1.41,3.28-1.06,6.16,1.65,12.5,1.48,18.63,1.31,1.39-.04,2.78-.24,4.13-.44.6-.09,1.19-.17,1.79-.25.12-.01.23-.05.33-.08.1-.03.19-.06.26-.06.2,0,.4-.04.6-.07.7-.11,1.06-.13,1.25.24.16.3-.1.63-.51,1.11-.1.12-.21.23-.29.35-.6.77-1.23,1.55-1.83,2.3-.49.61-.99,1.22-1.47,1.84-1.05,1.34-2.27,1.91-3.93,1.85-1.39-.05-2.8-.04-4.16-.02-2.25.02-4.57.04-6.84-.21-.41-.05-.82-.01-1.22.02-.11,0-.21.02-.32.02-1.19.07-1.88.78-1.91,1.93-.05,2.29-.1,4.66-.02,7.02.03.75.25,1.25.66,1.48.42.24.98.17,1.67-.2,2.39-1.28,4.77-.98,6.99-.46.64.15,1.29.26,1.91.36.34.06.68.11,1.01.18,1.8.33,3.14,0,4.23-1.03.41-.39.64-.46.92-.28.31.2.32.54.29.78-.01.08-.03.15-.05.2-1.24,4.02-2.88,6.68-6.85,6.56-2.04-.06-4.17-.28-6.9-.72-.16-.03-.31-.05-.46-.06-1.04-.1-1.83.07-2.4.53-.65.53-1.01,1.41-1.07,2.71-.02.39-.02.78-.03,1.15,0,.19,0,.37,0,.56-.02.83,0,1.68.02,2.5.07,2.82.14,5.73-1.25,8.46l-.17.34.37.11c1.35.39,2.5.11,3.52-.13.13-.03.25-.06.38-.09,2.3-.53,4.44-.16,6.99.39,1.82.39,4.23.82,6.79.76,1.76-.04,2.91-.77,3.63-2.29.3-.63.6-1.16.91-1.62.49-.72,1.26-.97,1.98-.63.21.1.36.23.46.38.03.05.06.11.08.16ZM208.7,479.21c-1.47.37-2.28-.74-2.61-1.26-.06-.02-.11-.05-.16-.07-.05-.02-.09-.04-.14-.06-.08-.04-.15-.09-.22-.14-.03-.02-.06-.04-.09-.06-.1-.08-.18-.16-.26-.26-.01-.02-.02-.04-.04-.05-.06-.07-.11-.15-.16-.23-2.92-2.71-5.61-5.58-7.86-8.04-.16-.12-.31-.24-.47-.36-.09-.07-.18-.13-.26-.2-.22-.17-.43-.35-.64-.53-.02-.01-.04-.03-.05-.04-.22-.19-.44-.39-.65-.58-.05-.05-.1-.1-.15-.15-.15-.15-.31-.29-.45-.44-.07-.07-.13-.14-.19-.21-.12-.13-.25-.26-.37-.39-.07-.08-.13-.15-.2-.23-.11-.13-.22-.25-.32-.38-.07-.08-.13-.17-.19-.25-.1-.12-.19-.25-.29-.37-.07-.09-.13-.18-.19-.27-.08-.11-.16-.22-.23-.33-.38-.26-.59-.63-.78-.96-.05-.08-.09-.16-.14-.24-.32-.53-.54-.87-.72-.94-.18-.07-.54.05-1.15.24l-.06.02c-.21.06-.41.15-.62.24-.54.22-1.09.45-1.74.39-.01.01-.02.02-.04.03-.03.02-.05.05-.08.07-.02.01-.03.02-.05.03-.02.02-.05.03-.07.05-.02,0-.03.02-.05.03-.02.01-.05.02-.07.03-.02,0-.03.01-.05.02-.02,0-.05.02-.07.02-.02,0-.03,0-.05.01-.02,0-.05.01-.07.02-.01,0-.03,0-.04,0-.02,0-.05,0-.07,0-.01,0-.03,0-.04,0-.01,0-.03,0-.04,0,0,0,0,0-.01,0-.05,0-.09,0-.13,0-1.25.28-2.52.29-3.79.03,0,0-.02,0-.03.01-.02.01-.03.02-.05.03-.02.01-.04.03-.06.05-.01.01-.02.02-.04.03-.02.02-.03.03-.04.05,0,.01-.02.02-.02.04-.01.02-.02.04-.03.07,0,.01,0,.02-.01.04,0,.03,0,.06,0,.1,0,0,0,.02,0,.02,0,.04,0,.09.02.15,0,.01,0,.03.01.05,0,.04.02.08.03.12,0,.02.02.05.02.08,0,.03.02.06.03.09.43.4.86.8,1.28,1.21.96.92,1.96,1.87,3.01,2.7,2.94,2.34,5.41,4.77,7.54,7.45.03.03.07.05.1.08.02.02.04.03.05.05.03.03.06.05.09.08.02.02.04.04.06.06.03.03.05.05.08.07.02.02.04.04.06.06.02.02.04.05.07.07.02.02.04.04.05.06.02.02.04.05.05.07.01.02.03.04.04.06.02.03.03.05.04.08,0,.02.02.03.03.05.01.03.02.06.03.09,0,.01,0,.03.01.04,0,.05,0,.09,0,.14,0,.05-.01.09-.03.13,0,.01-.01.03-.02.04-.01.03-.02.06-.04.08,0,.02-.02.03-.03.04-.02.02-.03.05-.05.07-.01.02-.03.03-.04.05-.02.02-.04.04-.06.06-.02.02-.03.03-.05.05-.02.02-.04.04-.07.06-.02.01-.04.03-.06.04-.03.02-.05.04-.08.06-.02.01-.04.03-.07.04-.03.02-.06.04-.09.06-.02.01-.04.03-.07.04-.02.01-.05.03-.07.04-.2.22-.53.55-1.03.52-.02.03-.05.05-.08.07-.04.04-.08.07-.11.11-.05.04-.1.08-.15.12-.04.03-.08.06-.12.09-.05.03-.11.07-.16.09-.04.02-.08.05-.13.07-.06.03-.11.05-.17.07-.04.02-.08.04-.13.05-.06.02-.12.04-.18.06-.04.01-.08.03-.12.04-.07.02-.13.03-.2.05-.04,0-.08.02-.11.03-.08.02-.15.03-.23.05-.03,0-.06.01-.08.02-.1.02-.21.04-.31.05l-.19.03c-.47.26-.94.23-1.3.16,0,0-.02.01-.03.02-.04.02-.07.04-.11.06-.03.02-.06.03-.09.04-.04.02-.08.03-.12.04-.03,0-.06.02-.09.02-.05,0-.09.01-.14.02-.03,0-.05,0-.08,0,0,0,0,0-.01,0-.06,0-.13,0-.19-.02,0,0,0,0-.01,0-.27.15-.56.2-.87.17-.03.01-.06.02-.09.04-.03.01-.06.02-.09.04-.05.02-.1.04-.16.05-.02,0-.05.02-.07.02-.15.04-.31.06-.47.06,0,0,0,0-.01,0-.02,0-.05,0-.07,0-.05,0-.09,0-.14,0-.03,0-.07,0-.1-.01-.04,0-.09-.01-.13-.02-.03,0-.07-.02-.1-.03-.04-.01-.09-.02-.13-.04-.04-.01-.07-.02-.11-.04-.03,0-.05-.02-.08-.03-.41.09-.8.06-1.18-.07l-.14.15-.11.11.1.29s.03.03.05.04c.02.02.05.04.07.06.03.03.06.05.09.08.02.02.04.04.06.07.03.03.05.06.07.09.02.02.04.05.05.07.02.03.04.06.06.1.01.02.03.05.04.07.02.04.03.07.05.11,0,.02.02.04.03.06.02.06.04.12.05.18,0,0,0,.02,0,.03.01.06.02.11.03.17,0,.02,0,.05,0,.07,0,.04,0,.07,0,.11l.14.76s.03.06.04.08c.02.03.03.07.05.1.02.04.03.07.04.11.01.03.02.07.03.1.01.04.02.07.03.11,0,.03.02.07.02.1,0,.04.01.08.02.11,0,.03.01.06.01.1,0,.04,0,.08.01.12,0,.03,0,.06,0,.09,0,.04,0,.08,0,.12,0,.03,0,.05,0,.08,0,.05,0,.1,0,.14,0,.02,0,.04,0,.06,0,.07,0,.13,0,.2,0,.12,0,.23,0,.34,0,4.87.02,9.26,0,13.71,0,.13,0,.27.02.41,0,.08.01.16.01.25,0,0,0,0,0,.01,0,.04,0,.08,0,.11,0,0,0,.02,0,.03,0,.03,0,.07,0,.1,0,.01,0,.03,0,.04,0,.03,0,.06,0,.09,0,.02,0,.03,0,.05,0,.03,0,.06,0,.08,0,.02,0,.03,0,.05,0,.03,0,.05-.01.08,0,.02,0,.04-.01.05,0,.03-.01.05-.02.08,0,.02-.01.04-.02.06,0,.02-.01.05-.02.07,0,.02-.02.04-.02.06,0,.02-.02.05-.03.07,0,.02-.02.04-.03.06-.01.02-.02.04-.03.07-.01.02-.02.04-.04.06-.01.02-.03.04-.04.06-.01.02-.03.04-.04.05-.02.02-.03.04-.05.06-.02.02-.03.03-.05.05-.02.02-.04.04-.06.06-.02.02-.04.03-.06.05-.02.02-.05.04-.07.06-.02.02-.05.03-.07.04-.02.01-.04.03-.07.04-1.15,1.07-2.4,2.38-3.07,4.11.03.02.06.05.09.06,0,0,0,0,0,0,.04.02.07.03.11.04,0,0,.02,0,.03,0,.03,0,.05,0,.08,0,.01,0,.03,0,.04,0,.03,0,.05,0,.08,0,.01,0,.03,0,.04,0,.03,0,.06-.01.09-.02.01,0,.03,0,.04-.01.04-.01.07-.02.11-.04.01,0,.02,0,.03-.01.05-.02.11-.04.16-.06.18-.07.36-.14.55-.18.5-.1,1.03-.2,1.56-.27,0,0,0,0,0,0,.13-.02.26-.03.4-.04.01,0,.02,0,.03,0,.12,0,.25-.02.37-.02.02,0,.03,0,.05,0,.12,0,.24,0,.36,0,.02,0,.04,0,.07,0,.11,0,.23,0,.34.01.03,0,.06,0,.09,0,.11,0,.21.02.32.03.04,0,.07.01.11.02.1.01.2.03.3.05.04,0,.08.02.12.03.09.02.19.04.28.06.05.01.09.03.14.04.09.03.18.05.26.08.05.02.1.04.15.06.08.03.16.06.25.1.06.02.11.05.17.08.08.04.15.07.23.11.06.03.12.07.18.1.07.04.14.08.21.12.06.04.13.09.19.13.05.04.11.07.16.11.75.09,1.25.57,1.57.95.05.02.09.04.14.06.04.02.08.03.11.05.06.03.13.07.19.1.03.02.06.03.09.05.07.05.14.1.21.15.02.01.03.02.05.03.08.07.16.14.24.21.02.02.04.04.06.07.05.06.11.11.16.17.03.03.05.07.08.1.04.05.08.11.12.16.03.04.05.08.08.12.04.06.07.11.1.17.02.04.05.09.07.13.02.04.04.07.06.11.19.09.33.24.42.43l.15.05.36.11c.2-.2.4-.41.59-.62.67-.74,1.37-1.5,2.47-1.77.07-.05.13-.1.2-.15.05-.04.09-.07.14-.11.08-.05.15-.11.23-.16.05-.03.1-.07.15-.1.07-.05.15-.09.22-.14.05-.03.11-.07.16-.1.07-.04.14-.08.2-.12.06-.03.12-.07.18-.1.06-.03.12-.06.18-.09.07-.04.14-.07.21-.11.04-.02.08-.03.12-.05.6-.27,1.22-.47,1.85-.58,0,0,0,0,0,0,.12-.02.23-.04.35-.05.02,0,.04,0,.06,0,.11-.01.21-.02.32-.03.03,0,.06,0,.1,0,.1,0,.19,0,.29-.01.04,0,.09,0,.13,0,.09,0,.18,0,.26,0,.05,0,.11,0,.16,0,.08,0,.16,0,.23.01.06,0,.13,0,.19.01.07,0,.14.01.2.02.06,0,.12.01.19.02.46-.16.91-.16,1.34.01.04,0,.07-.01.11-.02.05,0,.09-.02.14-.03.06,0,.11-.01.17-.02.05,0,.09-.01.14-.01.06,0,.12,0,.17,0,.05,0,.09,0,.14,0,.06,0,.12,0,.18,0,.05,0,.09,0,.14,0,.06,0,.13.01.19.02.04,0,.09,0,.13.02.07.01.14.02.21.04.04,0,.08.01.12.02.08.02.16.04.24.06.03,0,.07.02.1.03.12.03.23.07.35.11l.09.03c.09.03.18.06.25.08.01,0,.02,0,.03,0,.07.02.13.04.19.04.02,0,.05,0,.07,0,.04,0,.08,0,.12,0,.03,0,.05-.01.07-.02.03,0,.07-.01.1-.02v-.04c-.04-.25-.08-.49-.13-.74-.13-.71-.27-1.45-.27-2.19-.03-4.89-.03-9.86-.02-14.67v-3.93c0-.9.08-1.92.93-2.66l.02-.07c.01-.06.03-.11.04-.17,0-.02,0-.04.01-.05,0-.05.02-.1.03-.15,0-.01,0-.02,0-.03,0-.06.01-.11.02-.16,0-.01,0-.03,0-.04,0-.04,0-.09,0-.13,0,0,0-.02,0-.02ZM200.23,489.19c0,.88.01,1.76.01,2.64,0,.83,0,1.66,0,2.5,0,1.96.01,3.98-.02,5.97,0,.69-.09,1.44-.6,1.71-.13.07-.26.09-.4.09-.44,0-.94-.28-1.4-.58l-.2-.13c-1.18-.78-2.29-1.51-3.63-1.82-1.03-.23-1.52-.87-1.52-1.95.03-4.9.02-9.88.01-14.7v-.52c0-.65.13-1.54,1.3-1.89.26-.08.51-.21.77-.35.17-.09.34-.18.52-.26.2-.09.4-.25.61-.42.53-.43,1.27-1.01,2.12-.29.13.11.26.22.4.33.99.8,2.11,1.71,2.04,3.46-.08,2.07-.06,4.19-.04,6.23ZM235.03,485.01c-1.56-2.54-3.18-5.27-4.27-8.34-.2-.56-.43-1.2-.61-1.26-.17-.06-.71.25-1.28.58-3.51,2.02-6.38,3.14-9.32,3.64-.64.11-1.27.09-1.88.08-.5-.01-.97-.02-1.42.03-.11.43.04.78.22,1.18.05.12.1.23.15.35.29.78.43,1.47.43,2.17v1.55c0,4.7-.02,9.57.01,14.35,0,1.14-.36,1.96-1.18,2.64-.81.68-1.42,1.56-1.94,2.82.87.07,1.69.06,2.5.05.27,0,.53,0,.79,0,.77,0,1.51.02,2.27.13,3.43.51,6.08,1.37,8.31,2.71.87.52,1.45.4,2.15-.45.62-.75,1.3-1.47,1.96-2.17.4-.42.8-.85,1.19-1.28.58-.64,1.12-1.29,1.61-1.93.22-.29.25-.56-.27-1.06-.23-.22-.45-.34-.6-.32-.05,0-.14.02-.23.14-1.17,1.4-2.46.88-3.59.42-.65-.26-1.36-.46-2.04-.65-.19-.05-.37-.1-.56-.16-3.45-.98-3.54-1.11-3.49-4.74v-.13c.02-1.33.52-2.17,1.66-2.81,2.13-1.19,4.26-2.45,6.33-3.67.82-.48,1.63-.96,2.45-1.44.78-.46,1.29-.76,1.35-.99s-.23-.69-.67-1.39l-.02-.03ZM227.44,488.84c-.23.13-.45.28-.68.44-.62.42-1.26.85-2.13,1.08l-.32.09-.07-.33c-.51-2.47-.39-7.38.22-9.06l.25-.7.33.66c.3.6.59,1.19.88,1.76.76,1.52,1.48,2.95,2.18,4.4.3.61.05,1.23-.66,1.65ZM73.37,503.3s0,0,0,0c-.04-.05-.09-.08-.14-.12-.01,0-.02-.01-.03-.02-.05-.03-.12-.07-.18-.1-.01,0-.03-.01-.04-.02-.07-.03-.14-.06-.23-.09-.06-.02-.13-.05-.19-.08-.02,0-.04-.02-.06-.03-.05-.02-.09-.04-.14-.06-.03-.01-.05-.03-.07-.04-.04-.02-.08-.05-.12-.07-.03-.02-.05-.03-.07-.05-.02-.02-.04-.03-.06-.04-1.99-.19-3.16-1.24-3.46-3.12-.09-.54-.08-1.08-.08-1.61v-.34c0-3.24,0-6.48,0-9.71,0-2.33,0-4.66,0-6.99,0-1.28,0-1.99-.26-2.36-.26-.37-.85-.56-2.04-.95l-.1-.03c-.49-.16-.97-.31-1.46-.46-1.62-.5-3.29-1.02-4.86-1.8-.04,0-.07,0-.11,0-.04,0-.08,0-.12,0-.04,0-.08,0-.12-.01-.04,0-.07,0-.11-.01-.04,0-.08-.01-.13-.02-.03,0-.07-.01-.1-.02-.04,0-.09-.02-.13-.03-.03,0-.06-.01-.09-.02-.05-.01-.09-.03-.14-.04-.03,0-.06-.02-.08-.02-.05-.02-.1-.03-.16-.05-.02,0-.04-.01-.06-.02-.07-.02-.14-.05-.21-.07,0,0,0,0,0,0-.07-.03-.14-.05-.21-.08-.13-.05-.25-.09-.37-.13-.04-.01-.08-.02-.12-.04-.08-.03-.17-.06-.25-.08-.05-.01-.1-.02-.14-.03-.08-.02-.15-.04-.23-.05-.05,0-.1-.01-.16-.02-.06,0-.12-.01-.18-.02-2.02,1.39-4.23,2.36-6.32,3.21-.33.13-.67.29-.99.45-.9.43-1.83.88-2.93.89-.01.02-.03.03-.04.04-.08.08-.16.16-.24.23-.04.04-.08.08-.12.11-.01,0-.02.02-.03.03-.03.03-.05.05-.08.08-.01.01-.02.03-.03.04-.02.02-.04.04-.06.07-.01.01-.02.03-.03.04-.01.02-.03.04-.04.06,0,.01-.02.03-.02.04-.01.02-.02.04-.03.06,0,.02-.01.03-.02.05,0,.02-.01.04-.02.06,0,.02,0,.04,0,.05,0,.02,0,.04,0,.07,0,.02,0,.04,0,.06,0,.02,0,.03,0,.05.68.95,1,1.85,1,2.84,0,2.16,0,4.32,0,6.44,0,3.54.02,6.96.04,10.03,0,1.1-.29,1.92-.93,2.57l.19.83c1.81.21,3.43.84,4.8,1.87.01,0,.02,0,.04,0,.14.02.27.05.39.09.01,0,.02,0,.03.01.12.04.23.09.33.14,0,0,.01,0,.02.01.1.06.19.13.28.2.01.01.03.02.04.03.08.08.15.16.22.25,0,0,.01.01.02.02,2.03.92,3.59,2.49,4.97,3.9l.59-.05.46-.04.93-1.01c.8-.87,1.6-1.75,2.39-2.62.32-.35.66-.54,1.01-.55.01,0,.02,0,.03,0,.35,0,.69.17,1.04.51.54.54,1.14,1.05,1.71,1.54.85.74,1.74,1.5,2.5,2.38l.55-.09c.49-.57.98-1.16,1.45-1.73,1.19-1.45,2.41-2.95,3.89-4.19,0,0,0-.01,0-.02-.03-.06-.06-.11-.09-.15ZM60.12,501.49l-.17.21-.24-.14c-.47-.27-.93-.54-1.4-.81-1.2-.69-2.43-1.4-3.64-2.12-.73-.44-.73-1.25-.73-1.78,0-1.56,0-3.12,0-4.68,0-3.67,0-7.47.02-11.21,0-.74.06-1.16.37-1.39.33-.24.79-.13,1.41.06,4.72,1.45,4.86,1.64,4.86,6.55v3.37c0,3.13,0,6.37-.01,9.56,0,.13,0,.27.02.41.04.56.08,1.26-.48,1.97ZM102.4,476.17c-.34.05-.59.25-.89.49l-.06.04c-2.69,2.13-3.84,2.13-6.51,0-.53-.42-.86-.69-1.06-.69h0c-.2,0-.52.32-.92.73-2.01,2.04-4.5,3.09-7.64,3.19-.67.02-1.35-.02-2-.06-.26-.02-.51-.03-.77-.05-.26-.01-.54-.06-.81-.1-.5-.08-1.01-.17-1.28,0-.32.2-.3.42-.06,1.08.11.32.23.64.22.97-.05,2.63-.04,5.31-.04,7.89,0,1.18,0,2.37,0,3.55,0,.33-.04.7-.12,1.11-.1.49-.19.98-.13,1.07.06.07.54.1.96.13.11,0,.23,0,.34,0h.09c.14,0,.29,0,.43.02.08,0,.17,0,.25.01.13,0,.29,0,.44.03.26.05.52.18.68.52.17.37.07.67-.09.91-.1.14-.22.26-.32.36-.05.05-.09.09-.13.14-1.63,1.78-3.05,3.8-4.35,6.15-.6,1.09-1.1,2.28-1.54,3.65-.16.5-.08.68.08.8.42.28.82.07,1.02-.08.25-.19.46-.48.62-.71,1.1-1.64,2.67-2.29,5.09-2.14,1.87.12,3.06,1.18,3.98,2.2.61.68,1.08.72,1.73.13,2.34-2.11,5.3-2.98,9.32-2.74.3.02.6.05.91.08.76.08,1.55.16,2.37.03-.46-1.83-.4-3.65-.34-5.4.01-.31.02-.61.03-.92.03-1.01,0-2.04-.04-3.03-.07-2.14-.13-4.35.36-6.53.04-.18.06-.42-.05-.56-.11-.14-.33-.16-.51-.16-.69,0-1.39.04-2.07.08-.51.02-1.01.05-1.52.06-.06,0-.13,0-.19.01-.37.03-.94.07-1.25-.47-.33-.58.07-1.04.31-1.32.04-.05.08-.09.12-.13.33-.41.67-.82,1.02-1.23.6-.72,1.22-1.46,1.78-2.21,1.62-2.16,2.69-4.06,3.35-6,.12-.36.12-.63,0-.77-.12-.15-.42-.2-.82-.14ZM94.91,501.57c-.03.69-.32,1.19-.81,1.38-.13.05-.28.08-.43.08-.45,0-.94-.24-1.39-.68-1.08-1.06-2.36-1.8-4.05-2.32-.55-.17-1.12-.16-1.79-.16-.49,0-1,.01-1.58-.05l-.5-.06.27-.43c1.41-2.27,3.15-3.87,4.82-5.43l.56-.52c.98-.91,2.2-.74,3.27-.59.21.03.43.06.64.08.59.06.99.56.99,1.25,0,.56.01,1.12.02,1.68.02,1.89.05,3.84-.03,5.76ZM96.3,484.25c-2.04,2.47-4.13,4.62-6.39,6.55-.2.17-.57.49-1.01.49-.15,0-.32-.04-.49-.13-.54-.3-.52-.85-.5-1.21,0-.07,0-.14,0-.2v-.92c-.02-1.78-.03-3.62,0-5.43.02-.93.23-1.49.67-1.75.45-.27,1.06-.18,1.93.28.26.14.52.28.78.43.54.31,1.06.6,1.62.81.36.14.75.16,1.2.18.6.03,1.28.07,2.06.41l.38.17-.27.32ZM176.54,502.78c-.03.29-.2.45-.42.65l-.1.1c-.61.58-1.22,1.15-1.84,1.73-.77.72-1.56,1.46-2.33,2.2-.46.45-.98.63-1.68.59-2.69-.16-5.25-2.77-5.27-5.38-.04-4.66-.07-10.09.01-15.47.03-2.17-.44-3.71-2.88-4.15-.16-.03-.44-.11-.51-.32-.07-.22.08-.56.4-.88,1.37-1.42,2.91-2.71,4.4-3.95.43-.36.85-.71,1.28-1.07.28-.24.52-.36.71-.36.01,0,.03,0,.04,0,.19.02.38.15.6.4.53.62,1.09,1.19,1.68,1.68.75.63,1.94,1.41,3.61.87.68-.22.82-.12.83-.11.02.02.13.17-.07.95-.33,1.31-1.04,2.39-2.05,3.13-.93.69-1.31,1.49-1.3,2.77.02,2.45.02,4.94.02,7.35,0,1.86,0,3.72,0,5.58.01,2.62.93,3.53,3.64,3.61.12,0,.25,0,.37,0,.3-.01.57-.03.85.1ZM162.92,471.3c0-.19.13-.38.4-.53,1.03-.59,1.99-1.29,2.91-1.97.58-.43,1.19-.87,1.8-1.28.41-.27.74-.21,1.07.19,1.32,1.61,2.89,2.17,4.8,1.71.26-.06.4-.04.44,0,.07.07.1.32-.04.79-.52,1.81-2.63,4.2-5.7,3.84h-.03s-.03,0-.03,0c-1.63.13-2.8-.33-3.57-1.43-.3-.43-.71-.51-1.04-.57-.14-.03-.28-.05-.39-.1-.37-.17-.6-.42-.61-.66ZM124.53,500.69c.1.25.03.65-.33.99-.79.74-1.62,1.47-2.42,2.18-.71.63-1.44,1.28-2.15,1.94-.8.74-1.33.75-2.13.06-1.06-.93-2.4-1.67-3.98-2.21-.61-.21-1.22-.28-1.83-.28-.77,0-1.55.12-2.36.27.15-1.3.72-2.37,1.83-3.45.84-.82,1.2-1.67,1.19-2.84-.03-3.38-.03-6.82-.02-10.15,0-1.29,0-2.57,0-3.86,0-.29,0-.58-.02-.86-.02-.53-.18-.89-.47-1.11-.41-.3-.97-.21-1.36-.11-.25.06-.49.18-.72.3-.57.29-.85.39-1.11.12-.26-.26-.21-.73-.15-1.23.03-.27.06-.55.05-.83-.02-.27-.01-.55-.01-.83,0-.14,0-.29,0-.43,0-.87-.02-1.49.14-1.63.16-.14.78-.05,1.64.08.56.08,1.14.12,1.52-.2.38-.31.45-.87.47-1.36v-.16c.05-1.08.1-2.2-.16-3.3-.1-.41-.03-.54,0-.58.01-.02.03-.03.05-.04.07-.03.16-.04.22-.04.04,0,.08,0,.12,0,2.92,0,4.99-1.6,6.63-3.16,0,0,.02,0,.04-.01.05-.01.12-.02.17-.02,0,0,.01,0,.02,0,.2.29.14.6.03.99-.39,1.38-.35,2.78-.32,4.14.02.68.03,1.38,0,2.06-.08,1.46.88,1.75,1.83,1.83.67.06,1.27-.1,1.9-.26.33-.09.67-.17,1.03-.23-.21,1.62-.15,3.26.2,5.01.03.16.02.28-.03.32-.05.05-.22.09-.5.02-.69-.17-1.31-.32-1.91-.43-.2-.04-.4-.07-.6-.11-.73-.12-1.18-.13-1.5.13-.32.27-.39.73-.39,1.45-.03,2.74-.02,5.52-.02,8.22,0,1.01,0,2.02,0,3.04,0,.44,0,.88,0,1.32,0,.55,0,1.1,0,1.65,0,.65.13,1.55,1.29,1.91.42.13.8.35,1.21.57.7.38,1.42.78,2.37.81.28,0,.47.13.55.34ZM482.25,486.54c.06-.06.12-.13.17-.19.32-.41.65-.81.98-1.22.77-.95,1.56-1.94,2.28-2.94,1.32-1.85,2.19-3.49,2.74-5.14.12-.36.13-.63.03-.76-.11-.13-.4-.18-.82-.14-.35.04-.63.18-.92.46-2.5,2.49-4.23,1.98-6.55.17q-1.22-.95-2.19.07c-2.81,2.96-6.47,3.15-8.98,3.04-.91-.04-1.81-.12-2.68-.21-.25-.02-.5-.05-.74-.07-.03,1.83,0,3.66.05,5.44.08,3.22.16,6.55-.24,9.81-.04.34,0,.46.04.5.07.09.33.11.58.13.19.02.39.01.6.01.05,0,.1,0,.14,0,.6,0,1.27.03,1.98.48l.29.18-.2.27c-.35.47-.7.93-1.05,1.39-.76,1-1.47,1.94-2.16,2.92-1.7,2.43-2.72,4.44-3.3,6.49-.02.06-.03.12-.05.18-.16.51-.14.62.11.74.37.17.78.12,1.06-.13.17-.16.31-.37.46-.6.08-.12.16-.25.24-.36.81-1.11,1.88-1.71,3.26-1.84,2.33-.22,3.95.34,5.24,1.8.5.56.88.97,1.13.99.23.01.61-.26,1.23-.73l.07-.05c2.16-1.63,4.3-2.42,6.55-2.42.03,0,.06,0,.09,0,.87,0,1.75.04,2.6.07.69.02,1.37.05,2.06.06.09,0,.18.01.27.02.32.03.55.05.78-.23-.59-1.07-.57-2.3-.55-3.49,0-.23,0-.46,0-.69v-1.23c-.02-1.41-.03-2.86,0-4.29.01-.5,0-1.01-.01-1.5-.03-1.47-.07-3,.49-4.49.06-.16.11-.39.03-.52-.09-.14-.34-.22-.71-.24-.61-.03-1.22.02-1.86.08-.93.08-1.89.17-2.9-.02l-.24-.04-.02-.24c-.05-.59.14-.96.36-1.25.07-.09.15-.18.22-.26ZM479.98,501.63c-.02.61-.25,1.06-.65,1.26-.15.08-.33.12-.51.12-.34,0-.71-.13-1.1-.4-.16-.1-.28-.23-.4-.35l-.11-.11c-1.92-1.85-4.25-2.54-7.33-2.17l-.74.09.45-.59c1.85-2.44,3.68-4.19,5.7-6.07,1.02-.94,2.29-.75,3.4-.58.16.03.32.05.49.07.49.07.81.5.82,1.12,0,.62,0,1.24.01,1.86.02,1.88.03,3.83-.03,5.75ZM479.89,486.06c-1.6,1.6-3.2,3.19-4.81,4.78-.39.38-.75.5-1.06.5-.16,0-.3-.03-.42-.08-.67-.25-.66-.88-.66-1.26v-.11s0-1.1,0-1.1c-.01-1.86-.03-3.78.02-5.67.01-.65.19-1.1.54-1.36.35-.27.84-.32,1.5-.16h.04s.07.03.11.04c.12.03.24.08.35.16,1.18.9,2.53,1.43,4,1.59.49.05,1,.07,1.52.04h.22s.39.88.39.88l-1.75,1.75ZM155.37,476.14c-.49,0-.78.26-1.15.6-.08.07-.15.14-.23.21-1.87,1.64-3.17,1.75-5.35.44-.36-.22-.7-.47-1.03-.72l-.07-.05c-.5-.38-.83-.63-1.02-.61-.19.01-.51.34-.91.77-1.66,1.81-3.82,2.78-6.79,3.07-1.57.15-3.12-.02-4.61-.18-.36-.04-.72-.08-1.08-.11.02,1.28.06,2.58.09,3.83.11,3.93.23,7.98-.15,11.98.33.16.71.14,1.13.12.13,0,.27-.01.4-.01s.27,0,.41.02c.66.08,1.09.2,1.25.57.15.35-.05.74-.39,1.22-.26.35-.54.69-.81,1.02-.22.26-.44.54-.65.81-1.55,2.03-3.46,4.78-4.46,8.01-.02.06-.04.13-.07.2-.18.52-.18.66.03.77.48.27.97.18,1.33-.24.11-.13.21-.29.31-.46.08-.13.16-.27.26-.4.79-1.08,1.86-1.67,3.28-1.8,2.32-.22,3.98.38,5.22,1.88.44.53.76.88,1.09.91.31.02.75-.22,1.37-.78,1.87-1.66,4.25-2.5,6.87-2.42.43.01.87.03,1.3.04.89.03,1.81.06,2.72.08.13,0,.26.02.39.03.35.04.63.07.92-.11-.56-1.56-.53-3.2-.51-4.79,0-.36.01-.73,0-1.09,0-2.19,0-4.38,0-6.58v-.09c0-.68,0-1.38.18-2.09.2-.83.4-1.61.25-1.78-.14-.17-.91-.14-1.72-.11-.35.01-.7.04-1.05.07-.42.03-.85.06-1.29.08-.06,0-.13,0-.19.01-.4.03-.98.07-1.4-.57-.03-.04-.06-.09-.08-.14l-.1-.19.13-.16c.3-.37.6-.74.91-1.12.69-.84,1.4-1.71,2.08-2.59,1.85-2.37,3.07-4.5,3.85-6.68.16-.45.11-.62.07-.68-.05-.08-.23-.17-.75-.18ZM147.59,501.58c-.03.82-.37,1.16-.65,1.31-.15.07-.31.11-.48.11-.33,0-.7-.13-1.09-.39-.15-.1-.27-.22-.39-.34-.04-.04-.08-.08-.12-.12-1.91-1.79-4.21-2.58-7.04-2.4l-.67.04.4-.55c1.49-2.05,3.29-3.99,5.49-5.93.97-.86,2.19-.67,3.27-.5.15.02.29.05.43.06.32.04.87.27.87,1.3,0,.56,0,1.13,0,1.69.01,1.87.03,3.81-.03,5.71ZM149.06,483.75c-.11.98-.64,1.45-1.06,1.83-.1.09-.2.18-.29.27-1.52,1.57-3.09,3.12-4.47,4.48-.07.06-.13.13-.2.2-.32.34-.75.79-1.33.79-.12,0-.24-.02-.37-.06-.89-.27-.81-1.05-.77-1.57.01-.13.02-.26.02-.37-.04-2.26-.04-4.14,0-5.91.03-1.17.46-1.65.83-1.84.34-.18.93-.27,1.81.3.67.44,1.33.78,2.01,1.03.9.33,1.81.5,2.76.51.24,0,.48,0,.73-.02l.38-.03-.04.38ZM458.94,478.81c.04.15-.07.41-.35.83-.95,1.39-2.42,2.14-4.48,2.31-1.8.15-3.69-.04-5.77-.58-.41-.11-.96-.24-1.51-.28-.59-.04-1.08.09-1.41.4-.31.29-.47.7-.47,1.23,0,2.82,0,5.64,0,8.46,0,3.28,0,6.67-.02,10,0,1.06.74,1.29,1.39,1.5.13.04.26.08.39.13-2.11,1.46-4.4,3.29-6.11,5.89l-.11-.14c-.9-1.2-1.68-2.23-2.63-3.16-.63-.61-1.35-1.12-2.03-1.61-.45-.32-.88-.63-1.29-.97,0,0,0-.02,0-.02,0-.01,0-.02,0-.03,2.04-.49,2.14-.66,2.14-2.85,0-1.44,0-2.88-.01-4.33-.01-3.1-.03-6.31.04-9.46,0-.15,0-.3,0-.44.01-2.24-.3-4.65-2.87-6.19,1.25-1.23,2.6-2.23,3.9-3.19.55-.41,1.12-.83,1.67-1.26.25-.19.66-.39,1.4.11.3.2.6.4.89.6.92.61,1.87,1.24,2.73,1.94.72.59,1.37.67,2.24.29,1.75-.76,3.38-1.69,4.84-2.76.78-.57,1.36-.55,2.06.07,1.52,1.35,3.23,2.28,4.69,3.02.42.21.63.38.67.52ZM427.38,484.12c-1.25-2.11-2.54-4.3-3.45-6.65-.41-1.06-.68-1.76-.97-1.86-.28-.1-.9.23-1.92.79l-.1.05c-3.96,2.16-7.41,3.54-11.4,3.24-.26-.02-.39.03-.43.07-.03.04-.08.17.05.61.07.23.14.45.22.68.34,1.05.69,2.13.68,3.31-.02,4.36-.04,9.53,0,14.83.01,1.2-.38,2.06-1.26,2.82-.94.8-1.59,1.69-2.06,2.82.64.01,1.26,0,1.87,0,.41,0,.81-.01,1.2-.01.83,0,1.64.03,2.45.14,3.52.49,6.09,1.32,8.32,2.67.87.53,1.51.42,2.2-.37,1.13-1.29,2.31-2.57,3.46-3.81.42-.45.84-.91,1.25-1.36.27-.29.39-.52.38-.71,0-.15-.1-.31-.29-.48-.28-.26-.6-.53-.86-.51-.04,0-.16.01-.33.2-1.19,1.4-2.46.86-3.59.38-.54-.23-1.13-.39-1.69-.54-.16-.04-.33-.09-.49-.13-3.65-1.03-3.75-1.17-3.72-4.96v-.13c.01-1.28.45-2.05,1.52-2.65,2.49-1.4,5-2.88,7.42-4.31l1.55-.91c.65-.38,1.12-.66,1.18-.87.06-.21-.21-.66-.57-1.29-.21-.36-.42-.71-.63-1.07ZM420.04,489.03c-.2.11-.41.27-.62.45-.41.33-.86.69-1.37.69-.15,0-.3-.03-.46-.1-.85-.37-.74-1.29-.67-1.95.03-.22.05-.44.04-.62-.03-1.38-.02-2.79-.02-4.14,0-.56,0-1.11,0-1.67v-.27s1.1-.16,1.1-.16l.94,1.88c.63,1.25,1.26,2.51,1.88,3.76.31.61.41,1.48-.84,2.13ZM335.23,487.99c0-1.55,0-3.11,0-4.66,0-.67,0-1.43.22-2.19.19-.66.35-1.19.25-1.35-.1-.16-.63-.28-1.38-.44-.24-.05-.47-.12-.69-.19-.12-.04-.24-.07-.36-.1-2.64-.73-5.36-1.77-8.54-3.3-.43-.21-.79-.31-1.12-.31-.38,0-.73.13-1.1.4-2.66,1.9-5.87,3.05-9.81,3.52-.77.09-.91.23-.94.28-.02.03-.05.18.25.66.75,1.19.74,2.42.74,3.62v.22c0,1.17,0,2.34-.01,3.52-.02,2.6-.03,5.28.04,7.92.08,2.6-.03,5.09-2.15,7.04-.02.02-.05.07-.06.1-.27.48-.27.66-.24.72.03.06.15.18.65.29.16.03.33.04.51.05.17,0,.35.02.53.04,3.72.61,8,1.48,11.57,4.17.57.43.92.68,1.12.67.22-.01.55-.32,1.07-.82,2.1-2.03,4.72-3.45,8.24-4.47.13-.04.27-.08.41-.11.53-.14,1.07-.29,1.66-.61-.62-1.22-.9-2.52-.89-4.07.02-3.53.02-7.13.01-10.6ZM327.25,499.76c0,1.05,0,1.62-.38,1.93-.16.13-.36.18-.61.18-.31,0-.71-.08-1.24-.19-4.55-.91-4.92-1.35-4.92-5.94,0-1.26,0-2.51,0-3.77,0-3.21,0-6.53.01-9.8,0-.94.04-1.58.44-1.87.4-.29,1-.12,1.93.2,4.69,1.59,4.78,1.71,4.78,6.53v7.31s0,.02,0,.02c0,.9,0,1.8,0,2.7,0,.9,0,1.79,0,2.69Z" fill="#fff"/></svg>
