<?xml version="1.0" encoding="UTF-8"?><svg id="a" xmlns="http://www.w3.org/2000/svg" viewBox="0 0 300 258.34"><path d="M300,138l-1.81-.44c-5.26-1.26-10.82-2.5-17.5-3.91l-.54-.11c.32-4.41,.63-8.83,.95-13.24l.02-.25c.03-.41,.06-.82,.09-1.23-.41-.09-.83-.17-1.24-.26l-.25-.05c-5.94-1.23-11.89-2.36-17.85-3.41v-50.51l-.74-.42L150.74,.42l-.74-.42-.74,.42L38.87,64.16l-.74,.42v50.51c-5.96,1.06-11.91,2.18-17.85,3.41l-.25,.05c-.41,.09-.83,.17-1.24,.26,.03,.41,.06,.82,.09,1.23l.02,.25c.32,4.41,.63,8.83,.95,13.24l-.54,.11c-6.68,1.41-12.25,2.65-17.51,3.91l-1.81,.44,.77,1.7c3.71,8.2,7.46,16.6,11.14,24.96-2.36,9.66-4.7,19.5-6.98,29.25l-.57,2.43,2.43-.58c10.05-2.41,20.6-4.65,31.35-6.64v4.64l.74,.42,110.39,63.73,.74,.42,.74-.42,110.39-63.73,.74-.42v-4.64c10.76,1.99,21.3,4.23,31.35,6.64l2.43,.58-.57-2.43c-2.25-9.65-4.6-19.49-6.98-29.25,3.66-8.32,7.4-16.72,11.14-24.96l.77-1.7Z" fill="#fff"/><g><path d="M241.99,170.82v11.46l-91.99,53.11-91.99-53.11v-11.46c-6.14,.92-12.28,1.92-18.4,3.03v19.06l110.39,63.73,110.39-63.73v-19.06c-6.12-1.11-12.26-2.11-18.4-3.03Z" fill="#da1f26"/><path d="M58.01,111.91v-35.86L150,22.94l91.99,53.11v35.86c6.14,.89,12.28,1.86,18.4,2.94v-49.41L150,1.7,39.61,65.43v49.41c6.12-1.07,12.26-2.04,18.4-2.94Z" fill="#da1f26"/></g><path d="M293.57,194.25c-10.52-2.53-21.1-4.75-31.71-6.71v-5.8c4.88-1.6,9.76-3.14,14.66-4.62l.26-.08c.07,.02,.15,.03,.22,.05v-.12c.18-.05,.36-.1,.53-.16l.08-1.13c.92-13.51,1.83-27.02,2.75-40.53,5.83,1.23,11.66,2.51,17.46,3.9-3.83,8.45-7.61,16.94-11.36,25.46,2.42,9.9,4.78,19.81,7.1,29.74ZM23.48,177.12l-.26-.08c-.07,.02-.15,.03-.22,.05v-.12c-.18-.05-.36-.1-.53-.16-.03-.38-.05-.75-.08-1.13-.92-13.51-1.83-27.02-2.75-40.53-5.83,1.23-11.66,2.51-17.46,3.9,3.83,8.45,7.61,16.94,11.36,25.46-2.42,9.9-4.78,19.81-7.1,29.74,10.52-2.53,21.1-4.75,31.71-6.71v-5.8c-4.88-1.6-9.76-3.14-14.66-4.62Zm238.38-2.65v5.24c3.42-1.12,6.85-2.19,10.29-3.25-3.43-.69-6.85-1.36-10.29-2Zm-223.73,5.24v-5.24c-3.43,.63-6.86,1.31-10.29,2,3.43,1.06,6.86,2.13,10.29,3.25Zm237.56-4.4h-.02c-82.9-17.18-168.45-17.18-251.35,0h-.02c-1.34-18.44-2.68-36.88-4.02-55.33,85.56-17.74,173.86-17.74,259.43,0-1.34,18.44-2.68,36.89-4.02,55.33Zm-7.64-44.78c.13-2.01-.68-3.19-2.44-3.52-2.92-.54-5.85-1.06-8.77-1.56-1.75-.3-2.69,.58-2.81,2.63-.14,2.47-.29,4.94-.43,7.42-.06,1.08,.2,2.02,.79,2.82,2.71,3.64,5.4,7.3,8.07,10.97l-.42,6.54c-1.75-.32-3.49-.63-5.24-.93,.14-2.27,.28-4.53,.41-6.79-1.44-.25-2.87-.49-4.31-.73-.16,2.65-.31,5.3-.46,7.95-.12,2.03,.68,3.19,2.4,3.48,2.87,.49,5.74,1,8.61,1.53,1.73,.32,2.66-.53,2.79-2.56,.18-2.65,.35-5.29,.53-7.94,.07-1.12-.18-2.08-.76-2.88-2.67-3.68-5.36-7.33-8.06-10.97,.12-2.01,.24-4.02,.37-6.03,1.77,.31,3.54,.62,5.31,.94l-.4,6.28c1.44,.26,2.89,.53,4.33,.8,.16-2.48,.33-4.96,.49-7.45Zm-23.08,26.66c1.49,.23,2.98,.46,4.47,.71-1.29-5.29-2.59-10.58-3.91-15.86,1.43,.22,2.37,.26,2.83,.12,.85-.28,1.31-1.12,1.39-2.53,.23-4.04,.46-8.09,.68-12.13,.12-2.05-.7-3.21-2.46-3.49-3.87-.6-7.73-1.17-11.61-1.7-.54,11.13-1.08,22.27-1.62,33.4,1.43,.2,2.86,.4,4.29,.6,.49-9.7,.99-19.4,1.48-29.1,1.83,.26,3.67,.54,5.5,.82-.19,3.53-.38,7.05-.57,10.58-1.42-.22-2.84-.43-4.26-.64-.05,1-.1,2.01-.16,3.01,1.32,5.4,2.64,10.81,3.93,16.22Zm-20.47-17.79c2.18,.26,4.35,.53,6.53,.81,.07-1.44,.13-2.89,.2-4.33-2.18-.28-4.36-.55-6.54-.82,.14-3.25,.27-6.51,.41-9.76,2.55,.3,5.1,.62,7.64,.96,.07-1.47,.14-2.95,.21-4.42-4.01-.53-8.03-1.02-12.05-1.47-.44,11.14-.88,22.29-1.33,33.43,3.98,.45,7.96,.93,11.93,1.46,.07-1.47,.14-2.95,.21-4.42-2.55-.34-5.1-.66-7.65-.96,.15-3.5,.29-6.99,.44-10.49Zm-12.21,13.64c1.26,.13,2.52,.26,3.78,.39,.42-11.15,.84-22.29,1.26-33.44-1.43-.15-2.85-.3-4.28-.44-.21,6.07-.43,12.14-.64,18.21-.02,.58,.04,1.4,.19,2.44-2.08-7.11-4.18-14.2-6.31-21.29-1.28-.11-2.57-.22-3.85-.33-.33,11.16-.65,22.31-.98,33.47,1.4,.12,2.8,.24,4.2,.36,.2-6.21,.39-12.43,.59-18.64,.02-.58-.05-1.4-.2-2.44,2.11,7.23,4.19,14.47,6.25,21.72Zm-82.5-36.35c-1.54,.05-3.09,.1-4.63,.16-1.75,11.23-3.46,22.46-5.14,33.7v.09c1.42-.07,2.85-.13,4.27-.19,.26-2.13,.52-4.26,.78-6.39,1.81-.07,3.62-.14,5.43-.19,.31,2.11,.63,4.22,.94,6.33,1.43-.04,2.86-.08,4.29-.11-1.95-11.14-3.93-22.27-5.94-33.39Zm-13.4,.61c-1.39,.07-2.77,.15-4.16,.23-1.41,6.26-2.81,12.53-4.19,18.8-.06,.66-.08,1.17-.08,1.53-.04-.81-.09-1.31-.15-1.51-1.67-6.07-3.36-12.13-5.07-18.18-1.39,.1-2.77,.21-4.15,.32,.32,11.16,.64,22.31,.96,33.47,1.38-.11,2.77-.22,4.15-.32l-.44-16.51c-.02-.84-.14-2.05-.36-3.62,1.41,5.6,2.82,11.21,4.21,16.82,.73-.05,1.47-.1,2.2-.15,1.11-5.78,2.24-11.56,3.38-17.33-.14,1.57-.2,2.78-.18,3.65,.12,5.51,.23,11.01,.35,16.52,1.38-.08,2.77-.16,4.16-.23-.21-11.16-.42-22.33-.63-33.49Zm-61.9,6.28c-1.53,.23-3.06,.47-4.59,.72-1.26,11.41-2.49,22.82-3.68,34.23v.09c1.41-.24,2.82-.47,4.23-.7,.17-2.16,.33-4.31,.5-6.47,1.8-.29,3.59-.57,5.39-.84,.4,2.07,.8,4.14,1.2,6.2,1.42-.21,2.84-.42,4.26-.62-2.4-10.88-4.84-21.75-7.31-32.6Zm-14.61,6.89c1.6-.28,3.2-.56,4.8-.83-.09-1.47-.17-2.94-.26-4.41-4.66,.78-9.3,1.62-13.95,2.51,.1,1.47,.2,2.94,.3,4.4,1.59-.31,3.19-.6,4.79-.9,.62,9.64,1.24,19.27,1.86,28.91,1.42-.26,2.84-.52,4.26-.77l-1.79-28.92Zm26.58,25.06c2.99-.4,5.98-.79,8.97-1.15,1.75-.21,2.59-1.33,2.51-3.37-.11-2.76-.23-5.51-.34-8.27-1.44,.17-2.88,.34-4.31,.52,.1,2.34,.2,4.68,.31,7.03-1.86,.23-3.72,.47-5.58,.71-.39-8.28-.77-16.55-1.16-24.83,1.89-.25,3.77-.49,5.66-.72l.29,6.6c1.45-.18,2.89-.35,4.34-.52l-.32-7.82c-.08-2.05-1.02-2.97-2.81-2.76-3.05,.37-6.1,.76-9.14,1.17-1.73,.23-2.55,1.38-2.45,3.43,.45,9.09,.89,18.18,1.34,27.27,.1,2.03,1,2.93,2.7,2.7Zm14.93-4.9c.08,2.04,.97,2.96,2.68,2.78,3.12-.33,6.24-.64,9.36-.92,1.74-.16,2.59-1.25,2.52-3.29l-.84-27.33c-.06-2.05-.98-3-2.76-2.84-3.18,.29-6.36,.6-9.54,.94-1.74,.19-2.57,1.31-2.49,3.36,.36,9.1,.71,18.2,1.07,27.31Zm66.07-3.77c0,2.04,.86,3.06,2.57,3.06,3.03,0,6.07,.02,9.1,.07,1.76,.03,2.65-.98,2.66-3.02,.03-4.96,.07-9.92,.1-14.88-2.55-.05-5.09-.08-7.64-.1,0,1.42,0,2.84-.01,4.26,1.08,0,2.16,.02,3.24,.03-.01,3.13-.03,6.25-.04,9.38-1.88-.02-3.77-.04-5.65-.04,0-8.3,.02-16.6,.03-24.9,1.91,0,3.82,.02,5.73,.04l-.03,5.93c1.47,.02,2.93,.04,4.4,.07,.02-2.38,.03-4.77,.05-7.15,.01-2.05-.88-3.1-2.67-3.13-3.07-.05-6.14-.07-9.21-.07-1.78,0-2.67,1.03-2.67,3.09,.01,9.12,.03,18.24,.04,27.36Zm17.83,.18c-.02,2.04,.83,3.08,2.54,3.13,3.13,.09,6.26,.2,9.39,.34,1.75,.08,2.64-.9,2.68-2.94,.16-9.12,.31-18.24,.47-27.35,.04-2.05-.84-3.13-2.62-3.2-3.19-.14-6.38-.25-9.57-.35-1.75-.05-2.63,.96-2.65,3.01-.08,9.12-.16,18.24-.24,27.36Zm18.13,.71c-.04,2.04,.8,3.1,2.51,3.2,3.13,.18,6.25,.38,9.38,.61,1.75,.13,2.65-.82,2.7-2.86l.75-27.34c.06-2.05-.81-3.15-2.59-3.28-3.18-.23-6.37-.44-9.56-.62-1.74-.1-2.64,.88-2.67,2.94-.17,9.12-.35,18.23-.52,27.35Zm-127.91-1.35c-.97-4.91-1.95-9.82-2.93-14.73-.44,5.13-.87,10.26-1.29,15.39,1.41-.22,2.81-.44,4.22-.66Zm36.08,1.94c-.28-8.29-.55-16.58-.83-24.86-2,.19-4.01,.39-6.01,.59,.3,8.28,.61,16.57,.91,24.85,1.98-.2,3.95-.4,5.93-.58Zm38.25-8.77c-.76-5.02-1.53-10.03-2.31-15.04-.66,5.06-1.3,10.13-1.95,15.19,1.42-.06,2.84-.11,4.26-.15Zm40.08-18.55c-.09,8.3-.19,16.6-.28,24.9,1.98,.06,3.97,.13,5.95,.22,.12-8.3,.24-16.6,.36-24.89-2.01-.08-4.02-.16-6.03-.22Zm24.42,1.24c-2.01-.14-4.02-.27-6.02-.39-.18,8.3-.36,16.59-.53,24.89,1.98,.12,3.96,.25,5.94,.39,.21-8.29,.41-16.59,.62-24.88Z" fill="#203a6f"/><g><path d="M200.24,105.28l4.07-.9,2.54,.09,14.83,.52,3.69,.13,6.62-.99,8.16-1.21v-7.12c-1.24-.75-3.89-2.34-6.05-3.6-.09-.05-.19-.11-.28-.16-1.39-.81-2.51-1.46-2.82-1.59l-4.15-1.92c-2.17-.93-2.52-1.21-4.61-2.92-2.5-2.05-5.25-1.22-7.03-1.48-1.63-.24-5.67-2.41-6.6-2.92-.12-.07-.2-.11-.2-.11,0,0-.5-.27-1.24-.66-1.15-.61-2.92-1.5-4.43-2.11-2.5-1.01-2.27-1.26-2.72-2.02-.15-.25-.59-.74-1.12-1.28-.27-.28-.56-.56-.86-.85-.87-.84-1.77-1.65-2.11-1.9-.68-.5-1.35-.41-1.81-.5-.82-.17-2.06-.63-3.4-1.2-.56-.24-1.14-.49-1.71-.75-2.72-1.24-5.33-2.59-5.33-2.59l-.12-.06c-.24-.11-.83-.39-1.61-.75-1.34-.62-3.21-1.48-4.66-2.12-.66-.29-1.24-.55-1.63-.71-.14-.06-.27-.11-.36-.14-1.17-.43-2.87-1.1-3.99-1.71-.19-.1-.4-.21-.55-.31-.19-.13-.48-.37-.79-.64-.69-.61-1.48-1.38-1.48-1.38l-2.69-1h-.04s-.85-.23-1.73-.48c-.66-.19-1.33-.39-1.68-.54-.83-.35-2.51-1.42-3.4-1.26-.06,.01-.12,.06-.18,.09-.58,.25-1.32,1.15-1.86,1.17-.14,0-.3-.05-.47-.12-.46-.2-.99-.58-1.34-.63-.79-.12-2.97,.29-3.18-.5-.11-.44-.41-.66-1.01-1.28-.11-.12-.22-.22-.35-.37-.51-.56-1-.75-1.46-.76-.85-.02-1.61,.58-2.17,.76-.59,.19-2.5,0-2.5,0h-1.13s-.36-.04-.83-.07c-.59-.04-1.34-.06-1.83,0-.11,.02-.21,.03-.28,.06-1.11,.39-3.07,2.08-4.47,3.39-.54,.5-.97,.92-1.27,1.21-.22,.22-.39,.38-.39,.38,0,0-1.77-.2-2.32,0-.51,.18-1.22,.69-1.95,1.29-.41,.33-.82,.69-1.22,1.05-1.18,1.07-2.17,2.09-2.17,2.09l-.54,.65-.98,1.17-2.09,2.5-.96,1.15v.02l-3.76,1.98-1.74,.92-.63,.34s-1.18,1.13-2.7,2.49c-.39,.35-.79,.7-1.2,1.07-1.57,1.37-3.25,2.74-4.27,3.3-.26,.14-.58,.28-.91,.41-1.04,.41-2.36,.77-3.73,1.12-2.29,.58-4.7,1.13-6.08,1.87-1.61,.86-3.96,3.66-5.44,4.95-.06,.05-.12,.11-.17,.16-.26,.22-.61,.46-.98,.71-1.66,1.11-4.16,2.4-5.66,2.69-.63,.12-1.94-.17-2.55,0-2.6,.74-6.59,4.94-9.19,5.68-1.72,.49-5.43-.49-7.15,0-1.3,.37-4.59,2.84-4.59,2.84l-1.42,.95v.77h1.58v.2l.47-.35,4.43-3.25h7.54l4.38,1.39,4.38,1.39h4.05l-16.66,7.42-3.68-2.6-4.43-.55-.47-.06v3.49h-1.58v2.99c42.39-6.04,85.24-7.81,127.9-5.28l12.49-1.08Zm-39.61-6.83l-8.06,1.5-3.07-2.02h0l-3.07-2.02h-24.5s-1.03,.04-2.35,0h-5.85v-2.23c-.04-.41,0-.77,0-.77v-3l6.18-1.42,6.18-1.42,5.17-5.55,5.17-5.55,3.28,2.78,3.28,2.78,7.19,2.02,7.19,2.02,4.5,1.18,4.5,1.18,1.46,4.94,6.44,3.03-10.85,2.02s-1.18,.24-2.79,.52Zm13.85-22.21l4.91,1.01v-5.55l3.94,2.77,3.94,2.77,1.08,3.65s.29,.76,.46,1.57l.61,2.08-1.66,.39-3.83,.33-3.83,.33h-4.02l-1.48-2.02h0l-1.48-2.03-1.77-3.15-1.77-3.15,4.91,1.01Zm38.89,9.74l2.14,.55,2.14,.55,1.26,.43,1.26,.43,2.83,1.54,2.83,1.54,5.87,3.02,5.87,3.02-.03,2.13-.03,2.13-7.03-2.01-7.03-2.01-1.89,.51h0l-1.89,.51-3.9-2.61c-.09-.06-.15-.1-.15-.1l-4.06-2.71h6.88l-8.78-4.94h-7.45s-.47,.01-1.17,0h-6.28v-3.49l.29,.19s.04-.07,.06-.09c.56-.55,2.79-.06,2.79-.06l3.13,.04,1.54-1.5,1.54-1.5,4.62,2.22,4.62,2.22Zm-28.61-15.71s5.79,1.69,7.55,2.69c.69,.39,2.52,1.97,2.52,1.97l2.4,2.07,1.91,1.57s1.68,.92,1.7,1.54c0,0-.01,.02-.01,.03h.22l-.64,.58c-.07,.07-.13,.12-.13,.12l-.77,.7h-1.44c-1.11,.05-2.34,0-2.34,0,0,0-.59,.02-1.29,0h-2.5l-1.24-2.56c-.26-.51-.44-.91-.44-.91l-1.68-3.47-3.05-1.84h0l-2.69-1.62-5.74-3.47,7.67,2.6Zm-34.52-5.66l-4.35,1.17s-1.48,.5-2.89,.76l-2.28,.63-1.04-1.71c-.61-.84-1.1-1.82-1.1-1.82l-2.14-3.53,2.4-2.02s1.66-1.75,2.4-2.02c.8-.29,3.41,0,3.41,0,0,0,2.57-.18,3.41,0,.61,.13,2.27,1.01,2.27,1.01l2.27,1.01,1.08,1.01s.72,.95,1.08,1.01c.6,.1,2.2-1.01,2.2-1.01,0,0,1.59-1,2.2-1.01,1.07-.02,3.96,1.64,3.96,1.64l3.96,1.64,3.6,2.14,3.6,2.14,1.81,7.22-7.31-3.06h-6l-1.54-4.16-4.96,6.05-4.96,6.05,3.66,2.63,3.66,2.63-8.2-2.5s-2.66-.66-4.91-1.5l-3.28-1-1.14-2.03-.03-.06-1.09-1.94,1.28-1.25c.43-.46,.86-.83,.86-.83l2.14-2.08,6-5.2Zm-27.43,7.98l3.28-1.39,2.02-2.77,2.02-2.77-.5,3.61s.12,2.94-.5,3.61c-.46,.49-2.65,.55-2.65,.55,0,0-1.98,.48-2.65,.55-.53,.06-2.14,0-2.14,0h-2.14l3.28-1.39Zm-5.55,6.18l3.28-.76,3.28-.76,3.53-1.39,3.53-1.39,.88-2.65,.88-2.65,1.26-2.9,1.26-2.9,1.48,3.08s.21,.4,.44,.91l1.05,2.17-1.57,1.77c-.63,.78-1.3,1.46-1.3,1.46l-2.87,3.22-2.57,2.07-2.57,2.07-6.64,1.41-2.44,2.22s-.12,.11-.3,.28l-2.13,1.94-4.67,.54c-.08,0-.11,.01-.13,.01l-4.88,.56,5.59-4.16,5.59-4.16Zm-22.7,9.18l1.43-1.7,1.43-1.7,5.76-1.5,5.76-1.5-5.05,4.44s-1.17,1.12-2.49,2.19l-2.55,2.25-1.1-.63c-.53-.25-1.04-.6-1.05-.6l-2.14-1.24Zm-13.35,6.46l1.42-1.51h8.51l-5.68,1.51-5.68,1.51,1.42-1.51Zm9.41,7.19l3.94-2.14h-6.56l-5.37-1.26,7.4-2.65,7.4-2.65h12.02l-.76,1.51-.76,1.51,2.14,2.52s.39,.37,.71,.83l1.44,1.69-7.99,.87c-2.54,.32-4.78,.52-4.78,.52l-12.77,1.39,3.94-2.14Z" fill="#ed1c24"/><polygon points="68.03 102.97 61.42 104.04 61.42 105.17 61.9 105.23 66.32 105.78 70.01 108.39 86.67 100.96 71.14 104.27 68.03 102.97" fill="#ed1c24"/><path d="M85.3,98.82l-2.69-.63,5.37,1.26h3.28s-2.47-.11-3.28-.2c-.69-.08-2.69-.43-2.69-.43Z" fill="#ed1c24"/><path d="M111.1,100.45c-1.02,.54-4.13,1.03-6.88,1.38l7.99-.87-1.44-1.69c.26,.38,.47,.83,.33,1.18Z" fill="#ed1c24"/><path d="M97.74,89.79l1.1,.63,2.55-2.25c-.97,.79-2.02,1.56-2.77,1.85-.23,.02-.56-.09-.88-.24Z" fill="#ed1c24"/><polygon points="96.69 89.18 94.55 87.95 96.7 89.18 96.69 89.18" fill="#ed1c24"/><polygon points="103.88 85.98 103.88 85.98 108.93 81.54 103.88 85.98" fill="#ed1c24"/><path d="M106.07,87.09l4.88-.56h-.04l-4.84,.56Z" fill="#ed1c24"/><path d="M115.81,85.61c-.97,.44-3.99,.81-4.74,.9l4.67-.54,2.13-1.94c-.5,.45-1.51,1.33-2.06,1.58Z" fill="#ed1c24"/><polygon points="136.65 66.46 136.65 66.46 135.16 63.38 136.65 66.46" fill="#ed1c24"/><path d="M127.24,79.8c-.77,.36-3.3,1.03-3.3,1.03l-3.32,.7,6.64-1.41,2.57-2.07s-1.84,1.39-2.58,1.74Z" fill="#ed1c24"/><polygon points="118.18 83.76 118.17 83.76 120.62 81.54 118.18 83.76" fill="#ed1c24"/><path d="M136.56,71.3l1.57-1.77-1.05-2.17c.31,.68,.65,1.58,.58,2.06-.07,.49-.58,1.22-1.11,1.88Z" fill="#ed1c24"/><path d="M152.2,99.15c-.9-.18-2.7-1.21-2.71-1.21l3.07,2.02,8.06-1.5c-2.73,.47-6.73,1.04-8.43,.69Z" fill="#ed1c24"/><path d="M167.09,90.42s.31,1.98,.73,2.47l-1.46-4.94,.73,2.47Z" fill="#ed1c24"/><path d="M114.11,94.74c-.25-.25-.35-.67-.38-1.05v2.23h5.85c-1.97-.06-4.6-.31-5.47-1.18Z" fill="#ed1c24"/><path d="M171.04,94.4l3.22,1.51-6.44-3.03c.58,.67,3.22,1.51,3.22,1.51Z" fill="#ed1c24"/><polygon points="175.17 69.26 176.07 72.87 174.26 65.65 175.17 69.26" fill="#ed1c24"/><polygon points="147.65 67.1 151.06 64.39 150.24 64.61 144.24 69.81 147.65 67.1" fill="#ed1c24"/><polygon points="172.42 71.34 168.76 69.81 176.07 72.87 172.42 71.34" fill="#ed1c24"/><path d="M140.82,66.57c-.36-.15-.78-.61-1.15-1.12l1.04,1.71,2.28-.63c-.86,.16-1.7,.23-2.17,.04Z" fill="#ed1c24"/><path d="M141.24,72.72l-1.28,1.25,1.09,1.94c-.16-.29-.75-1.38-.68-1.88,.05-.36,.46-.88,.87-1.31Z" fill="#ed1c24"/><polygon points="162 67.73 161.23 65.65 162.76 69.81 162 67.73" fill="#ed1c24"/><path d="M141.09,75.99v-.02l1.14,2.03,3.28,1c-1.11-.41-2.13-.87-2.68-1.31-.45-.36-1.73-1.71-1.73-1.71Z" fill="#ed1c24"/><path d="M188.79,84.16c-.11,.18-.22,.58-.22,.58l-.83,.2,1.66-.39-.61-2.08c.14,.65,.21,1.33,0,1.69Z" fill="#ed1c24"/><path d="M174.6,83.57l1.48,2.02h2.01s-1.37-.05-1.82-.27c-.56-.28-1.65-1.73-1.66-1.75Z" fill="#ed1c24"/><polygon points="188.33 80.9 188.33 80.9 187.25 77.25 188.33 80.9" fill="#ed1c24"/><path d="M190.68,78.98l1.24,2.56h2.5c-.81-.03-1.79-.12-2.22-.39-.5-.31-1.11-1.38-1.52-2.18Z" fill="#ed1c24"/><polygon points="185.51 72.76 188.56 74.6 185.51 72.76 185.51 72.76" fill="#ed1c24"/><path d="M199.54,81.33c-.31,.12-.89,.18-1.49,.21h1.44l.77-.7h0s-.47,.4-.72,.49Z" fill="#ed1c24"/><path d="M200.39,80.71l.64-.58h-.22c-.02,.18-.26,.43-.42,.58Z" fill="#ed1c24"/><path d="M195.05,84.65l-.29-.19v1.74s.03-1.15,.29-1.55Z" fill="#ed1c24"/><polygon points="209.66 87.95 218.43 92.89 214.04 90.42 209.66 87.95" fill="#ed1c24"/><path d="M215.77,95.71l3.9,2.61,1.89-.51s-1.56-.08-2.04-.16c-1.04-.17-3.17-1.56-3.75-1.94Z" fill="#ed1c24"/><path d="M194.76,86.2v1.74h6.28c-1.67-.02-4.7-.17-5.94-.88-.38-.22-.35-.87-.35-.87Z" fill="#ed1c24"/><path d="M240.15,102.92l-8.16,1.21-6.62,.99-3.69-.13-14.83-.52-2.54-.09-4.07,.9-12.49,1.08c17.52,1.04,35,2.8,52.41,5.28v-8.73Z" fill="#ed1c24"/><polygon points="61.42 105.17 61.42 104.04 61.42 101.78 61.42 101.58 59.85 101.58 59.85 108.66 61.42 108.66 61.42 105.17" fill="#ed1c24"/><path d="M113.9,197.19c-2.27,0-4.1,1.84-4.1,4.1s1.84,4.1,4.1,4.1,4.1-1.84,4.1-4.1-1.84-4.1-4.1-4.1Z" fill="#ed1c24"/><path d="M123.75,197.19c-2.27,0-4.1,1.84-4.1,4.1s1.84,4.1,4.1,4.1,4.1-1.84,4.1-4.1-1.84-4.1-4.1-4.1Z" fill="#ed1c24"/><path d="M149.95,173.61c-8.91,0-16.13,7.22-16.13,16.13s7.22,16.13,16.13,16.13,16.13-7.22,16.13-16.13-7.22-16.13-16.13-16.13Zm9.72,7.32l.59,.75c1.47,1.87,2.39,4.11,2.68,6.46l.11,.95h-8.42l-.17-.62c-.1-.36-.25-.71-.43-1.03l-.32-.56,.45-.45,4.83-4.83,.67-.67Zm-9.07-4.29l.94,.11c2.36,.29,4.59,1.21,6.47,2.68l.75,.59-.67,.67-4.83,4.83-.45,.45-.56-.32c-.32-.18-.67-.33-1.03-.43l-.62-.17v-8.42Zm-8.7,2.79c1.87-1.47,4.11-2.39,6.47-2.68l.95-.11v8.42l-.62,.17c-.36,.1-.71,.24-1.03,.43l-.56,.32-.45-.45-4.83-4.83-.67-.67,.75-.59Zm-4.93,8.72c.29-2.36,1.21-4.59,2.68-6.47l.59-.75,.67,.67,4.83,4.83,.45,.45-.32,.56c-.18,.32-.33,.67-.43,1.03l-.17,.62h-8.42l.12-.95Zm2.68,9.65c-1.47-1.87-2.39-4.11-2.68-6.47l-.11-.95h8.42l.17,.62c.1,.36,.24,.71,.43,1.03l.32,.56-.45,.45-5.5,5.5-.59-.75Zm9.66,5.04l-.95-.11c-2.36-.29-4.59-1.21-6.47-2.68l-.75-.59,.67-.67,4.83-4.83,.45-.45,.56,.32c.32,.18,.67,.33,1.03,.43l.62,.17v8.42Zm.64-10.78c-1.28,0-2.32-1.04-2.32-2.32s1.04-2.32,2.32-2.32,2.32,1.04,2.32,2.32-1.04,2.32-2.32,2.32Zm8.06,7.99c-1.87,1.47-4.11,2.39-6.47,2.68l-.94,.11v-8.42l.62-.17c.36-.1,.7-.24,1.03-.43l.56-.32,.45,.45,4.83,4.83,.67,.67-.75,.59Zm4.93-8.72c-.29,2.36-1.21,4.59-2.68,6.47l-.59,.75-5.5-5.5-.45-.45,.32-.56c.18-.32,.33-.67,.43-1.03l.17-.62h8.42l-.11,.95Z" fill="#ed1c24"/><path d="M149.95,188.26c-.82,0-1.48,.66-1.48,1.48s.66,1.48,1.48,1.48,1.47-.66,1.47-1.48-.66-1.48-1.47-1.48Z" fill="#ed1c24"/><path d="M157.48,180.1c-1.71-1.34-3.78-2.23-6.05-2.5v6.83c.43,.12,.84,.29,1.22,.51l4.83-4.83Z" fill="#ed1c24"/><path d="M148.46,184.42v-6.83c-2.27,.27-4.34,1.17-6.05,2.5l4.83,4.83c.38-.22,.79-.39,1.22-.51Z" fill="#ed1c24"/><path d="M137.8,188.25h6.83c.12-.43,.29-.84,.51-1.22l-4.83-4.83c-1.34,1.71-2.23,3.78-2.51,6.05Z" fill="#ed1c24"/><path d="M162.09,188.25c-.27-2.27-1.17-4.34-2.5-6.05l-4.83,4.83c.22,.38,.39,.79,.5,1.22h6.83Z" fill="#ed1c24"/><path d="M166.61,185.74c3.06,.11,5.41,.17,7.07,.17,.15,0,.29-.01,.44-.03,.2,.38,.59,.64,1.05,.64,.19,0,.37-.05,.53-.13,0,.01-.01,.03-.02,.05,0,.8,.65,1.45,1.45,1.45,.72,0,1.31-.51,1.43-1.19,.24,.32,.62,.53,1.05,.53,.73,0,1.32-.59,1.32-1.32,.2-.55,.36-1.84,.43-3.35,1.15-.02,2.08-.95,2.08-2.11s-.93-2.09-2.09-2.1c-.07-1.22-.2-2.32-.42-3.03,0-.73-.59-1.32-1.32-1.32-.43,0-.82,.21-1.05,.53-.12-.68-.71-1.19-1.43-1.19s-1.35,.56-1.44,1.28c-.16-.08-.33-.12-.52-.12-.64,0-1.15,.5-1.19,1.12-.1,0-.2-.01-.3-.01h-14.06c3.44,2.37,5.98,5.96,6.99,10.14Z" fill="#ed1c24"/><path d="M142.14,174.49c2.34-1.2,5-1.89,7.81-1.89,.1,0,.2,0,.3,0l2.87-5.32h-7.09l-3.89,7.2Z" fill="#ed1c24"/><path d="M172.51,191.61l-.17-.43h-5.32c-.18,2.14-.75,4.17-1.64,6.01,16.39,5.06,25.73,7.96,26.29,8.16,.47,.17,.92,.26,1.34,.26,.46,0,.77-.1,.94-.18l.48,.1c3.73-.22,8.19-4.55,8.34-4.7,.16-.16,.23-.47,.23-.47,0,0,.08-1.76-.47-1.49l-.35,.39s-.95,1.32-4.11,1.76l-.22-.07c0-.09-.03-.17-.05-.23-.19-.62-.83-.92-.95-.97h-.03l-.03-.02-23.73-7.3c-.14-.05-.41-.45-.55-.81Zm15.14,8.21l4.63,1.4c.36,.11,.56,.49,.45,.84-.11,.36-.49,.56-.85,.45l-4.63-1.4c-.36-.11-.56-.49-.45-.84,.11-.36,.49-.56,.84-.45Zm-8.95-2.71l4.63,1.4c.36,.11,.56,.48,.45,.84-.11,.36-.48,.56-.85,.45l-4.63-1.4c-.36-.11-.56-.48-.45-.84,.11-.36,.48-.56,.84-.45Zm-3.82-.51c-.11,.36-.48,.56-.84,.45l-4.63-1.4c-.36-.11-.56-.49-.45-.84,.11-.36,.49-.56,.84-.45l4.63,1.4c.36,.11,.56,.49,.45,.84Z" fill="#ed1c24"/><path d="M140.27,175.6h-31.09c-.38-.98-.93-1.59-1.53-1.59-.11,0-.21,.02-.31,.06v10.16c.1,.04,.21,.06,.31,.06,0,0,1.23-.13,1.53-1.45l16.06,1c.14,.82,.68,1.71,2,2l5.75,1.37c.71-4.81,3.43-8.98,7.28-11.62Z" fill="#ed1c24"/><path d="M122.69,193.09c0-2.27-1.84-4.1-4.1-4.1s-4.1,1.84-4.1,4.1,1.84,4.1,4.1,4.1,4.1-1.84,4.1-4.1Z" fill="#ed1c24"/><path d="M160.69,195.61c.73-1.33,1.22-2.81,1.41-4.38h-6.83c-.12,.43-.29,.84-.5,1.22l1.7,1.7,4.23,1.46Z" fill="#ed1c24"/></g><g><path d="M142.48,54.39l-7.67-20.55-.47,.27,6.32,20.29c.49-.07,1.24-.05,1.83,0Z" fill="#eab9bc" opacity=".5"/><path d="M150.57,54.46c.14,.15,.24,.25,.35,.37l-.88-29.74-.04-.02-.04,.02-.85,28.61c.46,.01,.96,.2,1.46,.76Z" fill="#eab9bc" opacity=".5"/><path d="M129.98,60.73l-17.11-14.22-.69,.4,16.58,14.87c.4-.36,.81-.71,1.22-1.05Z" fill="#eab9bc" opacity=".5"/><path d="M135.91,57.85l-12.89-17.2-.63,.36,12.26,18.04c.29-.29,.73-.71,1.27-1.21Z" fill="#eab9bc" opacity=".5"/><polygon points="126.05 64.52 103.34 52.01 102.64 52.41 125.07 65.69 126.05 64.52" fill="#eab9bc" opacity=".5"/><path d="M106.8,79.84l-46.96,1.94v.04l43.23-.85c1.37-.35,2.69-.71,3.73-1.12Z" fill="#eab9bc" opacity=".5"/><polygon points="118.26 71.33 82.8 63.87 82.22 64.2 116.51 72.25 118.26 71.33" fill="#eab9bc" opacity=".5"/><path d="M90.4,88.66c.37-.25,.72-.49,.98-.71,.05-.04,.12-.11,.17-.16l-30.72,5.13,29.57-4.26Z" fill="#eab9bc" opacity=".5"/><path d="M113.18,75.07l-43.66-3.54-.34,.2,42.79,4.41c.41-.36,.82-.72,1.2-1.07Z" fill="#eab9bc" opacity=".5"/><path d="M208.42,81.09s.08,.04,.2,.11l31.53,.62v-.04l-32.97-1.36c.74,.39,1.24,.66,1.24,.66Z" fill="#eab9bc" opacity=".5"/><path d="M198.91,75.01l31.91-3.29-.34-.2-32.42,2.63c.3,.29,.59,.58,.86,.85Z" fill="#eab9bc" opacity=".5"/><path d="M190.73,70.55l27.05-6.35-.58-.33-28.18,5.93c.57,.26,1.15,.52,1.71,.75Z" fill="#eab9bc" opacity=".5"/><path d="M183.57,67.15l23.48-9.15-.67-.39-24.42,8.79c.78,.36,1.37,.64,1.61,.75Z" fill="#eab9bc" opacity=".5"/><path d="M156.93,57.37c.54-.02,1.28-.92,1.86-1.17l6.88-22.09-.47-.27-8.74,23.41c.17,.08,.34,.13,.47,.12Z" fill="#eab9bc" opacity=".5"/><path d="M233.83,92.03c.09,.05,.18,.11,.28,.16l5.07,.73-5.34-.89Z" fill="#eab9bc" opacity=".5"/><path d="M165.77,58.38h.04l11.81-17.37-.63-.36-12.94,17.26c.88,.25,1.73,.47,1.73,.47Z" fill="#eab9bc" opacity=".5"/><path d="M170.76,61.41c.15,.1,.36,.2,.55,.31l16.51-14.81-.69-.4-17.16,14.26c.31,.27,.6,.51,.79,.64Z" fill="#eab9bc" opacity=".5"/><path d="M177.3,64.28l20.06-11.87-.7-.41-20.99,11.57c.4,.16,.97,.41,1.63,.71Z" fill="#eab9bc" opacity=".5"/><polygon points="122.98 68.18 93.62 57.62 92.95 58.01 122.02 69.33 122.98 68.18" fill="#eab9bc" opacity=".5"/><polygon points="91.13 92.89 83.87 93.63 79.77 95.92 85.45 94.4 91.13 92.89" fill="#eab9bc"/><path d="M85.3,98.82l-2.69-.63,5.37,1.26h3.28s-2.47-.11-3.28-.2c-.69-.08-2.69-.43-2.69-.43Z" fill="#eab9bc"/><path d="M111.1,100.45c-1.02,.54-4.13,1.03-6.88,1.38l7.99-.87-1.44-1.69c.26,.38,.47,.83,.33,1.18Z" fill="#eab9bc"/><path d="M104.22,101.83c2.75-.35,5.86-.84,6.88-1.38,.14-.35-.07-.8-.33-1.18l-.71-.83-2.14-2.52,.76-1.51,.76-1.51-3.36,3.03,2.86,3.13-12.57,1.92,3.77-3.84h-10.75l-6.76,1.06,2.69,.63s2,.35,2.69,.43c.81,.09,3.28,.2,3.28,.2h3.28l-3.94,2.14-3.94,2.14,17.55-1.91Z" fill="#eab9bc"/><path d="M97.74,89.79l1.1,.63,2.55-2.25c-.97,.79-2.02,1.56-2.77,1.85-.23,.02-.56-.09-.88-.24Z" fill="#eab9bc"/><polygon points="96.69 89.18 94.55 87.95 96.7 89.18 96.69 89.18" fill="#eab9bc"/><polygon points="103.88 85.98 103.88 85.98 108.93 81.54 103.88 85.98" fill="#eab9bc"/><path d="M96.69,89.18h0l1.05,.6c.32,.15,.65,.26,.88,.24,.75-.29,1.8-1.06,2.77-1.85l2.49-2.19h0l5.05-4.44-9.36,5.55-5.02,.86,2.14,1.24Z" fill="#eab9bc"/><path d="M106.07,87.09l4.88-.56h-.04l-4.84,.56Z" fill="#eab9bc"/><path d="M115.81,85.61c-.97,.44-3.99,.81-4.74,.9l4.67-.54,2.13-1.94c-.5,.45-1.51,1.33-2.06,1.58Z" fill="#eab9bc"/><polygon points="136.65 66.46 136.65 66.46 135.16 63.38 136.65 66.46" fill="#eab9bc"/><path d="M127.24,79.8c-.77,.36-3.3,1.03-3.3,1.03l-3.32,.7,6.64-1.41,2.57-2.07s-1.84,1.39-2.58,1.74Z" fill="#eab9bc"/><polygon points="118.18 83.76 118.17 83.76 120.62 81.54 118.18 83.76" fill="#eab9bc"/><path d="M136.56,71.3l1.57-1.77-1.05-2.17c.31,.68,.65,1.58,.58,2.06-.07,.49-.58,1.22-1.11,1.88Z" fill="#eab9bc"/><path d="M131.95,74.71l-5.52,4.07h-6.18l-4.54,4.92-9.64,3.4,4.84-.55h.04l.13-.02c.75-.09,3.77-.46,4.74-.9,.55-.25,1.56-1.12,2.06-1.58l.3-.28h0l2.44-2.22,3.32-.7s2.54-.67,3.3-1.03c.74-.35,2.58-1.74,2.58-1.74l2.57-2.07,4.17-4.68c.53-.66,1.04-1.39,1.11-1.88,.07-.48-.27-1.38-.58-2.06l-.44-.91h0l-1.48-3.08-3.21,11.33Z" fill="#eab9bc"/><path d="M152.2,99.15c-.9-.18-2.7-1.21-2.71-1.21l3.07,2.02,8.06-1.5c-2.73,.47-6.73,1.04-8.43,.69Z" fill="#eab9bc"/><path d="M167.09,90.42s.31,1.98,.73,2.47l-1.46-4.94,.73,2.47Z" fill="#eab9bc"/><path d="M114.11,94.74c-.25-.25-.35-.67-.38-1.05v2.23h5.85c-1.97-.06-4.6-.31-5.47-1.18Z" fill="#eab9bc"/><path d="M171.04,94.4l3.22,1.51-6.44-3.03c.58,.67,3.22,1.51,3.22,1.51Z" fill="#eab9bc"/><path d="M174.26,95.92l-3.22-1.51s-2.64-.84-3.22-1.51c-.42-.49-.73-2.47-.73-2.47l-.73-2.47-1.99,5.82-10.22,3.84-7.57-7.18-28.19,3.2-4.67-3.7v3.76c.03,.37,.13,.8,.38,1.05,.87,.87,3.49,1.12,5.47,1.18h26.85l3.08,2.02s1.8,1.03,2.71,1.21c1.7,.34,5.7-.23,8.43-.69l13.64-2.54Z" fill="#eab9bc"/><polygon points="175.17 69.26 176.07 72.87 174.26 65.65 175.17 69.26" fill="#eab9bc"/><polygon points="147.65 67.1 151.06 64.39 150.24 64.61 144.24 69.81 147.65 67.1" fill="#eab9bc"/><polygon points="172.42 71.34 168.76 69.81 176.07 72.87 172.42 71.34" fill="#eab9bc"/><path d="M140.82,66.57c-.36-.15-.78-.61-1.15-1.12l1.04,1.71,2.28-.63c-.86,.16-1.7,.23-2.17,.04Z" fill="#eab9bc"/><path d="M141.24,72.72l-1.28,1.25,1.09,1.94c-.16-.29-.75-1.38-.68-1.88,.05-.36,.46-.88,.87-1.31Z" fill="#eab9bc"/><polygon points="162 67.73 161.23 65.65 162.76 69.81 162 67.73" fill="#eab9bc"/><path d="M141.09,75.99v-.02l1.14,2.03,3.28,1c-1.11-.41-2.13-.87-2.68-1.31-.45-.36-1.73-1.71-1.73-1.71Z" fill="#eab9bc"/><path d="M142.1,71.89l-.86,.83c-.41,.44-.82,.95-.87,1.31-.07,.49,.51,1.58,.68,1.88l.03,.06v.02s1.29,1.34,1.74,1.71c.55,.44,1.57,.9,2.68,1.31l13.11,4-3.66-2.63-3.66-2.63,4.96-6.05,4.96-6.05,.77,2.08,.77,2.08h6l3.65,1.53,3.65,1.53-.91-3.61-.9-3.61v5.28l-4.7-3.88-4.72,1.04-3.41-4.16-15.1,13.34,.67-5.56,9.24-8.91-13.54,1.32-6.28-4.01,3.25,5.35c.37,.51,.78,.97,1.15,1.12,.47,.19,1.31,.12,2.17-.04l7.38-2.04-.13,.12,.82-.22-3.41,2.71-3.41,2.71-2.14,2.08Z" fill="#eab9bc"/><path d="M188.79,84.16c-.11,.18-.22,.58-.22,.58l-.83,.2,1.66-.39-.61-2.08c.14,.65,.21,1.33,0,1.69Z" fill="#eab9bc"/><path d="M174.6,83.57l1.48,2.02h2.01s-1.37-.05-1.82-.27c-.56-.28-1.65-1.73-1.66-1.75Z" fill="#eab9bc"/><polygon points="188.33 80.9 188.33 80.9 187.25 77.25 188.33 80.9" fill="#eab9bc"/><path d="M185.9,80.38l-6.41,2.63-9.92-7.77,1.77,3.15,1.77,3.15,1.48,2.03s1.11,1.47,1.66,1.75c.45,.23,1.82,.27,1.82,.27h2.01l7.65-.65,.83-.2s.11-.39,.22-.58c.21-.36,.14-1.05,0-1.69l-.46-1.57h0l-1.08-3.65-1.35,3.12Z" fill="#eab9bc"/><path d="M190.68,78.98l1.24,2.56h2.5c-.81-.03-1.79-.12-2.22-.39-.5-.31-1.11-1.38-1.52-2.18Z" fill="#eab9bc"/><polygon points="185.51 72.76 188.56 74.6 185.51 72.76 185.51 72.76" fill="#eab9bc"/><path d="M199.54,81.33c-.31,.12-.89,.18-1.49,.21h1.44l.77-.7h0s-.47,.4-.72,.49Z" fill="#eab9bc"/><path d="M200.39,80.71l.64-.58h-.22c-.02,.18-.26,.43-.42,.58Z" fill="#eab9bc"/><path d="M193.51,80.13l-2.18-4.9-5.83-2.48,3.05,1.84,2.12,4.37c.41,.79,1.02,1.87,1.52,2.18,.43,.27,1.4,.36,2.22,.39h3.63c.61-.03,1.18-.09,1.49-.21,.24-.09,.72-.49,.72-.49h0l.13-.12c.16-.15,.4-.4,.42-.58h-7.3Z" fill="#eab9bc"/><path d="M195.05,84.65l-.29-.19v1.74s.03-1.15,.29-1.55Z" fill="#eab9bc"/><polygon points="209.66 87.95 218.43 92.89 214.04 90.42 209.66 87.95" fill="#eab9bc"/><path d="M215.77,95.71l3.9,2.61,1.89-.51s-1.56-.08-2.04-.16c-1.04-.17-3.17-1.56-3.75-1.94Z" fill="#eab9bc"/><path d="M194.76,86.2v1.74h6.28c-1.67-.02-4.7-.17-5.94-.88-.38-.22-.35-.87-.35-.87Z" fill="#eab9bc"/><path d="M221.47,93.44l-9.84-6.35-4.62-.62-9.12,.03-2.84-1.85c-.26,.4-.29,1.55-.29,1.55,0,0-.03,.65,.35,.87,1.24,.71,4.26,.85,5.94,.88h8.61l4.39,2.47,4.39,2.47h-6.88l4.06,2.71,.15,.1c.58,.38,2.71,1.77,3.75,1.94,.48,.08,2.04,.16,2.04,.16l1.89-.51-7.27-2.81,5.3-1.05Z" fill="#eab9bc"/></g></svg>
