<svg viewBox="0 0 1200 1200" xmlns="http://www.w3.org/2000/svg"><path d="m280.91 458.39c.8-13.69 17.74-53.17 17.74-53.17 3.41 7.47 51.29-2.75 51.29-2.75s-66.93-50.53-67.58-124.2h-3.39c-.73 73.67-67.53 124.2-67.53 124.2s47.6 10.22 51.15 2.75c0 0 16.94 39.48 17.75 53.17zm54.69-207.17c-13.48 0-24.33 10.9-24.33 24.3 0 13.44 10.85 24.34 24.33 24.34 13.4 0 24.34-10.89 24.34-24.34 0-13.4-10.94-24.3-24.34-24.3zm-111.26 0c-13.4 0-24.34 10.9-24.34 24.3 0 13.44 10.94 24.34 24.34 24.34 13.47 0 24.26-10.89 24.26-24.34 0-13.4-10.79-24.3-24.26-24.3zm80.33-26.88c0 13.44-10.94 24.34-24.33 24.34-13.47 0-24.34-10.9-24.34-24.34 0-13.34 10.88-24.34 24.34-24.34 13.39 0 24.33 11.01 24.33 24.34z" fill="#d91f26"/><path d="m880.91 1058.39c.8-13.69 17.74-53.17 17.74-53.17 3.41 7.47 51.29-2.75 51.29-2.75s-66.93-50.53-67.58-124.2h-3.39c-.73 73.67-67.53 124.2-67.53 124.2s47.6 10.22 51.15 2.75c0 0 16.94 39.48 17.75 53.17zm54.69-207.17c-13.48 0-24.33 10.9-24.33 24.3 0 13.44 10.85 24.34 24.33 24.34 13.4 0 24.34-10.89 24.34-24.34 0-13.4-10.94-24.3-24.34-24.3zm-111.26 0c-13.4 0-24.34 10.9-24.34 24.3 0 13.44 10.94 24.34 24.34 24.34 13.47 0 24.26-10.89 24.26-24.34 0-13.4-10.79-24.3-24.26-24.3zm80.33-26.88c0 13.44-10.94 24.34-24.33 24.34-13.47 0-24.34-10.9-24.34-24.34 0-13.34 10.88-24.34 24.34-24.34 13.39 0 24.33 11.01 24.33 24.34z" fill="#d91f26"/><path d="m0 0h1200v1200h-1200z" fill="none"/></svg>