<svg xmlns="http://www.w3.org/2000/svg" viewBox="0 0 288 288">
<defs><clipPath id="a"><path fill="none" d="M0 0h288v288H0z"/></clipPath></defs>
<path fill="#233959" d="M0 0h288v288H0z"/><g clip-path="url(#a)"><g fill="#284266"><path d="M102.9 69.4 117 37.6l6.4 5.7 9-25 4.2 3.3 7.4-49-14.1 31.8-6.5-5.7-8.9 24.9-4.2-3.2-7.4 49zM185.1 69.4 171 37.6l-6.4 5.7-9-25-4.2 3.3-7.4-49 14.1 31.8 6.5-5.7 8.9 24.9 4.2-3.2 7.4 49zM102.9 114 117 82.2l6.4 5.6 9-24.9 4.2 3.3 7.4-49.1-14.1 31.8-6.5-5.6-8.9 24.9-4.2-3.3-7.4 49.1zM185.1 114 171 82.2l-6.4 5.6-9-24.9-4.2 3.3-7.4-49.1 14.1 31.8 6.5-5.6 8.9 24.9 4.2-3.3 7.4 49.1z"/><path d="m102.9 158.6 14.1-31.9 6.4 5.7 9-24.9 4.2 3.3 7.4-49.1-14.1 31.8-6.5-5.7-8.9 25-4.2-3.3-7.4 49.1zM185.1 158.6 171 126.7l-6.4 5.7-9-24.9-4.2 3.3-7.4-49.1 14.1 31.8 6.5-5.7 8.9 25 4.2-3.3 7.4 49.1zM102.9 203.1l14.1-31.8 6.4 5.7 9-25 4.2 3.3 7.4-49-14.1 31.8-6.5-5.7-8.9 24.9-4.2-3.2-7.4 49zM185.1 203.1 171 171.3l-6.4 5.7-9-25-4.2 3.3-7.4-49 14.1 31.8 6.5-5.7 8.9 24.9 4.2-3.2 7.4 49zM102.9 247.7l14.1-31.8 6.4 5.6 9-24.9 4.2 3.3 7.4-49.1-14.1 31.8-6.5-5.6-8.9 24.9-4.2-3.3-7.4 49.1zM185.1 247.7 171 215.9l-6.4 5.6-9-24.9-4.2 3.3-7.4-49.1 14.1 31.8 6.5-5.6 8.9 24.9 4.2-3.3 7.4 49.1zM102.9 292.2l14.1-31.8 6.4 5.7 9-24.9 4.2 3.2 7.4-49-14.1 31.8-6.5-5.7-8.9 25-4.2-3.3-7.4 49z"/><path d="M185.1 292.2 171 260.4l-6.4 5.7-9-24.9-4.2 3.2-7.4-49 14.1 31.8 6.5-5.7 8.9 25 4.2-3.3 7.4 49zM61.8 166.3l14.1-31.8 6.4 5.6 9-24.9 4.2 3.3 7.4-49.1-14.1 31.8-6.5-5.6-9 24.9-4.1-3.3-7.4 49.1z"/><path d="m61.8 121.7 14.1-31.8 6.4 5.7 9-25 4.2 3.3 7.4-49-14.1 31.8-6.5-5.7-9 24.9-4.1-3.2-7.4 49zM61.8 77.2l14.1-31.9 6.4 5.7 9-24.9 4.2 3.3 7.4-49.1-14.1 31.8-6.5-5.7-9 25-4.1-3.3-7.4 49.1zM61.8 210.8 75.9 179l6.4 5.7 9-24.9 4.2 3.3 7.4-49.1-14.1 31.8-6.5-5.7-9 25-4.1-3.3-7.4 49zM61.8 255.4l14.1-31.8 6.4 5.7 9-25 4.2 3.3 7.4-49-14.1 31.8-6.5-5.7-9 24.9-4.1-3.3-7.4 49.1zM61.8 300l14.1-31.8 6.4 5.6 9-24.9 4.2 3.3 7.4-49.1-14.1 31.8-6.5-5.6-9 24.9-4.1-3.3-7.4 49.1zM102.9 24.9 117-7l6.4 5.7 9-24.9 4.2 3.3L144-72l-14.1 31.8-6.5-5.7-8.9 25-4.2-3.3-7.4 49.1zM185.1 24.9 171-7l-6.4 5.7-9-24.9-4.2 3.3L144-72l14.1 31.8 6.5-5.7 8.9 25 4.2-3.3 7.4 49.1zM61.8 32.6 75.9.8l6.4 5.6 9-24.9 4.2 3.3 7.4-49.1-14.1 31.8-6.5-5.6-9 24.9-4.1-3.3-7.4 49.1zM226.2 166.3l-14.1-31.8-6.4 5.6-9-24.9-4.2 3.3-7.4-49.1 14.1 31.8 6.5-5.6 9 24.9 4.1-3.3 7.4 49.1z"/><path d="m226.2 121.7-14.1-31.8-6.4 5.7-9-25-4.2 3.3-7.4-49 14.1 31.8 6.5-5.7 9 24.9 4.1-3.2 7.4 49z"/><path d="m226.2 77.2-14.1-31.9-6.4 5.7-9-24.9-4.2 3.3-7.4-49.1 14.1 31.8 6.5-5.7 9 25 4.1-3.3 7.4 49.1zM226.2 210.8 212.1 179l-6.4 5.7-9-24.9-4.2 3.3-7.4-49.1 14.1 31.8 6.5-5.7 9 25 4.1-3.3 7.4 49zM226.2 255.4l-14.1-31.8-6.4 5.7-9-25-4.2 3.3-7.4-49 14.1 31.8 6.5-5.7 9 24.9 4.1-3.3 7.4 49.1zM226.2 300l-14.1-31.8-6.4 5.6-9-24.9-4.2 3.3-7.4-49.1 14.1 31.8 6.5-5.6 9 24.9 4.1-3.3 7.4 49.1zM226.2 32.6 212.1.8l-6.4 5.6-9-24.9-4.2 3.3-7.4-49.1 14.1 31.8 6.5-5.6 9 24.9 4.1-3.3 7.4 49.1zM267.3 174l-14-31.8-6.5 5.7-9-25-4.1 3.3-7.5-49 14.1 31.8 6.5-5.7 9 24.9 4.1-3.3 7.4 49.1z"/><path d="m267.3 129.4-14-31.8-6.5 5.7-9-24.9-4.1 3.3-7.5-49.1 14.1 31.8 6.5-5.7 9 25 4.1-3.3 7.4 49z"/><path d="m267.3 84.9-14-31.8-6.5 5.6-9-24.9-4.1 3.3-7.5-49.1 14.1 31.8 6.5-5.6 9 24.9 4.1-3.3 7.4 49.1zM267.3 218.6l-14-31.8-6.5 5.6-9-24.9-4.1 3.3-7.5-49.1 14.1 31.8 6.5-5.6 9 24.9 4.1-3.3 7.4 49.1zM267.3 263.1l-14-31.8-6.5 5.7-9-24.9-4.1 3.2-7.5-49 14.1 31.8 6.5-5.7 9 25 4.1-3.3 7.4 49zM267.3 307.7l-14-31.8-6.5 5.7-9-25-4.1 3.3-7.5-49.1 14.1 31.9 6.5-5.7 9 24.9 4.1-3.3 7.4 49.1zM267.3 40.3l-14-31.8-6.5 5.7-9-25-4.1 3.3-7.5-49 14.1 31.8 6.5-5.7 9 24.9 4.1-3.2 7.4 49zM20.7 174l14-31.8 6.5 5.7 9-25 4.1 3.3 7.5-49L47.7 109l-6.5-5.7-9 24.9-4.1-3.3-7.4 49.1z"/><path d="m20.7 129.4 14-31.8 6.5 5.7 9-24.9 4.1 3.3 7.5-49.1-14.1 31.8-6.5-5.7-9 25-4.1-3.3-7.4 49z"/><path d="m20.7 84.9 14-31.8 6.5 5.6 9-24.9 4.1 3.3L61.8-12 47.7 19.8l-6.5-5.6-9 24.9-4.1-3.3-7.4 49.1zM20.7 218.6l14-31.8 6.5 5.6 9-24.9 4.1 3.3 7.5-49.1-14.1 31.8-6.5-5.6-9 24.9-4.1-3.3-7.4 49.1zM20.7 263.1l14-31.8 6.5 5.7 9-24.9 4.1 3.2 7.5-49-14.1 31.8-6.5-5.7-9 25-4.1-3.3-7.4 49zM20.7 307.7l14-31.8 6.5 5.7 9-25 4.1 3.3 7.5-49.1-14.1 31.9-6.5-5.7-9 24.9-4.1-3.3-7.4 49.1zM20.7 40.3l14-31.8 6.5 5.7 9-25 4.1 3.3 7.5-49-14.1 31.8-6.5-5.7-9 24.9-4.1-3.2-7.4 49zM-20.5 181.7l14.1-31.8 6.5 5.7 9-24.9 4.1 3.2 7.5-49-14.1 31.8L.1 111l-9 25-4.1-3.3-7.5 49z"/><path d="m-20.5 137.2 14.1-31.8L.1 111l9-24.9 4.1 3.3 7.5-49.1L6.6 72.1.1 66.5l-9 24.9-4.1-3.3-7.5 49.1zM-20.5 92.6l14.1-31.8 6.5 5.7 9-25 4.1 3.3 7.5-49L6.6 27.6.1 21.9l-9 24.9-4.1-3.2-7.5 49zM-20.5 226.3l14.1-31.8 6.5 5.7 9-25 4.1 3.3 7.5-49.1-14.1 31.9-6.5-5.7-9 24.9-4.1-3.3-7.5 49.1zM-20.5 270.9l14.1-31.8 6.5 5.6 9-24.9 4.1 3.3 7.5-49.1-14.1 31.8-6.5-5.6-9 24.9-4.1-3.3-7.5 49.1zM-20.5 315.4l14.1-31.8 6.5 5.7 9-24.9 4.1 3.2 7.5-49-14.1 31.8-6.5-5.7-9 25-4.1-3.3-7.5 49z"/><path d="m-20.5 48.1 14.1-31.9 6.5 5.7L9.1-3 13.2.3l7.5-49.1L6.6-17 .1-22.7l-9 25L-13-1l-7.5 49.1zM308.5 181.7l-14.1-31.8-6.5 5.7-9-24.9-4.1 3.2-7.5-49 14.1 31.8 6.5-5.7 9 25 4.1-3.3 7.5 49z"/><path d="m308.5 137.2-14.1-31.8-6.5 5.6-9-24.9-4.1 3.3-7.5-49.1 14.1 31.8 6.5-5.6 9 24.9 4.1-3.3 7.5 49.1zM308.5 92.6l-14.1-31.8-6.5 5.7-9-25-4.1 3.3-7.5-49 14.1 31.8 6.5-5.7 9 24.9 4.1-3.2 7.5 49zM308.5 226.3l-14.1-31.8-6.5 5.7-9-25-4.1 3.3-7.5-49.1 14.1 31.9 6.5-5.7 9 24.9 4.1-3.3 7.5 49.1zM308.5 270.9l-14.1-31.8-6.5 5.6-9-24.9-4.1 3.3-7.5-49.1 14.1 31.8 6.5-5.6 9 24.9 4.1-3.3 7.5 49.1zM308.5 315.4l-14.1-31.8-6.5 5.7-9-24.9-4.1 3.2-7.5-49 14.1 31.8 6.5-5.7 9 25 4.1-3.3 7.5 49z"/><path d="m308.5 48.1-14.1-31.9-6.5 5.7-9-24.9-4.1 3.3-7.5-49.1L281.4-17l6.5-5.7 9 25L301-1l7.5 49.1zM102.9 336.8 117 305l6.4 5.7 9-25 4.2 3.3 7.4-49.1-14.1 31.9-6.5-5.7-8.9 24.9-4.2-3.3-7.4 49.1zM185.1 336.8 171 305l-6.4 5.7-9-25-4.2 3.3-7.4-49.1 14.1 31.9 6.5-5.7 8.9 24.9 4.2-3.3 7.4 49.1zM61.8 344.5l14.1-31.8 6.4 5.7 9-24.9 4.2 3.2 7.4-49-14.1 31.8-6.5-5.7-9 25-4.1-3.3-7.4 49zM226.2 344.5l-14.1-31.8-6.4 5.7-9-24.9-4.2 3.2-7.4-49 14.1 31.8 6.5-5.7 9 25 4.1-3.3 7.4 49zM267.3 352.3l-14-31.8-6.5 5.6-9-24.9-4.1 3.3-7.5-49.1 14.1 31.8 6.5-5.6 9 24.9 4.1-3.3 7.4 49.1zM20.7 352.3l14-31.8 6.5 5.6 9-24.9 4.1 3.3 7.5-49.1-14.1 31.8-6.5-5.6-9 24.9-4.1-3.3-7.4 49.1zM-20.5 360l14.1-31.8 6.5 5.7 9-25 4.1 3.3 7.5-49.1L6.6 295l-6.5-5.7-9 24.9-4.1-3.3-7.5 49.1zM308.5 360l-14.1-31.8-6.5 5.7-9-25-4.1 3.3-7.5-49.1 14.1 31.9 6.5-5.7 9 24.9 4.1-3.3 7.5 49.1z"/></g><g fill="#2e4b73"><path d="M102.9 69.4 117.7 40l5.7 3.3 3-38.3 5.1 3L144-27.4 129.2 2l-5.8-3.3-2.9 38.3-5.1-3-12.5 35.4zM185.1 69.4 170.3 40l-5.7 3.3-3-38.3-5.1 3L144-27.4 158.8 2l5.8-3.3 2.9 38.3 5.1-3 12.5 35.4z"/><path d="m102.9 114 14.8-29.4 5.7 3.2 3-38.3 5.1 3.1L144 17.1l-14.8 29.4-5.8-3.2-2.9 38.3-5.1-3.1-12.5 35.5zM185.1 114l-14.8-29.4-5.7 3.2-3-38.3-5.1 3.1L144 17.1l14.8 29.4 5.8-3.2 2.9 38.3 5.1-3.1 12.5 35.5z"/><path d="m102.9 158.6 14.8-29.4 5.7 3.2 3-38.3 5.1 3.1L144 61.7l-14.8 29.4-5.8-3.3-2.9 38.4-5.1-3.1-12.5 35.5zM185.1 158.6l-14.8-29.4-5.7 3.2-3-38.3-5.1 3.1L144 61.7l14.8 29.4 5.8-3.3 2.9 38.4 5.1-3.1 12.5 35.5z"/><path d="m102.9 203.1 14.8-29.4 5.7 3.3 3-38.3 5.1 3 12.5-35.4-14.8 29.4-5.8-3.3-2.9 38.3-5.1-3.1-12.5 35.5zM185.1 203.1l-14.8-29.4-5.7 3.3-3-38.3-5.1 3-12.5-35.4 14.8 29.4 5.8-3.3 2.9 38.3 5.1-3.1 12.5 35.5z"/><path d="m102.9 247.7 14.8-29.4 5.7 3.2 3-38.3 5.1 3.1 12.5-35.5-14.8 29.4-5.8-3.2-2.9 38.3-5.1-3.1-12.5 35.5zM185.1 247.7l-14.8-29.4-5.7 3.2-3-38.3-5.1 3.1-12.5-35.5 14.8 29.4 5.8-3.2 2.9 38.3 5.1-3.1 12.5 35.5zM102.9 292.2l14.8-29.4 5.7 3.3 3-38.3 5.1 3 12.5-35.4-14.8 29.4-5.8-3.3-2.9 38.3-5.1-3-12.5 35.4z"/><path d="m185.1 292.2-14.8-29.4-5.7 3.3-3-38.3-5.1 3-12.5-35.4 14.8 29.4 5.8-3.3 2.9 38.3 5.1-3 12.5 35.4zM61.8 166.3l14.8-29.4 5.7 3.2 3-38.3 5.1 3.1 12.5-35.5-14.8 29.4-5.8-3.2-2.9 38.3-5.1-3.1-12.5 35.5z"/><path d="m61.8 121.7 14.8-29.4 5.7 3.3 3-38.3 5.1 3 12.5-35.4-14.8 29.4-5.8-3.3-2.9 38.3-5.1-3-12.5 35.4zM61.8 77.2l14.8-29.4 5.7 3.2 3-38.3 5.1 3.1 12.5-35.5L88.1 9.7l-5.8-3.3-2.9 38.4-5.1-3.1-12.5 35.5zM61.8 210.8l14.8-29.4 5.7 3.3 3-38.3 5.1 3.1 12.5-35.5-14.8 29.4-5.8-3.3-2.9 38.3-5.1-3-12.5 35.4zM61.8 255.4 76.6 226l5.7 3.3 3-38.4 5.1 3.1 12.5-35.4-14.8 29.3-5.8-3.2-2.9 38.3-5.1-3.1-12.5 35.5zM61.8 300l14.8-29.4 5.7 3.2 3-38.3 5.1 3.1 12.5-35.5-14.8 29.4-5.8-3.2-2.9 38.3-5.1-3.1L61.8 300zM102.9 24.9l14.8-29.4 5.7 3.2 3-38.3 5.1 3.1L144-72l-14.8 29.4-5.8-3.3-2.9 38.4-5.1-3.1-12.5 35.5zM185.1 24.9 170.3-4.5l-5.7 3.2-3-38.3-5.1 3.1L144-72l14.8 29.4 5.8-3.3 2.9 38.4 5.1-3.1 12.5 35.5z"/><path d="M61.8 32.6 76.6 3.2l5.7 3.2 3-38.3 5.1 3.1 12.5-35.5-14.8 29.4-5.8-3.2L79.4.2l-5.1-3.1-12.5 35.5zM226.2 166.3l-14.8-29.4-5.7 3.2-3-38.3-5.1 3.1-12.5-35.5 14.8 29.4 5.8-3.2 2.9 38.3 5.1-3.1 12.5 35.5z"/><path d="m226.2 121.7-14.8-29.4-5.7 3.3-3-38.3-5.1 3-12.5-35.4 14.8 29.4 5.8-3.3 2.9 38.3 5.1-3 12.5 35.4z"/><path d="m226.2 77.2-14.8-29.4-5.7 3.2-3-38.3-5.1 3.1-12.5-35.5 14.8 29.4 5.8-3.3 2.9 38.4 5.1-3.1 12.5 35.5zM226.2 210.8l-14.8-29.4-5.7 3.3-3-38.3-5.1 3.1-12.5-35.5 14.8 29.4 5.8-3.3 2.9 38.3 5.1-3 12.5 35.4z"/><path d="M226.2 255.4 211.4 226l-5.7 3.3-3-38.4-5.1 3.1-12.5-35.4 14.8 29.3 5.8-3.2 2.9 38.3 5.1-3.1 12.5 35.5zM226.2 300l-14.8-29.4-5.7 3.2-3-38.3-5.1 3.1-12.5-35.5 14.8 29.4 5.8-3.2 2.9 38.3 5.1-3.1 12.5 35.5zM226.2 32.6 211.4 3.2l-5.7 3.2-3-38.3-5.1 3.1-12.5-35.5 14.8 29.4 5.8-3.2L208.6.2l5.1-3.1 12.5 35.5zM267.3 174l-14.8-29.4-5.7 3.3-2.9-38.3-5.2 3-12.5-35.4 14.9 29.4 5.7-3.3 2.9 38.3 5.1-3.1 12.5 35.5zM267.3 129.4l-14.8-29.3-5.7 3.2-2.9-38.3-5.2 3.1-12.5-35.5L241.1 62l5.7-3.3 2.9 38.4 5.1-3.1 12.5 35.4zM267.3 84.9l-14.8-29.4-5.7 3.2-2.9-38.3-5.2 3.1L226.2-12l14.9 29.4 5.7-3.2 2.9 38.3 5.1-3.1 12.5 35.5z"/><path d="m267.3 218.6-14.8-29.4-5.7 3.2-2.9-38.3-5.2 3.1-12.5-35.5 14.9 29.4 5.7-3.2 2.9 38.3 5.1-3.1 12.5 35.5zM267.3 263.1l-14.8-29.4-5.7 3.3-2.9-38.3-5.2 3-12.5-35.4 14.9 29.4 5.7-3.3 2.9 38.3 5.1-3 12.5 35.4zM267.3 307.7l-14.8-29.4-5.7 3.3-2.9-38.4-5.2 3.1-12.5-35.5 14.9 29.4 5.7-3.2 2.9 38.3 5.1-3.1 12.5 35.5zM267.3 40.3l-14.8-29.4-5.7 3.3-2.9-38.3-5.2 3-12.5-35.4 14.9 29.4 5.7-3.3 2.9 38.3 5.1-3 12.5 35.4zM20.7 174l14.8-29.4 5.7 3.3 2.9-38.3 5.2 3 12.5-35.4-14.9 29.4-5.7-3.3-2.9 38.3-5.1-3.1L20.7 174zM20.7 129.4l14.8-29.3 5.7 3.2L44.1 65l5.2 3.1 12.5-35.5L46.9 62l-5.7-3.3-2.9 38.4-5.1-3.1-12.5 35.4z"/><path d="m20.7 84.9 14.8-29.4 5.7 3.2 2.9-38.3 5.2 3.1L61.8-12 46.9 17.4l-5.7-3.2-2.9 38.3-5.1-3.1-12.5 35.5zM20.7 218.6l14.8-29.4 5.7 3.2 2.9-38.3 5.2 3.1 12.5-35.5-14.9 29.4-5.7-3.2-2.9 38.3-5.1-3.1-12.5 35.5zM20.7 263.1l14.8-29.4 5.7 3.3 2.9-38.3 5.2 3 12.5-35.4-14.9 29.4-5.7-3.3-2.9 38.3-5.1-3-12.5 35.4zM20.7 307.7l14.8-29.4 5.7 3.3 2.9-38.4 5.2 3.1 12.5-35.5-14.9 29.4-5.7-3.2-2.9 38.3-5.1-3.1-12.5 35.5z"/><path d="m20.7 40.3 14.8-29.4 5.7 3.3 2.9-38.3 5.2 3 12.5-35.4-14.9 29.4-5.7-3.3-2.9 38.3-5.1-3-12.5 35.4zM-20.5 181.7l14.9-29.4 5.7 3.3L3 117.3l5.1 3.1 12.6-35.5-14.9 29.4L.1 111l-2.9 38.3-5.1-3-12.6 35.4zM-20.5 137.2l14.9-29.4L.1 111 3 72.7l5.1 3.1 12.6-35.5L5.8 69.7.1 66.5l-2.9 38.3-5.1-3.1-12.6 35.5z"/><path d="m-20.5 92.6 14.9-29.4 5.7 3.3L3 28.2l5.1 3L20.7-4.2 5.8 25.2.1 21.9l-2.9 38.3-5.1-3-12.6 35.4zM-20.5 226.3l14.9-29.4 5.7 3.3L3 161.8l5.1 3.1 12.6-35.5-14.9 29.4-5.7-3.2-2.9 38.3-5.1-3.1-12.6 35.5z"/><path d="m-20.5 270.9 14.9-29.4 5.7 3.2L3 206.4l5.1 3.1L20.7 174 5.8 203.4l-5.7-3.2-2.9 38.3-5.1-3.1-12.6 35.5zM-20.5 315.4-5.6 286l5.7 3.3L3 251l5.1 3 12.6-35.4L5.8 248l-5.7-3.3-2.9 38.3-5.1-3-12.6 35.4zM-20.5 48.1l14.9-29.4 5.7 3.2L3-16.4l5.1 3.1 12.6-35.5L5.8-19.4.1-22.7l-2.9 38.4-5.1-3.1-12.6 35.5zM308.5 181.7l-14.9-29.4-5.7 3.3-2.9-38.3-5.1 3.1-12.6-35.5 14.9 29.4 5.7-3.3 2.9 38.3 5.1-3 12.6 35.4zM308.5 137.2l-14.9-29.4-5.7 3.2-2.9-38.3-5.1 3.1-12.6-35.5 14.9 29.4 5.7-3.2 2.9 38.3 5.1-3.1 12.6 35.5zM308.5 92.6l-14.9-29.4-5.7 3.3-2.9-38.3-5.1 3-12.6-35.4 14.9 29.4 5.7-3.3 2.9 38.3 5.1-3 12.6 35.4zM308.5 226.3l-14.9-29.4-5.7 3.3-2.9-38.4-5.1 3.1-12.6-35.5 14.9 29.4 5.7-3.2 2.9 38.3 5.1-3.1 12.6 35.5zM308.5 270.9l-14.9-29.4-5.7 3.2-2.9-38.3-5.1 3.1-12.6-35.5 14.9 29.4 5.7-3.2 2.9 38.3 5.1-3.1 12.6 35.5zM308.5 315.4 293.6 286l-5.7 3.3L285 251l-5.1 3-12.6-35.4 14.9 29.4 5.7-3.3 2.9 38.3 5.1-3 12.6 35.4zM308.5 48.1l-14.9-29.4-5.7 3.2-2.9-38.3-5.1 3.1-12.6-35.5 14.9 29.4 5.7-3.3 2.9 38.4 5.1-3.1 12.6 35.5zM102.9 336.8l14.8-29.4 5.7 3.3 3-38.4 5.1 3.1 12.5-35.5-14.8 29.4-5.8-3.2-2.9 38.3-5.1-3.1-12.5 35.5zM185.1 336.8l-14.8-29.4-5.7 3.3-3-38.4-5.1 3.1-12.5-35.5 14.8 29.4 5.8-3.2 2.9 38.3 5.1-3.1 12.5 35.5zM61.8 344.5l14.8-29.4 5.7 3.3 3-38.3 5.1 3 12.5-35.4-14.8 29.4-5.8-3.3-2.9 38.3-5.1-3-12.5 35.4zM226.2 344.5l-14.8-29.4-5.7 3.3-3-38.3-5.1 3-12.5-35.4 14.8 29.4 5.8-3.3 2.9 38.3 5.1-3 12.5 35.4zM267.3 352.3l-14.8-29.4-5.7 3.2-2.9-38.3-5.2 3.1-12.5-35.5 14.9 29.4 5.7-3.2 2.9 38.3 5.1-3.1 12.5 35.5zM20.7 352.3l14.8-29.4 5.7 3.2 2.9-38.3 5.2 3.1 12.5-35.5-14.9 29.4-5.7-3.2-2.9 38.3-5.1-3.1-12.5 35.5z"/><path d="m-20.5 360 14.9-29.4 5.7 3.3L3 295.5l5.1 3.1 12.6-35.5-14.9 29.4-5.7-3.2-2.9 38.3-5.1-3.1-12.6 35.5zM308.5 360l-14.9-29.4-5.7 3.3-2.9-38.4-5.1 3.1-12.6-35.5 14.9 29.4 5.7-3.2 2.9 38.3 5.1-3.1 12.6 35.5z"/></g></g></svg>
